G04 #@! TF.GenerationSoftware,KiCad,Pcbnew,(5.1.5)-3*
G04 #@! TF.CreationDate,2020-02-29T11:13:48-05:00*
G04 #@! TF.ProjectId,LED Control,4c454420-436f-46e7-9472-6f6c2e6b6963,rev?*
G04 #@! TF.SameCoordinates,Original*
G04 #@! TF.FileFunction,Soldermask,Bot*
G04 #@! TF.FilePolarity,Negative*
%FSLAX46Y46*%
G04 Gerber Fmt 4.6, Leading zero omitted, Abs format (unit mm)*
G04 Created by KiCad (PCBNEW (5.1.5)-3) date 2020-02-29 11:13:48*
%MOMM*%
%LPD*%
G04 APERTURE LIST*
%ADD10C,0.100000*%
G04 APERTURE END LIST*
D10*
G36*
X143377049Y-133514616D02*
G01*
X143488234Y-133536732D01*
X143697703Y-133623497D01*
X143886220Y-133749460D01*
X144046540Y-133909780D01*
X144172503Y-134098297D01*
X144172504Y-134098299D01*
X144259268Y-134307767D01*
X144293842Y-134481579D01*
X144303500Y-134530136D01*
X144303500Y-134756864D01*
X144259268Y-134979234D01*
X144172503Y-135188703D01*
X144046540Y-135377220D01*
X143886220Y-135537540D01*
X143697703Y-135663503D01*
X143488234Y-135750268D01*
X143377049Y-135772384D01*
X143265865Y-135794500D01*
X143039135Y-135794500D01*
X142927951Y-135772384D01*
X142816766Y-135750268D01*
X142607297Y-135663503D01*
X142418780Y-135537540D01*
X142258460Y-135377220D01*
X142132497Y-135188703D01*
X142045732Y-134979234D01*
X142001500Y-134756864D01*
X142001500Y-134530136D01*
X142011159Y-134481579D01*
X142045732Y-134307767D01*
X142132496Y-134098299D01*
X142132497Y-134098297D01*
X142258460Y-133909780D01*
X142418780Y-133749460D01*
X142607297Y-133623497D01*
X142816766Y-133536732D01*
X142927951Y-133514616D01*
X143039135Y-133492500D01*
X143265865Y-133492500D01*
X143377049Y-133514616D01*
G37*
G36*
X138377049Y-133514616D02*
G01*
X138488234Y-133536732D01*
X138697703Y-133623497D01*
X138886220Y-133749460D01*
X139046540Y-133909780D01*
X139172503Y-134098297D01*
X139172504Y-134098299D01*
X139259268Y-134307767D01*
X139293842Y-134481579D01*
X139303500Y-134530136D01*
X139303500Y-134756864D01*
X139259268Y-134979234D01*
X139172503Y-135188703D01*
X139046540Y-135377220D01*
X138886220Y-135537540D01*
X138697703Y-135663503D01*
X138488234Y-135750268D01*
X138377049Y-135772384D01*
X138265865Y-135794500D01*
X138039135Y-135794500D01*
X137927951Y-135772384D01*
X137816766Y-135750268D01*
X137607297Y-135663503D01*
X137418780Y-135537540D01*
X137258460Y-135377220D01*
X137132497Y-135188703D01*
X137045732Y-134979234D01*
X137001500Y-134756864D01*
X137001500Y-134530136D01*
X137011159Y-134481579D01*
X137045732Y-134307767D01*
X137132496Y-134098299D01*
X137132497Y-134098297D01*
X137258460Y-133909780D01*
X137418780Y-133749460D01*
X137607297Y-133623497D01*
X137816766Y-133536732D01*
X137927951Y-133514616D01*
X138039135Y-133492500D01*
X138265865Y-133492500D01*
X138377049Y-133514616D01*
G37*
G36*
X159375256Y-132391298D02*
G01*
X159481579Y-132412447D01*
X159782042Y-132536903D01*
X160052451Y-132717585D01*
X160282415Y-132947549D01*
X160282416Y-132947551D01*
X160463098Y-133217960D01*
X160587553Y-133518422D01*
X160633510Y-133749460D01*
X160651000Y-133837391D01*
X160651000Y-134162609D01*
X160587553Y-134481579D01*
X160463097Y-134782042D01*
X160282415Y-135052451D01*
X160052451Y-135282415D01*
X159782042Y-135463097D01*
X159481579Y-135587553D01*
X159375256Y-135608702D01*
X159162611Y-135651000D01*
X158837389Y-135651000D01*
X158624744Y-135608702D01*
X158518421Y-135587553D01*
X158217958Y-135463097D01*
X157947549Y-135282415D01*
X157717585Y-135052451D01*
X157536903Y-134782042D01*
X157412447Y-134481579D01*
X157349000Y-134162609D01*
X157349000Y-133837391D01*
X157366491Y-133749460D01*
X157412447Y-133518422D01*
X157536902Y-133217960D01*
X157717584Y-132947551D01*
X157717585Y-132947549D01*
X157947549Y-132717585D01*
X158217958Y-132536903D01*
X158518421Y-132412447D01*
X158624744Y-132391298D01*
X158837389Y-132349000D01*
X159162611Y-132349000D01*
X159375256Y-132391298D01*
G37*
G36*
X111375256Y-132391298D02*
G01*
X111481579Y-132412447D01*
X111782042Y-132536903D01*
X112052451Y-132717585D01*
X112282415Y-132947549D01*
X112282416Y-132947551D01*
X112463098Y-133217960D01*
X112587553Y-133518422D01*
X112633510Y-133749460D01*
X112651000Y-133837391D01*
X112651000Y-134162609D01*
X112587553Y-134481579D01*
X112463097Y-134782042D01*
X112282415Y-135052451D01*
X112052451Y-135282415D01*
X111782042Y-135463097D01*
X111481579Y-135587553D01*
X111375256Y-135608702D01*
X111162611Y-135651000D01*
X110837389Y-135651000D01*
X110624744Y-135608702D01*
X110518421Y-135587553D01*
X110217958Y-135463097D01*
X109947549Y-135282415D01*
X109717585Y-135052451D01*
X109536903Y-134782042D01*
X109412447Y-134481579D01*
X109349000Y-134162609D01*
X109349000Y-133837391D01*
X109366491Y-133749460D01*
X109412447Y-133518422D01*
X109536902Y-133217960D01*
X109717584Y-132947551D01*
X109717585Y-132947549D01*
X109947549Y-132717585D01*
X110217958Y-132536903D01*
X110518421Y-132412447D01*
X110624744Y-132391298D01*
X110837389Y-132349000D01*
X111162611Y-132349000D01*
X111375256Y-132391298D01*
G37*
G36*
X143377049Y-128514616D02*
G01*
X143488234Y-128536732D01*
X143697703Y-128623497D01*
X143886220Y-128749460D01*
X144046540Y-128909780D01*
X144172503Y-129098297D01*
X144259268Y-129307766D01*
X144303500Y-129530136D01*
X144303500Y-129756864D01*
X144259268Y-129979234D01*
X144172503Y-130188703D01*
X144046540Y-130377220D01*
X143886220Y-130537540D01*
X143697703Y-130663503D01*
X143488234Y-130750268D01*
X143377049Y-130772384D01*
X143265865Y-130794500D01*
X143039135Y-130794500D01*
X142927951Y-130772384D01*
X142816766Y-130750268D01*
X142607297Y-130663503D01*
X142418780Y-130537540D01*
X142258460Y-130377220D01*
X142132497Y-130188703D01*
X142045732Y-129979234D01*
X142001500Y-129756864D01*
X142001500Y-129530136D01*
X142045732Y-129307766D01*
X142132497Y-129098297D01*
X142258460Y-128909780D01*
X142418780Y-128749460D01*
X142607297Y-128623497D01*
X142816766Y-128536732D01*
X142927951Y-128514616D01*
X143039135Y-128492500D01*
X143265865Y-128492500D01*
X143377049Y-128514616D01*
G37*
G36*
X138377049Y-128514616D02*
G01*
X138488234Y-128536732D01*
X138697703Y-128623497D01*
X138886220Y-128749460D01*
X139046540Y-128909780D01*
X139172503Y-129098297D01*
X139259268Y-129307766D01*
X139303500Y-129530136D01*
X139303500Y-129756864D01*
X139259268Y-129979234D01*
X139172503Y-130188703D01*
X139046540Y-130377220D01*
X138886220Y-130537540D01*
X138697703Y-130663503D01*
X138488234Y-130750268D01*
X138377049Y-130772384D01*
X138265865Y-130794500D01*
X138039135Y-130794500D01*
X137927951Y-130772384D01*
X137816766Y-130750268D01*
X137607297Y-130663503D01*
X137418780Y-130537540D01*
X137258460Y-130377220D01*
X137132497Y-130188703D01*
X137045732Y-129979234D01*
X137001500Y-129756864D01*
X137001500Y-129530136D01*
X137045732Y-129307766D01*
X137132497Y-129098297D01*
X137258460Y-128909780D01*
X137418780Y-128749460D01*
X137607297Y-128623497D01*
X137816766Y-128536732D01*
X137927951Y-128514616D01*
X138039135Y-128492500D01*
X138265865Y-128492500D01*
X138377049Y-128514616D01*
G37*
G36*
X157971142Y-123556242D02*
G01*
X158119101Y-123617529D01*
X158252255Y-123706499D01*
X158365501Y-123819745D01*
X158454471Y-123952899D01*
X158515758Y-124100858D01*
X158547000Y-124257925D01*
X158547000Y-124418075D01*
X158515758Y-124575142D01*
X158454471Y-124723101D01*
X158365501Y-124856255D01*
X158252255Y-124969501D01*
X158119101Y-125058471D01*
X157971142Y-125119758D01*
X157814075Y-125151000D01*
X157653925Y-125151000D01*
X157496858Y-125119758D01*
X157348899Y-125058471D01*
X157215745Y-124969501D01*
X157102499Y-124856255D01*
X157013529Y-124723101D01*
X156952242Y-124575142D01*
X156921000Y-124418075D01*
X156921000Y-124257925D01*
X156952242Y-124100858D01*
X157013529Y-123952899D01*
X157102499Y-123819745D01*
X157215745Y-123706499D01*
X157348899Y-123617529D01*
X157496858Y-123556242D01*
X157653925Y-123525000D01*
X157814075Y-123525000D01*
X157971142Y-123556242D01*
G37*
G36*
X145028228Y-120466703D02*
G01*
X145183100Y-120530853D01*
X145322481Y-120623985D01*
X145441015Y-120742519D01*
X145534147Y-120881900D01*
X145598297Y-121036772D01*
X145631000Y-121201184D01*
X145631000Y-121368816D01*
X145598297Y-121533228D01*
X145534147Y-121688100D01*
X145441015Y-121827481D01*
X145322481Y-121946015D01*
X145183100Y-122039147D01*
X145028228Y-122103297D01*
X144863816Y-122136000D01*
X144696184Y-122136000D01*
X144531772Y-122103297D01*
X144376900Y-122039147D01*
X144237519Y-121946015D01*
X144118985Y-121827481D01*
X144025853Y-121688100D01*
X143961703Y-121533228D01*
X143929000Y-121368816D01*
X143929000Y-121201184D01*
X143961703Y-121036772D01*
X144025853Y-120881900D01*
X144118985Y-120742519D01*
X144237519Y-120623985D01*
X144376900Y-120530853D01*
X144531772Y-120466703D01*
X144696184Y-120434000D01*
X144863816Y-120434000D01*
X145028228Y-120466703D01*
G37*
G36*
X130391000Y-122136000D02*
G01*
X128689000Y-122136000D01*
X128689000Y-120434000D01*
X130391000Y-120434000D01*
X130391000Y-122136000D01*
G37*
G36*
X157971142Y-119106242D02*
G01*
X158119101Y-119167529D01*
X158252255Y-119256499D01*
X158365501Y-119369745D01*
X158454471Y-119502899D01*
X158515758Y-119650858D01*
X158547000Y-119807925D01*
X158547000Y-119968075D01*
X158515758Y-120125142D01*
X158454471Y-120273101D01*
X158365501Y-120406255D01*
X158252255Y-120519501D01*
X158119101Y-120608471D01*
X157971142Y-120669758D01*
X157814075Y-120701000D01*
X157653925Y-120701000D01*
X157496858Y-120669758D01*
X157348899Y-120608471D01*
X157215745Y-120519501D01*
X157102499Y-120406255D01*
X157013529Y-120273101D01*
X156952242Y-120125142D01*
X156921000Y-119968075D01*
X156921000Y-119807925D01*
X156952242Y-119650858D01*
X157013529Y-119502899D01*
X157102499Y-119369745D01*
X157215745Y-119256499D01*
X157348899Y-119167529D01*
X157496858Y-119106242D01*
X157653925Y-119075000D01*
X157814075Y-119075000D01*
X157971142Y-119106242D01*
G37*
G36*
X129788228Y-117926703D02*
G01*
X129943100Y-117990853D01*
X130082481Y-118083985D01*
X130201015Y-118202519D01*
X130294147Y-118341900D01*
X130358297Y-118496772D01*
X130391000Y-118661184D01*
X130391000Y-118828816D01*
X130358297Y-118993228D01*
X130294147Y-119148100D01*
X130201015Y-119287481D01*
X130082481Y-119406015D01*
X129943100Y-119499147D01*
X129788228Y-119563297D01*
X129623816Y-119596000D01*
X129456184Y-119596000D01*
X129291772Y-119563297D01*
X129136900Y-119499147D01*
X128997519Y-119406015D01*
X128878985Y-119287481D01*
X128785853Y-119148100D01*
X128721703Y-118993228D01*
X128689000Y-118828816D01*
X128689000Y-118661184D01*
X128721703Y-118496772D01*
X128785853Y-118341900D01*
X128878985Y-118202519D01*
X128997519Y-118083985D01*
X129136900Y-117990853D01*
X129291772Y-117926703D01*
X129456184Y-117894000D01*
X129623816Y-117894000D01*
X129788228Y-117926703D01*
G37*
G36*
X145028228Y-117926703D02*
G01*
X145183100Y-117990853D01*
X145322481Y-118083985D01*
X145441015Y-118202519D01*
X145534147Y-118341900D01*
X145598297Y-118496772D01*
X145631000Y-118661184D01*
X145631000Y-118828816D01*
X145598297Y-118993228D01*
X145534147Y-119148100D01*
X145441015Y-119287481D01*
X145322481Y-119406015D01*
X145183100Y-119499147D01*
X145028228Y-119563297D01*
X144863816Y-119596000D01*
X144696184Y-119596000D01*
X144531772Y-119563297D01*
X144376900Y-119499147D01*
X144237519Y-119406015D01*
X144118985Y-119287481D01*
X144025853Y-119148100D01*
X143961703Y-118993228D01*
X143929000Y-118828816D01*
X143929000Y-118661184D01*
X143961703Y-118496772D01*
X144025853Y-118341900D01*
X144118985Y-118202519D01*
X144237519Y-118083985D01*
X144376900Y-117990853D01*
X144531772Y-117926703D01*
X144696184Y-117894000D01*
X144863816Y-117894000D01*
X145028228Y-117926703D01*
G37*
G36*
X145028228Y-115386703D02*
G01*
X145183100Y-115450853D01*
X145322481Y-115543985D01*
X145441015Y-115662519D01*
X145534147Y-115801900D01*
X145598297Y-115956772D01*
X145631000Y-116121184D01*
X145631000Y-116288816D01*
X145598297Y-116453228D01*
X145534147Y-116608100D01*
X145441015Y-116747481D01*
X145322481Y-116866015D01*
X145183100Y-116959147D01*
X145028228Y-117023297D01*
X144863816Y-117056000D01*
X144696184Y-117056000D01*
X144531772Y-117023297D01*
X144376900Y-116959147D01*
X144237519Y-116866015D01*
X144118985Y-116747481D01*
X144025853Y-116608100D01*
X143961703Y-116453228D01*
X143929000Y-116288816D01*
X143929000Y-116121184D01*
X143961703Y-115956772D01*
X144025853Y-115801900D01*
X144118985Y-115662519D01*
X144237519Y-115543985D01*
X144376900Y-115450853D01*
X144531772Y-115386703D01*
X144696184Y-115354000D01*
X144863816Y-115354000D01*
X145028228Y-115386703D01*
G37*
G36*
X129788228Y-115386703D02*
G01*
X129943100Y-115450853D01*
X130082481Y-115543985D01*
X130201015Y-115662519D01*
X130294147Y-115801900D01*
X130358297Y-115956772D01*
X130391000Y-116121184D01*
X130391000Y-116288816D01*
X130358297Y-116453228D01*
X130294147Y-116608100D01*
X130201015Y-116747481D01*
X130082481Y-116866015D01*
X129943100Y-116959147D01*
X129788228Y-117023297D01*
X129623816Y-117056000D01*
X129456184Y-117056000D01*
X129291772Y-117023297D01*
X129136900Y-116959147D01*
X128997519Y-116866015D01*
X128878985Y-116747481D01*
X128785853Y-116608100D01*
X128721703Y-116453228D01*
X128689000Y-116288816D01*
X128689000Y-116121184D01*
X128721703Y-115956772D01*
X128785853Y-115801900D01*
X128878985Y-115662519D01*
X128997519Y-115543985D01*
X129136900Y-115450853D01*
X129291772Y-115386703D01*
X129456184Y-115354000D01*
X129623816Y-115354000D01*
X129788228Y-115386703D01*
G37*
G36*
X157971142Y-114656242D02*
G01*
X158119101Y-114717529D01*
X158252255Y-114806499D01*
X158365501Y-114919745D01*
X158454471Y-115052899D01*
X158515758Y-115200858D01*
X158547000Y-115357925D01*
X158547000Y-115518075D01*
X158515758Y-115675142D01*
X158454471Y-115823101D01*
X158365501Y-115956255D01*
X158252255Y-116069501D01*
X158119101Y-116158471D01*
X157971142Y-116219758D01*
X157814075Y-116251000D01*
X157653925Y-116251000D01*
X157496858Y-116219758D01*
X157348899Y-116158471D01*
X157215745Y-116069501D01*
X157102499Y-115956255D01*
X157013529Y-115823101D01*
X156952242Y-115675142D01*
X156921000Y-115518075D01*
X156921000Y-115357925D01*
X156952242Y-115200858D01*
X157013529Y-115052899D01*
X157102499Y-114919745D01*
X157215745Y-114806499D01*
X157348899Y-114717529D01*
X157496858Y-114656242D01*
X157653925Y-114625000D01*
X157814075Y-114625000D01*
X157971142Y-114656242D01*
G37*
G36*
X145028228Y-112846703D02*
G01*
X145183100Y-112910853D01*
X145322481Y-113003985D01*
X145441015Y-113122519D01*
X145534147Y-113261900D01*
X145598297Y-113416772D01*
X145631000Y-113581184D01*
X145631000Y-113748816D01*
X145598297Y-113913228D01*
X145534147Y-114068100D01*
X145441015Y-114207481D01*
X145322481Y-114326015D01*
X145183100Y-114419147D01*
X145028228Y-114483297D01*
X144863816Y-114516000D01*
X144696184Y-114516000D01*
X144531772Y-114483297D01*
X144376900Y-114419147D01*
X144237519Y-114326015D01*
X144118985Y-114207481D01*
X144025853Y-114068100D01*
X143961703Y-113913228D01*
X143929000Y-113748816D01*
X143929000Y-113581184D01*
X143961703Y-113416772D01*
X144025853Y-113261900D01*
X144118985Y-113122519D01*
X144237519Y-113003985D01*
X144376900Y-112910853D01*
X144531772Y-112846703D01*
X144696184Y-112814000D01*
X144863816Y-112814000D01*
X145028228Y-112846703D01*
G37*
G36*
X129788228Y-112846703D02*
G01*
X129943100Y-112910853D01*
X130082481Y-113003985D01*
X130201015Y-113122519D01*
X130294147Y-113261900D01*
X130358297Y-113416772D01*
X130391000Y-113581184D01*
X130391000Y-113748816D01*
X130358297Y-113913228D01*
X130294147Y-114068100D01*
X130201015Y-114207481D01*
X130082481Y-114326015D01*
X129943100Y-114419147D01*
X129788228Y-114483297D01*
X129623816Y-114516000D01*
X129456184Y-114516000D01*
X129291772Y-114483297D01*
X129136900Y-114419147D01*
X128997519Y-114326015D01*
X128878985Y-114207481D01*
X128785853Y-114068100D01*
X128721703Y-113913228D01*
X128689000Y-113748816D01*
X128689000Y-113581184D01*
X128721703Y-113416772D01*
X128785853Y-113261900D01*
X128878985Y-113122519D01*
X128997519Y-113003985D01*
X129136900Y-112910853D01*
X129291772Y-112846703D01*
X129456184Y-112814000D01*
X129623816Y-112814000D01*
X129788228Y-112846703D01*
G37*
G36*
X118243536Y-111491016D02*
G01*
X118465213Y-111558261D01*
X118669512Y-111667461D01*
X118848581Y-111814419D01*
X118995539Y-111993488D01*
X119104739Y-112197787D01*
X119171984Y-112419464D01*
X119194690Y-112650000D01*
X119171984Y-112880536D01*
X119104739Y-113102213D01*
X118995539Y-113306512D01*
X118848581Y-113485581D01*
X118669512Y-113632539D01*
X118465213Y-113741739D01*
X118243536Y-113808984D01*
X118070771Y-113826000D01*
X115705229Y-113826000D01*
X115532464Y-113808984D01*
X115310787Y-113741739D01*
X115106488Y-113632539D01*
X114927419Y-113485581D01*
X114780461Y-113306512D01*
X114671261Y-113102213D01*
X114604016Y-112880536D01*
X114581310Y-112650000D01*
X114604016Y-112419464D01*
X114671261Y-112197787D01*
X114780461Y-111993488D01*
X114927419Y-111814419D01*
X115106488Y-111667461D01*
X115310787Y-111558261D01*
X115532464Y-111491016D01*
X115705229Y-111474000D01*
X118070771Y-111474000D01*
X118243536Y-111491016D01*
G37*
G36*
X145028228Y-110306703D02*
G01*
X145183100Y-110370853D01*
X145322481Y-110463985D01*
X145441015Y-110582519D01*
X145534147Y-110721900D01*
X145598297Y-110876772D01*
X145631000Y-111041184D01*
X145631000Y-111208816D01*
X145598297Y-111373228D01*
X145534147Y-111528100D01*
X145441015Y-111667481D01*
X145322481Y-111786015D01*
X145183100Y-111879147D01*
X145028228Y-111943297D01*
X144863816Y-111976000D01*
X144696184Y-111976000D01*
X144531772Y-111943297D01*
X144376900Y-111879147D01*
X144237519Y-111786015D01*
X144118985Y-111667481D01*
X144025853Y-111528100D01*
X143961703Y-111373228D01*
X143929000Y-111208816D01*
X143929000Y-111041184D01*
X143961703Y-110876772D01*
X144025853Y-110721900D01*
X144118985Y-110582519D01*
X144237519Y-110463985D01*
X144376900Y-110370853D01*
X144531772Y-110306703D01*
X144696184Y-110274000D01*
X144863816Y-110274000D01*
X145028228Y-110306703D01*
G37*
G36*
X129788228Y-110306703D02*
G01*
X129943100Y-110370853D01*
X130082481Y-110463985D01*
X130201015Y-110582519D01*
X130294147Y-110721900D01*
X130358297Y-110876772D01*
X130391000Y-111041184D01*
X130391000Y-111208816D01*
X130358297Y-111373228D01*
X130294147Y-111528100D01*
X130201015Y-111667481D01*
X130082481Y-111786015D01*
X129943100Y-111879147D01*
X129788228Y-111943297D01*
X129623816Y-111976000D01*
X129456184Y-111976000D01*
X129291772Y-111943297D01*
X129136900Y-111879147D01*
X128997519Y-111786015D01*
X128878985Y-111667481D01*
X128785853Y-111528100D01*
X128721703Y-111373228D01*
X128689000Y-111208816D01*
X128689000Y-111041184D01*
X128721703Y-110876772D01*
X128785853Y-110721900D01*
X128878985Y-110582519D01*
X128997519Y-110463985D01*
X129136900Y-110370853D01*
X129291772Y-110306703D01*
X129456184Y-110274000D01*
X129623816Y-110274000D01*
X129788228Y-110306703D01*
G37*
G36*
X120143040Y-105417825D02*
G01*
X120388280Y-105492218D01*
X120614294Y-105613025D01*
X120625320Y-105622074D01*
X120812397Y-105775603D01*
X120932624Y-105922101D01*
X120974975Y-105973706D01*
X120974976Y-105973708D01*
X121057883Y-106128815D01*
X121095782Y-106199720D01*
X121170175Y-106444960D01*
X121189000Y-106636095D01*
X121189000Y-109263905D01*
X121170175Y-109455040D01*
X121095782Y-109700280D01*
X120974975Y-109926294D01*
X120812396Y-110124396D01*
X120614293Y-110286975D01*
X120388279Y-110407782D01*
X120143039Y-110482175D01*
X119888000Y-110507294D01*
X119632960Y-110482175D01*
X119387720Y-110407782D01*
X119387718Y-110407781D01*
X119161707Y-110286976D01*
X118963604Y-110124396D01*
X118801026Y-109926294D01*
X118801025Y-109926293D01*
X118680218Y-109700279D01*
X118605825Y-109455039D01*
X118587000Y-109263904D01*
X118587001Y-106636095D01*
X118605826Y-106444960D01*
X118680219Y-106199720D01*
X118718119Y-106128815D01*
X118801025Y-105973708D01*
X118801026Y-105973706D01*
X118843377Y-105922101D01*
X118963604Y-105775603D01*
X119150681Y-105622074D01*
X119161707Y-105613025D01*
X119387721Y-105492218D01*
X119632961Y-105417825D01*
X119888000Y-105392706D01*
X120143040Y-105417825D01*
G37*
G36*
X114118536Y-105666016D02*
G01*
X114340213Y-105733261D01*
X114544512Y-105842461D01*
X114723581Y-105989419D01*
X114870539Y-106168488D01*
X114979739Y-106372787D01*
X115046984Y-106594464D01*
X115064000Y-106767229D01*
X115064000Y-109132771D01*
X115046984Y-109305536D01*
X114979739Y-109527213D01*
X114870539Y-109731512D01*
X114723581Y-109910581D01*
X114544511Y-110057539D01*
X114340212Y-110166739D01*
X114118535Y-110233984D01*
X113888000Y-110256690D01*
X113657464Y-110233984D01*
X113435787Y-110166739D01*
X113231488Y-110057539D01*
X113052419Y-109910581D01*
X112905461Y-109731511D01*
X112796261Y-109527212D01*
X112729016Y-109305535D01*
X112712000Y-109132770D01*
X112712001Y-106767229D01*
X112729017Y-106594464D01*
X112796262Y-106372787D01*
X112905462Y-106168488D01*
X113052420Y-105989419D01*
X113231489Y-105842461D01*
X113435788Y-105733261D01*
X113657465Y-105666016D01*
X113888000Y-105643310D01*
X114118536Y-105666016D01*
G37*
G36*
X145028228Y-107766703D02*
G01*
X145183100Y-107830853D01*
X145322481Y-107923985D01*
X145441015Y-108042519D01*
X145534147Y-108181900D01*
X145598297Y-108336772D01*
X145631000Y-108501184D01*
X145631000Y-108668816D01*
X145598297Y-108833228D01*
X145534147Y-108988100D01*
X145441015Y-109127481D01*
X145322481Y-109246015D01*
X145183100Y-109339147D01*
X145028228Y-109403297D01*
X144863816Y-109436000D01*
X144696184Y-109436000D01*
X144531772Y-109403297D01*
X144376900Y-109339147D01*
X144237519Y-109246015D01*
X144118985Y-109127481D01*
X144025853Y-108988100D01*
X143961703Y-108833228D01*
X143929000Y-108668816D01*
X143929000Y-108501184D01*
X143961703Y-108336772D01*
X144025853Y-108181900D01*
X144118985Y-108042519D01*
X144237519Y-107923985D01*
X144376900Y-107830853D01*
X144531772Y-107766703D01*
X144696184Y-107734000D01*
X144863816Y-107734000D01*
X145028228Y-107766703D01*
G37*
G36*
X129788228Y-107766703D02*
G01*
X129943100Y-107830853D01*
X130082481Y-107923985D01*
X130201015Y-108042519D01*
X130294147Y-108181900D01*
X130358297Y-108336772D01*
X130391000Y-108501184D01*
X130391000Y-108668816D01*
X130358297Y-108833228D01*
X130294147Y-108988100D01*
X130201015Y-109127481D01*
X130082481Y-109246015D01*
X129943100Y-109339147D01*
X129788228Y-109403297D01*
X129623816Y-109436000D01*
X129456184Y-109436000D01*
X129291772Y-109403297D01*
X129136900Y-109339147D01*
X128997519Y-109246015D01*
X128878985Y-109127481D01*
X128785853Y-108988100D01*
X128721703Y-108833228D01*
X128689000Y-108668816D01*
X128689000Y-108501184D01*
X128721703Y-108336772D01*
X128785853Y-108181900D01*
X128878985Y-108042519D01*
X128997519Y-107923985D01*
X129136900Y-107830853D01*
X129291772Y-107766703D01*
X129456184Y-107734000D01*
X129623816Y-107734000D01*
X129788228Y-107766703D01*
G37*
G36*
X129788228Y-105226703D02*
G01*
X129943100Y-105290853D01*
X130082481Y-105383985D01*
X130201015Y-105502519D01*
X130294147Y-105641900D01*
X130358297Y-105796772D01*
X130391000Y-105961184D01*
X130391000Y-106128816D01*
X130358297Y-106293228D01*
X130294147Y-106448100D01*
X130201015Y-106587481D01*
X130082481Y-106706015D01*
X129943100Y-106799147D01*
X129788228Y-106863297D01*
X129623816Y-106896000D01*
X129456184Y-106896000D01*
X129291772Y-106863297D01*
X129136900Y-106799147D01*
X128997519Y-106706015D01*
X128878985Y-106587481D01*
X128785853Y-106448100D01*
X128721703Y-106293228D01*
X128689000Y-106128816D01*
X128689000Y-105961184D01*
X128721703Y-105796772D01*
X128785853Y-105641900D01*
X128878985Y-105502519D01*
X128997519Y-105383985D01*
X129136900Y-105290853D01*
X129291772Y-105226703D01*
X129456184Y-105194000D01*
X129623816Y-105194000D01*
X129788228Y-105226703D01*
G37*
G36*
X145028228Y-105226703D02*
G01*
X145183100Y-105290853D01*
X145322481Y-105383985D01*
X145441015Y-105502519D01*
X145534147Y-105641900D01*
X145598297Y-105796772D01*
X145631000Y-105961184D01*
X145631000Y-106128816D01*
X145598297Y-106293228D01*
X145534147Y-106448100D01*
X145441015Y-106587481D01*
X145322481Y-106706015D01*
X145183100Y-106799147D01*
X145028228Y-106863297D01*
X144863816Y-106896000D01*
X144696184Y-106896000D01*
X144531772Y-106863297D01*
X144376900Y-106799147D01*
X144237519Y-106706015D01*
X144118985Y-106587481D01*
X144025853Y-106448100D01*
X143961703Y-106293228D01*
X143929000Y-106128816D01*
X143929000Y-105961184D01*
X143961703Y-105796772D01*
X144025853Y-105641900D01*
X144118985Y-105502519D01*
X144237519Y-105383985D01*
X144376900Y-105290853D01*
X144531772Y-105226703D01*
X144696184Y-105194000D01*
X144863816Y-105194000D01*
X145028228Y-105226703D01*
G37*
G36*
X157971142Y-104760242D02*
G01*
X158119101Y-104821529D01*
X158252255Y-104910499D01*
X158365501Y-105023745D01*
X158454471Y-105156899D01*
X158515758Y-105304858D01*
X158547000Y-105461925D01*
X158547000Y-105622075D01*
X158515758Y-105779142D01*
X158454471Y-105927101D01*
X158365501Y-106060255D01*
X158252255Y-106173501D01*
X158119101Y-106262471D01*
X157971142Y-106323758D01*
X157814075Y-106355000D01*
X157653925Y-106355000D01*
X157496858Y-106323758D01*
X157348899Y-106262471D01*
X157215745Y-106173501D01*
X157102499Y-106060255D01*
X157013529Y-105927101D01*
X156952242Y-105779142D01*
X156921000Y-105622075D01*
X156921000Y-105461925D01*
X156952242Y-105304858D01*
X157013529Y-105156899D01*
X157102499Y-105023745D01*
X157215745Y-104910499D01*
X157348899Y-104821529D01*
X157496858Y-104760242D01*
X157653925Y-104729000D01*
X157814075Y-104729000D01*
X157971142Y-104760242D01*
G37*
G36*
X145028228Y-102686703D02*
G01*
X145183100Y-102750853D01*
X145322481Y-102843985D01*
X145441015Y-102962519D01*
X145534147Y-103101900D01*
X145598297Y-103256772D01*
X145631000Y-103421184D01*
X145631000Y-103588816D01*
X145598297Y-103753228D01*
X145534147Y-103908100D01*
X145441015Y-104047481D01*
X145322481Y-104166015D01*
X145183100Y-104259147D01*
X145028228Y-104323297D01*
X144863816Y-104356000D01*
X144696184Y-104356000D01*
X144531772Y-104323297D01*
X144376900Y-104259147D01*
X144237519Y-104166015D01*
X144118985Y-104047481D01*
X144025853Y-103908100D01*
X143961703Y-103753228D01*
X143929000Y-103588816D01*
X143929000Y-103421184D01*
X143961703Y-103256772D01*
X144025853Y-103101900D01*
X144118985Y-102962519D01*
X144237519Y-102843985D01*
X144376900Y-102750853D01*
X144531772Y-102686703D01*
X144696184Y-102654000D01*
X144863816Y-102654000D01*
X145028228Y-102686703D01*
G37*
G36*
X129788228Y-102686703D02*
G01*
X129943100Y-102750853D01*
X130082481Y-102843985D01*
X130201015Y-102962519D01*
X130294147Y-103101900D01*
X130358297Y-103256772D01*
X130391000Y-103421184D01*
X130391000Y-103588816D01*
X130358297Y-103753228D01*
X130294147Y-103908100D01*
X130201015Y-104047481D01*
X130082481Y-104166015D01*
X129943100Y-104259147D01*
X129788228Y-104323297D01*
X129623816Y-104356000D01*
X129456184Y-104356000D01*
X129291772Y-104323297D01*
X129136900Y-104259147D01*
X128997519Y-104166015D01*
X128878985Y-104047481D01*
X128785853Y-103908100D01*
X128721703Y-103753228D01*
X128689000Y-103588816D01*
X128689000Y-103421184D01*
X128721703Y-103256772D01*
X128785853Y-103101900D01*
X128878985Y-102962519D01*
X128997519Y-102843985D01*
X129136900Y-102750853D01*
X129291772Y-102686703D01*
X129456184Y-102654000D01*
X129623816Y-102654000D01*
X129788228Y-102686703D01*
G37*
G36*
X157971142Y-100310242D02*
G01*
X158119101Y-100371529D01*
X158252255Y-100460499D01*
X158365501Y-100573745D01*
X158454471Y-100706899D01*
X158515758Y-100854858D01*
X158547000Y-101011925D01*
X158547000Y-101172075D01*
X158515758Y-101329142D01*
X158454471Y-101477101D01*
X158365501Y-101610255D01*
X158252255Y-101723501D01*
X158119101Y-101812471D01*
X157971142Y-101873758D01*
X157814075Y-101905000D01*
X157653925Y-101905000D01*
X157496858Y-101873758D01*
X157348899Y-101812471D01*
X157215745Y-101723501D01*
X157102499Y-101610255D01*
X157013529Y-101477101D01*
X156952242Y-101329142D01*
X156921000Y-101172075D01*
X156921000Y-101011925D01*
X156952242Y-100854858D01*
X157013529Y-100706899D01*
X157102499Y-100573745D01*
X157215745Y-100460499D01*
X157348899Y-100371529D01*
X157496858Y-100310242D01*
X157653925Y-100279000D01*
X157814075Y-100279000D01*
X157971142Y-100310242D01*
G37*
G36*
X129788228Y-100146703D02*
G01*
X129943100Y-100210853D01*
X130082481Y-100303985D01*
X130201015Y-100422519D01*
X130294147Y-100561900D01*
X130358297Y-100716772D01*
X130391000Y-100881184D01*
X130391000Y-101048816D01*
X130358297Y-101213228D01*
X130294147Y-101368100D01*
X130201015Y-101507481D01*
X130082481Y-101626015D01*
X129943100Y-101719147D01*
X129788228Y-101783297D01*
X129623816Y-101816000D01*
X129456184Y-101816000D01*
X129291772Y-101783297D01*
X129136900Y-101719147D01*
X128997519Y-101626015D01*
X128878985Y-101507481D01*
X128785853Y-101368100D01*
X128721703Y-101213228D01*
X128689000Y-101048816D01*
X128689000Y-100881184D01*
X128721703Y-100716772D01*
X128785853Y-100561900D01*
X128878985Y-100422519D01*
X128997519Y-100303985D01*
X129136900Y-100210853D01*
X129291772Y-100146703D01*
X129456184Y-100114000D01*
X129623816Y-100114000D01*
X129788228Y-100146703D01*
G37*
G36*
X145028228Y-100146703D02*
G01*
X145183100Y-100210853D01*
X145322481Y-100303985D01*
X145441015Y-100422519D01*
X145534147Y-100561900D01*
X145598297Y-100716772D01*
X145631000Y-100881184D01*
X145631000Y-101048816D01*
X145598297Y-101213228D01*
X145534147Y-101368100D01*
X145441015Y-101507481D01*
X145322481Y-101626015D01*
X145183100Y-101719147D01*
X145028228Y-101783297D01*
X144863816Y-101816000D01*
X144696184Y-101816000D01*
X144531772Y-101783297D01*
X144376900Y-101719147D01*
X144237519Y-101626015D01*
X144118985Y-101507481D01*
X144025853Y-101368100D01*
X143961703Y-101213228D01*
X143929000Y-101048816D01*
X143929000Y-100881184D01*
X143961703Y-100716772D01*
X144025853Y-100561900D01*
X144118985Y-100422519D01*
X144237519Y-100303985D01*
X144376900Y-100210853D01*
X144531772Y-100146703D01*
X144696184Y-100114000D01*
X144863816Y-100114000D01*
X145028228Y-100146703D01*
G37*
G36*
X145028228Y-97606703D02*
G01*
X145183100Y-97670853D01*
X145322481Y-97763985D01*
X145441015Y-97882519D01*
X145534147Y-98021900D01*
X145598297Y-98176772D01*
X145631000Y-98341184D01*
X145631000Y-98508816D01*
X145598297Y-98673228D01*
X145534147Y-98828100D01*
X145441015Y-98967481D01*
X145322481Y-99086015D01*
X145183100Y-99179147D01*
X145028228Y-99243297D01*
X144863816Y-99276000D01*
X144696184Y-99276000D01*
X144531772Y-99243297D01*
X144376900Y-99179147D01*
X144237519Y-99086015D01*
X144118985Y-98967481D01*
X144025853Y-98828100D01*
X143961703Y-98673228D01*
X143929000Y-98508816D01*
X143929000Y-98341184D01*
X143961703Y-98176772D01*
X144025853Y-98021900D01*
X144118985Y-97882519D01*
X144237519Y-97763985D01*
X144376900Y-97670853D01*
X144531772Y-97606703D01*
X144696184Y-97574000D01*
X144863816Y-97574000D01*
X145028228Y-97606703D01*
G37*
G36*
X129788228Y-97606703D02*
G01*
X129943100Y-97670853D01*
X130082481Y-97763985D01*
X130201015Y-97882519D01*
X130294147Y-98021900D01*
X130358297Y-98176772D01*
X130391000Y-98341184D01*
X130391000Y-98508816D01*
X130358297Y-98673228D01*
X130294147Y-98828100D01*
X130201015Y-98967481D01*
X130082481Y-99086015D01*
X129943100Y-99179147D01*
X129788228Y-99243297D01*
X129623816Y-99276000D01*
X129456184Y-99276000D01*
X129291772Y-99243297D01*
X129136900Y-99179147D01*
X128997519Y-99086015D01*
X128878985Y-98967481D01*
X128785853Y-98828100D01*
X128721703Y-98673228D01*
X128689000Y-98508816D01*
X128689000Y-98341184D01*
X128721703Y-98176772D01*
X128785853Y-98021900D01*
X128878985Y-97882519D01*
X128997519Y-97763985D01*
X129136900Y-97670853D01*
X129291772Y-97606703D01*
X129456184Y-97574000D01*
X129623816Y-97574000D01*
X129788228Y-97606703D01*
G37*
G36*
X157971142Y-95860242D02*
G01*
X158119101Y-95921529D01*
X158252255Y-96010499D01*
X158365501Y-96123745D01*
X158454471Y-96256899D01*
X158515758Y-96404858D01*
X158547000Y-96561925D01*
X158547000Y-96722075D01*
X158515758Y-96879142D01*
X158454471Y-97027101D01*
X158365501Y-97160255D01*
X158252255Y-97273501D01*
X158119101Y-97362471D01*
X157971142Y-97423758D01*
X157814075Y-97455000D01*
X157653925Y-97455000D01*
X157496858Y-97423758D01*
X157348899Y-97362471D01*
X157215745Y-97273501D01*
X157102499Y-97160255D01*
X157013529Y-97027101D01*
X156952242Y-96879142D01*
X156921000Y-96722075D01*
X156921000Y-96561925D01*
X156952242Y-96404858D01*
X157013529Y-96256899D01*
X157102499Y-96123745D01*
X157215745Y-96010499D01*
X157348899Y-95921529D01*
X157496858Y-95860242D01*
X157653925Y-95829000D01*
X157814075Y-95829000D01*
X157971142Y-95860242D01*
G37*
G36*
X145028228Y-95066703D02*
G01*
X145183100Y-95130853D01*
X145322481Y-95223985D01*
X145441015Y-95342519D01*
X145534147Y-95481900D01*
X145598297Y-95636772D01*
X145631000Y-95801184D01*
X145631000Y-95968816D01*
X145598297Y-96133228D01*
X145534147Y-96288100D01*
X145441015Y-96427481D01*
X145322481Y-96546015D01*
X145183100Y-96639147D01*
X145028228Y-96703297D01*
X144863816Y-96736000D01*
X144696184Y-96736000D01*
X144531772Y-96703297D01*
X144376900Y-96639147D01*
X144237519Y-96546015D01*
X144118985Y-96427481D01*
X144025853Y-96288100D01*
X143961703Y-96133228D01*
X143929000Y-95968816D01*
X143929000Y-95801184D01*
X143961703Y-95636772D01*
X144025853Y-95481900D01*
X144118985Y-95342519D01*
X144237519Y-95223985D01*
X144376900Y-95130853D01*
X144531772Y-95066703D01*
X144696184Y-95034000D01*
X144863816Y-95034000D01*
X145028228Y-95066703D01*
G37*
G36*
X129788228Y-95066703D02*
G01*
X129943100Y-95130853D01*
X130082481Y-95223985D01*
X130201015Y-95342519D01*
X130294147Y-95481900D01*
X130358297Y-95636772D01*
X130391000Y-95801184D01*
X130391000Y-95968816D01*
X130358297Y-96133228D01*
X130294147Y-96288100D01*
X130201015Y-96427481D01*
X130082481Y-96546015D01*
X129943100Y-96639147D01*
X129788228Y-96703297D01*
X129623816Y-96736000D01*
X129456184Y-96736000D01*
X129291772Y-96703297D01*
X129136900Y-96639147D01*
X128997519Y-96546015D01*
X128878985Y-96427481D01*
X128785853Y-96288100D01*
X128721703Y-96133228D01*
X128689000Y-95968816D01*
X128689000Y-95801184D01*
X128721703Y-95636772D01*
X128785853Y-95481900D01*
X128878985Y-95342519D01*
X128997519Y-95223985D01*
X129136900Y-95130853D01*
X129291772Y-95066703D01*
X129456184Y-95034000D01*
X129623816Y-95034000D01*
X129788228Y-95066703D01*
G37*
G36*
X113092000Y-96709000D02*
G01*
X111190000Y-96709000D01*
X111190000Y-94807000D01*
X113092000Y-94807000D01*
X113092000Y-96709000D01*
G37*
G36*
X145028228Y-92526703D02*
G01*
X145183100Y-92590853D01*
X145322481Y-92683985D01*
X145441015Y-92802519D01*
X145534147Y-92941900D01*
X145598297Y-93096772D01*
X145631000Y-93261184D01*
X145631000Y-93428816D01*
X145598297Y-93593228D01*
X145534147Y-93748100D01*
X145441015Y-93887481D01*
X145322481Y-94006015D01*
X145183100Y-94099147D01*
X145028228Y-94163297D01*
X144863816Y-94196000D01*
X144696184Y-94196000D01*
X144531772Y-94163297D01*
X144376900Y-94099147D01*
X144237519Y-94006015D01*
X144118985Y-93887481D01*
X144025853Y-93748100D01*
X143961703Y-93593228D01*
X143929000Y-93428816D01*
X143929000Y-93261184D01*
X143961703Y-93096772D01*
X144025853Y-92941900D01*
X144118985Y-92802519D01*
X144237519Y-92683985D01*
X144376900Y-92590853D01*
X144531772Y-92526703D01*
X144696184Y-92494000D01*
X144863816Y-92494000D01*
X145028228Y-92526703D01*
G37*
G36*
X129788228Y-92526703D02*
G01*
X129943100Y-92590853D01*
X130082481Y-92683985D01*
X130201015Y-92802519D01*
X130294147Y-92941900D01*
X130358297Y-93096772D01*
X130391000Y-93261184D01*
X130391000Y-93428816D01*
X130358297Y-93593228D01*
X130294147Y-93748100D01*
X130201015Y-93887481D01*
X130082481Y-94006015D01*
X129943100Y-94099147D01*
X129788228Y-94163297D01*
X129623816Y-94196000D01*
X129456184Y-94196000D01*
X129291772Y-94163297D01*
X129136900Y-94099147D01*
X128997519Y-94006015D01*
X128878985Y-93887481D01*
X128785853Y-93748100D01*
X128721703Y-93593228D01*
X128689000Y-93428816D01*
X128689000Y-93261184D01*
X128721703Y-93096772D01*
X128785853Y-92941900D01*
X128878985Y-92802519D01*
X128997519Y-92683985D01*
X129136900Y-92590853D01*
X129291772Y-92526703D01*
X129456184Y-92494000D01*
X129623816Y-92494000D01*
X129788228Y-92526703D01*
G37*
G36*
X112418395Y-92303546D02*
G01*
X112591466Y-92375234D01*
X112591467Y-92375235D01*
X112747227Y-92479310D01*
X112879690Y-92611773D01*
X112879691Y-92611775D01*
X112983766Y-92767534D01*
X113055454Y-92940605D01*
X113092000Y-93124333D01*
X113092000Y-93311667D01*
X113055454Y-93495395D01*
X112983766Y-93668466D01*
X112983765Y-93668467D01*
X112879690Y-93824227D01*
X112747227Y-93956690D01*
X112673407Y-94006015D01*
X112591466Y-94060766D01*
X112418395Y-94132454D01*
X112234667Y-94169000D01*
X112047333Y-94169000D01*
X111863605Y-94132454D01*
X111690534Y-94060766D01*
X111608593Y-94006015D01*
X111534773Y-93956690D01*
X111402310Y-93824227D01*
X111298235Y-93668467D01*
X111298234Y-93668466D01*
X111226546Y-93495395D01*
X111190000Y-93311667D01*
X111190000Y-93124333D01*
X111226546Y-92940605D01*
X111298234Y-92767534D01*
X111402309Y-92611775D01*
X111402310Y-92611773D01*
X111534773Y-92479310D01*
X111690533Y-92375235D01*
X111690534Y-92375234D01*
X111863605Y-92303546D01*
X112047333Y-92267000D01*
X112234667Y-92267000D01*
X112418395Y-92303546D01*
G37*
G36*
X129788228Y-89986703D02*
G01*
X129943100Y-90050853D01*
X130082481Y-90143985D01*
X130201015Y-90262519D01*
X130294147Y-90401900D01*
X130358297Y-90556772D01*
X130391000Y-90721184D01*
X130391000Y-90888816D01*
X130358297Y-91053228D01*
X130294147Y-91208100D01*
X130201015Y-91347481D01*
X130082481Y-91466015D01*
X129943100Y-91559147D01*
X129788228Y-91623297D01*
X129623816Y-91656000D01*
X129456184Y-91656000D01*
X129291772Y-91623297D01*
X129136900Y-91559147D01*
X128997519Y-91466015D01*
X128878985Y-91347481D01*
X128785853Y-91208100D01*
X128721703Y-91053228D01*
X128689000Y-90888816D01*
X128689000Y-90721184D01*
X128721703Y-90556772D01*
X128785853Y-90401900D01*
X128878985Y-90262519D01*
X128997519Y-90143985D01*
X129136900Y-90050853D01*
X129291772Y-89986703D01*
X129456184Y-89954000D01*
X129623816Y-89954000D01*
X129788228Y-89986703D01*
G37*
G36*
X145028228Y-89986703D02*
G01*
X145183100Y-90050853D01*
X145322481Y-90143985D01*
X145441015Y-90262519D01*
X145534147Y-90401900D01*
X145598297Y-90556772D01*
X145631000Y-90721184D01*
X145631000Y-90888816D01*
X145598297Y-91053228D01*
X145534147Y-91208100D01*
X145441015Y-91347481D01*
X145322481Y-91466015D01*
X145183100Y-91559147D01*
X145028228Y-91623297D01*
X144863816Y-91656000D01*
X144696184Y-91656000D01*
X144531772Y-91623297D01*
X144376900Y-91559147D01*
X144237519Y-91466015D01*
X144118985Y-91347481D01*
X144025853Y-91208100D01*
X143961703Y-91053228D01*
X143929000Y-90888816D01*
X143929000Y-90721184D01*
X143961703Y-90556772D01*
X144025853Y-90401900D01*
X144118985Y-90262519D01*
X144237519Y-90143985D01*
X144376900Y-90050853D01*
X144531772Y-89986703D01*
X144696184Y-89954000D01*
X144863816Y-89954000D01*
X145028228Y-89986703D01*
G37*
G36*
X145028228Y-87446703D02*
G01*
X145183100Y-87510853D01*
X145322481Y-87603985D01*
X145441015Y-87722519D01*
X145534147Y-87861900D01*
X145598297Y-88016772D01*
X145631000Y-88181184D01*
X145631000Y-88348816D01*
X145598297Y-88513228D01*
X145534147Y-88668100D01*
X145441015Y-88807481D01*
X145322481Y-88926015D01*
X145183100Y-89019147D01*
X145028228Y-89083297D01*
X144863816Y-89116000D01*
X144696184Y-89116000D01*
X144531772Y-89083297D01*
X144376900Y-89019147D01*
X144237519Y-88926015D01*
X144118985Y-88807481D01*
X144025853Y-88668100D01*
X143961703Y-88513228D01*
X143929000Y-88348816D01*
X143929000Y-88181184D01*
X143961703Y-88016772D01*
X144025853Y-87861900D01*
X144118985Y-87722519D01*
X144237519Y-87603985D01*
X144376900Y-87510853D01*
X144531772Y-87446703D01*
X144696184Y-87414000D01*
X144863816Y-87414000D01*
X145028228Y-87446703D01*
G37*
G36*
X129788228Y-87446703D02*
G01*
X129943100Y-87510853D01*
X130082481Y-87603985D01*
X130201015Y-87722519D01*
X130294147Y-87861900D01*
X130358297Y-88016772D01*
X130391000Y-88181184D01*
X130391000Y-88348816D01*
X130358297Y-88513228D01*
X130294147Y-88668100D01*
X130201015Y-88807481D01*
X130082481Y-88926015D01*
X129943100Y-89019147D01*
X129788228Y-89083297D01*
X129623816Y-89116000D01*
X129456184Y-89116000D01*
X129291772Y-89083297D01*
X129136900Y-89019147D01*
X128997519Y-88926015D01*
X128878985Y-88807481D01*
X128785853Y-88668100D01*
X128721703Y-88513228D01*
X128689000Y-88348816D01*
X128689000Y-88181184D01*
X128721703Y-88016772D01*
X128785853Y-87861900D01*
X128878985Y-87722519D01*
X128997519Y-87603985D01*
X129136900Y-87510853D01*
X129291772Y-87446703D01*
X129456184Y-87414000D01*
X129623816Y-87414000D01*
X129788228Y-87446703D01*
G37*
G36*
X113092000Y-88835000D02*
G01*
X111190000Y-88835000D01*
X111190000Y-86933000D01*
X113092000Y-86933000D01*
X113092000Y-88835000D01*
G37*
G36*
X157717142Y-85456242D02*
G01*
X157865101Y-85517529D01*
X157998255Y-85606499D01*
X158111501Y-85719745D01*
X158200471Y-85852899D01*
X158261758Y-86000858D01*
X158293000Y-86157925D01*
X158293000Y-86318075D01*
X158261758Y-86475142D01*
X158200471Y-86623101D01*
X158111501Y-86756255D01*
X157998255Y-86869501D01*
X157865101Y-86958471D01*
X157717142Y-87019758D01*
X157560075Y-87051000D01*
X157399925Y-87051000D01*
X157242858Y-87019758D01*
X157094899Y-86958471D01*
X156961745Y-86869501D01*
X156848499Y-86756255D01*
X156759529Y-86623101D01*
X156698242Y-86475142D01*
X156667000Y-86318075D01*
X156667000Y-86157925D01*
X156698242Y-86000858D01*
X156759529Y-85852899D01*
X156848499Y-85719745D01*
X156961745Y-85606499D01*
X157094899Y-85517529D01*
X157242858Y-85456242D01*
X157399925Y-85425000D01*
X157560075Y-85425000D01*
X157717142Y-85456242D01*
G37*
G36*
X145028228Y-84906703D02*
G01*
X145183100Y-84970853D01*
X145322481Y-85063985D01*
X145441015Y-85182519D01*
X145534147Y-85321900D01*
X145598297Y-85476772D01*
X145631000Y-85641184D01*
X145631000Y-85808816D01*
X145598297Y-85973228D01*
X145534147Y-86128100D01*
X145441015Y-86267481D01*
X145322481Y-86386015D01*
X145183100Y-86479147D01*
X145028228Y-86543297D01*
X144863816Y-86576000D01*
X144696184Y-86576000D01*
X144531772Y-86543297D01*
X144376900Y-86479147D01*
X144237519Y-86386015D01*
X144118985Y-86267481D01*
X144025853Y-86128100D01*
X143961703Y-85973228D01*
X143929000Y-85808816D01*
X143929000Y-85641184D01*
X143961703Y-85476772D01*
X144025853Y-85321900D01*
X144118985Y-85182519D01*
X144237519Y-85063985D01*
X144376900Y-84970853D01*
X144531772Y-84906703D01*
X144696184Y-84874000D01*
X144863816Y-84874000D01*
X145028228Y-84906703D01*
G37*
G36*
X129788228Y-84906703D02*
G01*
X129943100Y-84970853D01*
X130082481Y-85063985D01*
X130201015Y-85182519D01*
X130294147Y-85321900D01*
X130358297Y-85476772D01*
X130391000Y-85641184D01*
X130391000Y-85808816D01*
X130358297Y-85973228D01*
X130294147Y-86128100D01*
X130201015Y-86267481D01*
X130082481Y-86386015D01*
X129943100Y-86479147D01*
X129788228Y-86543297D01*
X129623816Y-86576000D01*
X129456184Y-86576000D01*
X129291772Y-86543297D01*
X129136900Y-86479147D01*
X128997519Y-86386015D01*
X128878985Y-86267481D01*
X128785853Y-86128100D01*
X128721703Y-85973228D01*
X128689000Y-85808816D01*
X128689000Y-85641184D01*
X128721703Y-85476772D01*
X128785853Y-85321900D01*
X128878985Y-85182519D01*
X128997519Y-85063985D01*
X129136900Y-84970853D01*
X129291772Y-84906703D01*
X129456184Y-84874000D01*
X129623816Y-84874000D01*
X129788228Y-84906703D01*
G37*
G36*
X112418395Y-84429546D02*
G01*
X112591466Y-84501234D01*
X112591467Y-84501235D01*
X112747227Y-84605310D01*
X112879690Y-84737773D01*
X112879691Y-84737775D01*
X112983766Y-84893534D01*
X113055454Y-85066605D01*
X113092000Y-85250333D01*
X113092000Y-85437667D01*
X113055454Y-85621395D01*
X112983766Y-85794466D01*
X112944722Y-85852899D01*
X112879690Y-85950227D01*
X112747227Y-86082690D01*
X112679270Y-86128097D01*
X112591466Y-86186766D01*
X112418395Y-86258454D01*
X112234667Y-86295000D01*
X112047333Y-86295000D01*
X111863605Y-86258454D01*
X111690534Y-86186766D01*
X111602730Y-86128097D01*
X111534773Y-86082690D01*
X111402310Y-85950227D01*
X111337278Y-85852899D01*
X111298234Y-85794466D01*
X111226546Y-85621395D01*
X111190000Y-85437667D01*
X111190000Y-85250333D01*
X111226546Y-85066605D01*
X111298234Y-84893534D01*
X111402309Y-84737775D01*
X111402310Y-84737773D01*
X111534773Y-84605310D01*
X111690533Y-84501235D01*
X111690534Y-84501234D01*
X111863605Y-84429546D01*
X112047333Y-84393000D01*
X112234667Y-84393000D01*
X112418395Y-84429546D01*
G37*
G36*
X157717142Y-81006242D02*
G01*
X157865101Y-81067529D01*
X157998255Y-81156499D01*
X158111501Y-81269745D01*
X158200471Y-81402899D01*
X158261758Y-81550858D01*
X158293000Y-81707925D01*
X158293000Y-81868075D01*
X158261758Y-82025142D01*
X158200471Y-82173101D01*
X158111501Y-82306255D01*
X157998255Y-82419501D01*
X157865101Y-82508471D01*
X157717142Y-82569758D01*
X157560075Y-82601000D01*
X157399925Y-82601000D01*
X157242858Y-82569758D01*
X157094899Y-82508471D01*
X156961745Y-82419501D01*
X156848499Y-82306255D01*
X156759529Y-82173101D01*
X156698242Y-82025142D01*
X156667000Y-81868075D01*
X156667000Y-81707925D01*
X156698242Y-81550858D01*
X156759529Y-81402899D01*
X156848499Y-81269745D01*
X156961745Y-81156499D01*
X157094899Y-81067529D01*
X157242858Y-81006242D01*
X157399925Y-80975000D01*
X157560075Y-80975000D01*
X157717142Y-81006242D01*
G37*
G36*
X113092000Y-80961000D02*
G01*
X111190000Y-80961000D01*
X111190000Y-79059000D01*
X113092000Y-79059000D01*
X113092000Y-80961000D01*
G37*
G36*
X112418395Y-76555546D02*
G01*
X112591466Y-76627234D01*
X112655470Y-76670000D01*
X112747227Y-76731310D01*
X112879690Y-76863773D01*
X112879691Y-76863775D01*
X112983766Y-77019534D01*
X113055454Y-77192605D01*
X113092000Y-77376333D01*
X113092000Y-77563667D01*
X113055454Y-77747395D01*
X112983766Y-77920466D01*
X112983765Y-77920467D01*
X112879690Y-78076227D01*
X112747227Y-78208690D01*
X112668818Y-78261081D01*
X112591466Y-78312766D01*
X112418395Y-78384454D01*
X112234667Y-78421000D01*
X112047333Y-78421000D01*
X111863605Y-78384454D01*
X111690534Y-78312766D01*
X111613182Y-78261081D01*
X111534773Y-78208690D01*
X111402310Y-78076227D01*
X111298235Y-77920467D01*
X111298234Y-77920466D01*
X111226546Y-77747395D01*
X111190000Y-77563667D01*
X111190000Y-77376333D01*
X111226546Y-77192605D01*
X111298234Y-77019534D01*
X111402309Y-76863775D01*
X111402310Y-76863773D01*
X111534773Y-76731310D01*
X111626530Y-76670000D01*
X111690534Y-76627234D01*
X111863605Y-76555546D01*
X112047333Y-76519000D01*
X112234667Y-76519000D01*
X112418395Y-76555546D01*
G37*
G36*
X157717142Y-76556242D02*
G01*
X157865101Y-76617529D01*
X157998255Y-76706499D01*
X158111501Y-76819745D01*
X158200471Y-76952899D01*
X158261758Y-77100858D01*
X158293000Y-77257925D01*
X158293000Y-77418075D01*
X158261758Y-77575142D01*
X158200471Y-77723101D01*
X158111501Y-77856255D01*
X157998255Y-77969501D01*
X157865101Y-78058471D01*
X157717142Y-78119758D01*
X157560075Y-78151000D01*
X157399925Y-78151000D01*
X157242858Y-78119758D01*
X157094899Y-78058471D01*
X156961745Y-77969501D01*
X156848499Y-77856255D01*
X156759529Y-77723101D01*
X156698242Y-77575142D01*
X156667000Y-77418075D01*
X156667000Y-77257925D01*
X156698242Y-77100858D01*
X156759529Y-76952899D01*
X156848499Y-76819745D01*
X156961745Y-76706499D01*
X157094899Y-76617529D01*
X157242858Y-76556242D01*
X157399925Y-76525000D01*
X157560075Y-76525000D01*
X157717142Y-76556242D01*
G37*
G36*
X135347059Y-75350860D02*
G01*
X135483732Y-75407472D01*
X135606735Y-75489660D01*
X135711340Y-75594265D01*
X135711341Y-75594267D01*
X135793529Y-75717270D01*
X135850140Y-75853941D01*
X135879000Y-75999032D01*
X135879000Y-76146968D01*
X135850140Y-76292059D01*
X135793528Y-76428732D01*
X135711340Y-76551735D01*
X135606735Y-76656340D01*
X135483732Y-76738528D01*
X135483731Y-76738529D01*
X135483730Y-76738529D01*
X135347059Y-76795140D01*
X135201968Y-76824000D01*
X135054032Y-76824000D01*
X134908941Y-76795140D01*
X134772270Y-76738529D01*
X134772269Y-76738529D01*
X134772268Y-76738528D01*
X134649265Y-76656340D01*
X134544660Y-76551735D01*
X134462472Y-76428732D01*
X134405860Y-76292059D01*
X134377000Y-76146968D01*
X134377000Y-75999032D01*
X134405860Y-75853941D01*
X134462471Y-75717270D01*
X134544659Y-75594267D01*
X134544660Y-75594265D01*
X134649265Y-75489660D01*
X134772268Y-75407472D01*
X134908941Y-75350860D01*
X135054032Y-75322000D01*
X135201968Y-75322000D01*
X135347059Y-75350860D01*
G37*
G36*
X140188728Y-75000703D02*
G01*
X140343600Y-75064853D01*
X140482981Y-75157985D01*
X140601515Y-75276519D01*
X140694647Y-75415900D01*
X140758797Y-75570772D01*
X140791500Y-75735184D01*
X140791500Y-75902816D01*
X140758797Y-76067228D01*
X140694647Y-76222100D01*
X140601515Y-76361481D01*
X140482981Y-76480015D01*
X140343600Y-76573147D01*
X140188728Y-76637297D01*
X140024316Y-76670000D01*
X139856684Y-76670000D01*
X139692272Y-76637297D01*
X139537400Y-76573147D01*
X139398019Y-76480015D01*
X139279485Y-76361481D01*
X139186353Y-76222100D01*
X139122203Y-76067228D01*
X139089500Y-75902816D01*
X139089500Y-75735184D01*
X139122203Y-75570772D01*
X139186353Y-75415900D01*
X139279485Y-75276519D01*
X139398019Y-75157985D01*
X139537400Y-75064853D01*
X139692272Y-75000703D01*
X139856684Y-74968000D01*
X140024316Y-74968000D01*
X140188728Y-75000703D01*
G37*
G36*
X140188728Y-72500703D02*
G01*
X140343600Y-72564853D01*
X140482981Y-72657985D01*
X140601515Y-72776519D01*
X140694647Y-72915900D01*
X140758797Y-73070772D01*
X140791500Y-73235184D01*
X140791500Y-73402816D01*
X140758797Y-73567228D01*
X140694647Y-73722100D01*
X140601515Y-73861481D01*
X140482981Y-73980015D01*
X140343600Y-74073147D01*
X140188728Y-74137297D01*
X140024316Y-74170000D01*
X139856684Y-74170000D01*
X139692272Y-74137297D01*
X139537400Y-74073147D01*
X139398019Y-73980015D01*
X139279485Y-73861481D01*
X139186353Y-73722100D01*
X139122203Y-73567228D01*
X139089500Y-73402816D01*
X139089500Y-73235184D01*
X139122203Y-73070772D01*
X139186353Y-72915900D01*
X139279485Y-72776519D01*
X139398019Y-72657985D01*
X139537400Y-72564853D01*
X139692272Y-72500703D01*
X139856684Y-72468000D01*
X140024316Y-72468000D01*
X140188728Y-72500703D01*
G37*
G36*
X135347059Y-70270860D02*
G01*
X135483732Y-70327472D01*
X135606735Y-70409660D01*
X135711340Y-70514265D01*
X135793528Y-70637268D01*
X135850140Y-70773941D01*
X135879000Y-70919033D01*
X135879000Y-71066967D01*
X135850140Y-71212059D01*
X135793528Y-71348732D01*
X135711340Y-71471735D01*
X135606735Y-71576340D01*
X135483732Y-71658528D01*
X135483731Y-71658529D01*
X135483730Y-71658529D01*
X135347059Y-71715140D01*
X135201968Y-71744000D01*
X135054032Y-71744000D01*
X134908941Y-71715140D01*
X134772270Y-71658529D01*
X134772269Y-71658529D01*
X134772268Y-71658528D01*
X134649265Y-71576340D01*
X134544660Y-71471735D01*
X134462472Y-71348732D01*
X134405860Y-71212059D01*
X134377000Y-71066967D01*
X134377000Y-70919033D01*
X134405860Y-70773941D01*
X134462472Y-70637268D01*
X134544660Y-70514265D01*
X134649265Y-70409660D01*
X134772268Y-70327472D01*
X134908941Y-70270860D01*
X135054032Y-70242000D01*
X135201968Y-70242000D01*
X135347059Y-70270860D01*
G37*
G36*
X111375256Y-64391298D02*
G01*
X111481579Y-64412447D01*
X111782042Y-64536903D01*
X112052451Y-64717585D01*
X112282415Y-64947549D01*
X112463097Y-65217958D01*
X112587553Y-65518421D01*
X112651000Y-65837391D01*
X112651000Y-66162609D01*
X112587553Y-66481579D01*
X112463097Y-66782042D01*
X112282415Y-67052451D01*
X112052451Y-67282415D01*
X111782042Y-67463097D01*
X111481579Y-67587553D01*
X111375256Y-67608702D01*
X111162611Y-67651000D01*
X110837389Y-67651000D01*
X110624744Y-67608702D01*
X110518421Y-67587553D01*
X110217958Y-67463097D01*
X109947549Y-67282415D01*
X109717585Y-67052451D01*
X109536903Y-66782042D01*
X109412447Y-66481579D01*
X109349000Y-66162609D01*
X109349000Y-65837391D01*
X109412447Y-65518421D01*
X109536903Y-65217958D01*
X109717585Y-64947549D01*
X109947549Y-64717585D01*
X110217958Y-64536903D01*
X110518421Y-64412447D01*
X110624744Y-64391298D01*
X110837389Y-64349000D01*
X111162611Y-64349000D01*
X111375256Y-64391298D01*
G37*
G36*
X159375256Y-64391298D02*
G01*
X159481579Y-64412447D01*
X159782042Y-64536903D01*
X160052451Y-64717585D01*
X160282415Y-64947549D01*
X160463097Y-65217958D01*
X160587553Y-65518421D01*
X160651000Y-65837391D01*
X160651000Y-66162609D01*
X160587553Y-66481579D01*
X160463097Y-66782042D01*
X160282415Y-67052451D01*
X160052451Y-67282415D01*
X159782042Y-67463097D01*
X159481579Y-67587553D01*
X159375256Y-67608702D01*
X159162611Y-67651000D01*
X158837389Y-67651000D01*
X158624744Y-67608702D01*
X158518421Y-67587553D01*
X158217958Y-67463097D01*
X157947549Y-67282415D01*
X157717585Y-67052451D01*
X157536903Y-66782042D01*
X157412447Y-66481579D01*
X157349000Y-66162609D01*
X157349000Y-65837391D01*
X157412447Y-65518421D01*
X157536903Y-65217958D01*
X157717585Y-64947549D01*
X157947549Y-64717585D01*
X158217958Y-64536903D01*
X158518421Y-64412447D01*
X158624744Y-64391298D01*
X158837389Y-64349000D01*
X159162611Y-64349000D01*
X159375256Y-64391298D01*
G37*
G36*
X129498000Y-65490000D02*
G01*
X127296000Y-65490000D01*
X127296000Y-63288000D01*
X129498000Y-63288000D01*
X129498000Y-65490000D01*
G37*
G36*
X126071795Y-63309156D02*
G01*
X126178150Y-63330311D01*
X126378520Y-63413307D01*
X126558844Y-63533795D01*
X126712205Y-63687156D01*
X126832693Y-63867480D01*
X126832693Y-63867481D01*
X126915689Y-64067850D01*
X126958000Y-64280561D01*
X126958000Y-64497439D01*
X126915689Y-64710150D01*
X126912609Y-64717585D01*
X126832693Y-64910520D01*
X126712205Y-65090844D01*
X126558844Y-65244205D01*
X126378520Y-65364693D01*
X126278334Y-65406191D01*
X126178150Y-65447689D01*
X126071794Y-65468845D01*
X125965440Y-65490000D01*
X125748560Y-65490000D01*
X125642206Y-65468845D01*
X125535850Y-65447689D01*
X125435666Y-65406191D01*
X125335480Y-65364693D01*
X125155156Y-65244205D01*
X125001795Y-65090844D01*
X124881307Y-64910520D01*
X124801391Y-64717585D01*
X124798311Y-64710150D01*
X124756000Y-64497439D01*
X124756000Y-64280561D01*
X124798311Y-64067850D01*
X124881307Y-63867481D01*
X124881307Y-63867480D01*
X125001795Y-63687156D01*
X125155156Y-63533795D01*
X125335480Y-63413307D01*
X125535850Y-63330311D01*
X125642205Y-63309156D01*
X125748560Y-63288000D01*
X125965440Y-63288000D01*
X126071795Y-63309156D01*
G37*
G36*
X138898795Y-63309156D02*
G01*
X139005150Y-63330311D01*
X139205520Y-63413307D01*
X139385844Y-63533795D01*
X139539205Y-63687156D01*
X139659693Y-63867480D01*
X139659693Y-63867481D01*
X139742689Y-64067850D01*
X139785000Y-64280561D01*
X139785000Y-64497439D01*
X139742689Y-64710150D01*
X139739609Y-64717585D01*
X139659693Y-64910520D01*
X139539205Y-65090844D01*
X139385844Y-65244205D01*
X139205520Y-65364693D01*
X139105334Y-65406191D01*
X139005150Y-65447689D01*
X138898794Y-65468845D01*
X138792440Y-65490000D01*
X138575560Y-65490000D01*
X138469206Y-65468845D01*
X138362850Y-65447689D01*
X138262666Y-65406191D01*
X138162480Y-65364693D01*
X137982156Y-65244205D01*
X137828795Y-65090844D01*
X137708307Y-64910520D01*
X137628391Y-64717585D01*
X137625311Y-64710150D01*
X137583000Y-64497439D01*
X137583000Y-64280561D01*
X137625311Y-64067850D01*
X137708307Y-63867481D01*
X137708307Y-63867480D01*
X137828795Y-63687156D01*
X137982156Y-63533795D01*
X138162480Y-63413307D01*
X138362850Y-63330311D01*
X138469205Y-63309156D01*
X138575560Y-63288000D01*
X138792440Y-63288000D01*
X138898795Y-63309156D01*
G37*
G36*
X123531795Y-63309156D02*
G01*
X123638150Y-63330311D01*
X123838520Y-63413307D01*
X124018844Y-63533795D01*
X124172205Y-63687156D01*
X124292693Y-63867480D01*
X124292693Y-63867481D01*
X124375689Y-64067850D01*
X124418000Y-64280561D01*
X124418000Y-64497439D01*
X124375689Y-64710150D01*
X124372609Y-64717585D01*
X124292693Y-64910520D01*
X124172205Y-65090844D01*
X124018844Y-65244205D01*
X123838520Y-65364693D01*
X123738334Y-65406191D01*
X123638150Y-65447689D01*
X123531794Y-65468845D01*
X123425440Y-65490000D01*
X123208560Y-65490000D01*
X123102206Y-65468845D01*
X122995850Y-65447689D01*
X122895666Y-65406191D01*
X122795480Y-65364693D01*
X122615156Y-65244205D01*
X122461795Y-65090844D01*
X122341307Y-64910520D01*
X122261391Y-64717585D01*
X122258311Y-64710150D01*
X122216000Y-64497439D01*
X122216000Y-64280561D01*
X122258311Y-64067850D01*
X122341307Y-63867481D01*
X122341307Y-63867480D01*
X122461795Y-63687156D01*
X122615156Y-63533795D01*
X122795480Y-63413307D01*
X122995850Y-63330311D01*
X123102205Y-63309156D01*
X123208560Y-63288000D01*
X123425440Y-63288000D01*
X123531795Y-63309156D01*
G37*
G36*
X144865000Y-65490000D02*
G01*
X142663000Y-65490000D01*
X142663000Y-63288000D01*
X144865000Y-63288000D01*
X144865000Y-65490000D01*
G37*
G36*
X141438795Y-63309156D02*
G01*
X141545150Y-63330311D01*
X141745520Y-63413307D01*
X141925844Y-63533795D01*
X142079205Y-63687156D01*
X142199693Y-63867480D01*
X142199693Y-63867481D01*
X142282689Y-64067850D01*
X142325000Y-64280561D01*
X142325000Y-64497439D01*
X142282689Y-64710150D01*
X142279609Y-64717585D01*
X142199693Y-64910520D01*
X142079205Y-65090844D01*
X141925844Y-65244205D01*
X141745520Y-65364693D01*
X141645334Y-65406191D01*
X141545150Y-65447689D01*
X141438794Y-65468845D01*
X141332440Y-65490000D01*
X141115560Y-65490000D01*
X141009206Y-65468845D01*
X140902850Y-65447689D01*
X140802666Y-65406191D01*
X140702480Y-65364693D01*
X140522156Y-65244205D01*
X140368795Y-65090844D01*
X140248307Y-64910520D01*
X140168391Y-64717585D01*
X140165311Y-64710150D01*
X140123000Y-64497439D01*
X140123000Y-64280561D01*
X140165311Y-64067850D01*
X140248307Y-63867481D01*
X140248307Y-63867480D01*
X140368795Y-63687156D01*
X140522156Y-63533795D01*
X140702480Y-63413307D01*
X140902850Y-63330311D01*
X141009205Y-63309156D01*
X141115560Y-63288000D01*
X141332440Y-63288000D01*
X141438795Y-63309156D01*
G37*
M02*
