M48
; DRILL file {KiCad (5.1.5)-3} date 2020-03-01 11:41:10 AM
; FORMAT={-:-/ absolute / inch / decimal}
; #@! TF.CreationDate,2020-03-01T11:41:10-05:00
; #@! TF.GenerationSoftware,Kicad,Pcbnew,(5.1.5)-3
; #@! TF.FileFunction,Plated,1,2,PTH
FMAT,2
INCH
T1C0.0157
T2C0.0276
T3C0.0300
T4C0.0315
T5C0.0354
T6C0.0394
T7C0.0433
%
G90
G05
T1
X4.305Y-4.79
T2
X5.6975Y-2.7989
X5.6975Y-2.9989
X5.325Y-2.7989
X5.325Y-2.9989
T3
X6.23Y-3.8023
X6.23Y-3.9775
X6.23Y-4.1527
X6.22Y-3.0423
X6.22Y-3.2175
X6.22Y-3.3927
X6.23Y-4.5423
X6.23Y-4.7175
X6.23Y-4.8927
T4
X5.1Y-3.375
X5.1Y-3.475
X5.1Y-3.575
X5.1Y-3.675
X5.1Y-3.775
X5.1Y-3.875
X5.1Y-3.975
X5.1Y-4.075
X5.1Y-4.175
X5.1Y-4.275
X5.1Y-4.375
X5.1Y-4.475
X5.1Y-4.575
X5.1Y-4.675
X5.1Y-4.775
X5.7Y-3.375
X5.7Y-3.475
X5.7Y-3.575
X5.7Y-3.675
X5.7Y-3.775
X5.7Y-3.875
X5.7Y-3.975
X5.7Y-4.075
X5.7Y-4.175
X5.7Y-4.275
X5.7Y-4.375
X5.7Y-4.475
X5.7Y-4.575
X5.7Y-4.675
X5.7Y-4.775
X5.5112Y-2.8966
X5.5112Y-2.995
T5
X4.415Y-3.67
X4.415Y-3.77
X4.415Y-3.05
X4.415Y-3.15
X4.415Y-3.36
X4.415Y-3.46
T6
X4.4838Y-4.25
X4.6019Y-4.435
X4.72Y-4.25
T7
X4.855Y-2.535
X4.955Y-2.535
X5.055Y-2.535
X5.46Y-2.535
X5.56Y-2.535
X5.66Y-2.535
X5.4391Y-5.1041
X5.4391Y-5.3009
X5.6359Y-5.1041
X5.6359Y-5.3009
T0
M30
