M48
; DRILL file {KiCad (5.1.5)-3} date 2020-02-29 11:20:49 PM
; FORMAT={-:-/ absolute / inch / decimal}
; #@! TF.CreationDate,2020-02-29T23:20:49-05:00
; #@! TF.GenerationSoftware,Kicad,Pcbnew,(5.1.5)-3
; #@! TF.FileFunction,Plated,1,2,PTH
FMAT,2
INCH
T1C0.0157
T2C0.0276
T3C0.0300
T4C0.0315
T5C0.0354
T6C0.0394
T7C0.0433
%
G90
G05
T1
X4.305Y-4.79
T2
X5.325Y-2.7864
X5.325Y-2.9864
X5.6975Y-2.7864
X5.6975Y-2.9864
T3
X6.21Y-4.5448
X6.21Y-4.72
X6.21Y-4.8952
X6.21Y-3.8048
X6.21Y-3.98
X6.21Y-4.1552
X6.2Y-3.0448
X6.2Y-3.22
X6.2Y-3.3952
T4
X5.5112Y-2.8841
X5.5112Y-2.9825
X5.1Y-3.375
X5.1Y-3.475
X5.1Y-3.575
X5.1Y-3.675
X5.1Y-3.775
X5.1Y-3.875
X5.1Y-3.975
X5.1Y-4.075
X5.1Y-4.175
X5.1Y-4.275
X5.1Y-4.375
X5.1Y-4.475
X5.1Y-4.575
X5.1Y-4.675
X5.1Y-4.775
X5.7Y-3.375
X5.7Y-3.475
X5.7Y-3.575
X5.7Y-3.675
X5.7Y-3.775
X5.7Y-3.875
X5.7Y-3.975
X5.7Y-4.075
X5.7Y-4.175
X5.7Y-4.275
X5.7Y-4.375
X5.7Y-4.475
X5.7Y-4.575
X5.7Y-4.675
X5.7Y-4.775
T5
X4.415Y-3.36
X4.415Y-3.46
X4.415Y-3.05
X4.415Y-3.15
X4.415Y-3.67
X4.415Y-3.77
T6
X4.4838Y-4.25
X4.6019Y-4.435
X4.72Y-4.25
T7
X5.46Y-2.535
X5.56Y-2.535
X5.66Y-2.535
X4.855Y-2.535
X4.955Y-2.535
X5.055Y-2.535
X5.4391Y-5.1041
X5.4391Y-5.3009
X5.6359Y-5.1041
X5.6359Y-5.3009
T0
M30
