G04 #@! TF.GenerationSoftware,KiCad,Pcbnew,(5.1.5)-3*
G04 #@! TF.CreationDate,2020-03-01T11:41:08-05:00*
G04 #@! TF.ProjectId,LED_Control,4c45445f-436f-46e7-9472-6f6c2e6b6963,rev?*
G04 #@! TF.SameCoordinates,Original*
G04 #@! TF.FileFunction,Copper,L1,Top*
G04 #@! TF.FilePolarity,Positive*
%FSLAX46Y46*%
G04 Gerber Fmt 4.6, Leading zero omitted, Abs format (unit mm)*
G04 Created by KiCad (PCBNEW (5.1.5)-3) date 2020-03-01 11:41:08*
%MOMM*%
%LPD*%
G04 APERTURE LIST*
%ADD10O,1.400000X1.400000*%
%ADD11C,1.400000*%
%ADD12C,2.100000*%
%ADD13R,2.100000X2.100000*%
%ADD14R,1.600000X1.600000*%
%ADD15O,1.600000X1.600000*%
%ADD16C,0.100000*%
%ADD17C,1.600000*%
%ADD18R,1.800000X1.800000*%
%ADD19C,1.800000*%
%ADD20O,2.500000X5.000000*%
%ADD21O,2.250000X4.500000*%
%ADD22O,4.500000X2.250000*%
%ADD23C,1.524000*%
%ADD24C,2.200000*%
%ADD25C,0.800000*%
%ADD26C,0.250000*%
%ADD27C,0.254000*%
G04 APERTURE END LIST*
D10*
X144716500Y-71093000D03*
D11*
X144716500Y-76173000D03*
D12*
X138684000Y-64389000D03*
X141224000Y-64389000D03*
D13*
X143764000Y-64389000D03*
D12*
X123317000Y-64389000D03*
X125857000Y-64389000D03*
D13*
X128397000Y-64389000D03*
D10*
X135255000Y-71093000D03*
D11*
X135255000Y-76173000D03*
D14*
X129540000Y-121285000D03*
D15*
X144780000Y-88265000D03*
X129540000Y-118745000D03*
X144780000Y-90805000D03*
X129540000Y-116205000D03*
X144780000Y-93345000D03*
X129540000Y-113665000D03*
X144780000Y-95885000D03*
X129540000Y-111125000D03*
X144780000Y-98425000D03*
X129540000Y-108585000D03*
X144780000Y-100965000D03*
X129540000Y-106045000D03*
X144780000Y-103505000D03*
X129540000Y-103505000D03*
X144780000Y-106045000D03*
X129540000Y-100965000D03*
X144780000Y-108585000D03*
X129540000Y-98425000D03*
X144780000Y-111125000D03*
X129540000Y-95885000D03*
X144780000Y-113665000D03*
X129540000Y-93345000D03*
X144780000Y-116205000D03*
X129540000Y-90805000D03*
X144780000Y-118745000D03*
X129540000Y-88265000D03*
X144780000Y-121285000D03*
X129540000Y-85725000D03*
X144780000Y-85725000D03*
G04 #@! TA.AperFunction,SMDPad,CuDef*
D16*
G36*
X120483191Y-116759053D02*
G01*
X120504426Y-116762203D01*
X120525250Y-116767419D01*
X120545462Y-116774651D01*
X120564868Y-116783830D01*
X120583281Y-116794866D01*
X120600524Y-116807654D01*
X120616430Y-116822070D01*
X120630846Y-116837976D01*
X120643634Y-116855219D01*
X120654670Y-116873632D01*
X120663849Y-116893038D01*
X120671081Y-116913250D01*
X120676297Y-116934074D01*
X120679447Y-116955309D01*
X120680500Y-116976750D01*
X120680500Y-117414250D01*
X120679447Y-117435691D01*
X120676297Y-117456926D01*
X120671081Y-117477750D01*
X120663849Y-117497962D01*
X120654670Y-117517368D01*
X120643634Y-117535781D01*
X120630846Y-117553024D01*
X120616430Y-117568930D01*
X120600524Y-117583346D01*
X120583281Y-117596134D01*
X120564868Y-117607170D01*
X120545462Y-117616349D01*
X120525250Y-117623581D01*
X120504426Y-117628797D01*
X120483191Y-117631947D01*
X120461750Y-117633000D01*
X119949250Y-117633000D01*
X119927809Y-117631947D01*
X119906574Y-117628797D01*
X119885750Y-117623581D01*
X119865538Y-117616349D01*
X119846132Y-117607170D01*
X119827719Y-117596134D01*
X119810476Y-117583346D01*
X119794570Y-117568930D01*
X119780154Y-117553024D01*
X119767366Y-117535781D01*
X119756330Y-117517368D01*
X119747151Y-117497962D01*
X119739919Y-117477750D01*
X119734703Y-117456926D01*
X119731553Y-117435691D01*
X119730500Y-117414250D01*
X119730500Y-116976750D01*
X119731553Y-116955309D01*
X119734703Y-116934074D01*
X119739919Y-116913250D01*
X119747151Y-116893038D01*
X119756330Y-116873632D01*
X119767366Y-116855219D01*
X119780154Y-116837976D01*
X119794570Y-116822070D01*
X119810476Y-116807654D01*
X119827719Y-116794866D01*
X119846132Y-116783830D01*
X119865538Y-116774651D01*
X119885750Y-116767419D01*
X119906574Y-116762203D01*
X119927809Y-116759053D01*
X119949250Y-116758000D01*
X120461750Y-116758000D01*
X120483191Y-116759053D01*
G37*
G04 #@! TD.AperFunction*
G04 #@! TA.AperFunction,SMDPad,CuDef*
G36*
X120483191Y-118334053D02*
G01*
X120504426Y-118337203D01*
X120525250Y-118342419D01*
X120545462Y-118349651D01*
X120564868Y-118358830D01*
X120583281Y-118369866D01*
X120600524Y-118382654D01*
X120616430Y-118397070D01*
X120630846Y-118412976D01*
X120643634Y-118430219D01*
X120654670Y-118448632D01*
X120663849Y-118468038D01*
X120671081Y-118488250D01*
X120676297Y-118509074D01*
X120679447Y-118530309D01*
X120680500Y-118551750D01*
X120680500Y-118989250D01*
X120679447Y-119010691D01*
X120676297Y-119031926D01*
X120671081Y-119052750D01*
X120663849Y-119072962D01*
X120654670Y-119092368D01*
X120643634Y-119110781D01*
X120630846Y-119128024D01*
X120616430Y-119143930D01*
X120600524Y-119158346D01*
X120583281Y-119171134D01*
X120564868Y-119182170D01*
X120545462Y-119191349D01*
X120525250Y-119198581D01*
X120504426Y-119203797D01*
X120483191Y-119206947D01*
X120461750Y-119208000D01*
X119949250Y-119208000D01*
X119927809Y-119206947D01*
X119906574Y-119203797D01*
X119885750Y-119198581D01*
X119865538Y-119191349D01*
X119846132Y-119182170D01*
X119827719Y-119171134D01*
X119810476Y-119158346D01*
X119794570Y-119143930D01*
X119780154Y-119128024D01*
X119767366Y-119110781D01*
X119756330Y-119092368D01*
X119747151Y-119072962D01*
X119739919Y-119052750D01*
X119734703Y-119031926D01*
X119731553Y-119010691D01*
X119730500Y-118989250D01*
X119730500Y-118551750D01*
X119731553Y-118530309D01*
X119734703Y-118509074D01*
X119739919Y-118488250D01*
X119747151Y-118468038D01*
X119756330Y-118448632D01*
X119767366Y-118430219D01*
X119780154Y-118412976D01*
X119794570Y-118397070D01*
X119810476Y-118382654D01*
X119827719Y-118369866D01*
X119846132Y-118358830D01*
X119865538Y-118349651D01*
X119885750Y-118342419D01*
X119906574Y-118337203D01*
X119927809Y-118334053D01*
X119949250Y-118333000D01*
X120461750Y-118333000D01*
X120483191Y-118334053D01*
G37*
G04 #@! TD.AperFunction*
G04 #@! TA.AperFunction,SMDPad,CuDef*
G36*
X117181191Y-116759053D02*
G01*
X117202426Y-116762203D01*
X117223250Y-116767419D01*
X117243462Y-116774651D01*
X117262868Y-116783830D01*
X117281281Y-116794866D01*
X117298524Y-116807654D01*
X117314430Y-116822070D01*
X117328846Y-116837976D01*
X117341634Y-116855219D01*
X117352670Y-116873632D01*
X117361849Y-116893038D01*
X117369081Y-116913250D01*
X117374297Y-116934074D01*
X117377447Y-116955309D01*
X117378500Y-116976750D01*
X117378500Y-117414250D01*
X117377447Y-117435691D01*
X117374297Y-117456926D01*
X117369081Y-117477750D01*
X117361849Y-117497962D01*
X117352670Y-117517368D01*
X117341634Y-117535781D01*
X117328846Y-117553024D01*
X117314430Y-117568930D01*
X117298524Y-117583346D01*
X117281281Y-117596134D01*
X117262868Y-117607170D01*
X117243462Y-117616349D01*
X117223250Y-117623581D01*
X117202426Y-117628797D01*
X117181191Y-117631947D01*
X117159750Y-117633000D01*
X116647250Y-117633000D01*
X116625809Y-117631947D01*
X116604574Y-117628797D01*
X116583750Y-117623581D01*
X116563538Y-117616349D01*
X116544132Y-117607170D01*
X116525719Y-117596134D01*
X116508476Y-117583346D01*
X116492570Y-117568930D01*
X116478154Y-117553024D01*
X116465366Y-117535781D01*
X116454330Y-117517368D01*
X116445151Y-117497962D01*
X116437919Y-117477750D01*
X116432703Y-117456926D01*
X116429553Y-117435691D01*
X116428500Y-117414250D01*
X116428500Y-116976750D01*
X116429553Y-116955309D01*
X116432703Y-116934074D01*
X116437919Y-116913250D01*
X116445151Y-116893038D01*
X116454330Y-116873632D01*
X116465366Y-116855219D01*
X116478154Y-116837976D01*
X116492570Y-116822070D01*
X116508476Y-116807654D01*
X116525719Y-116794866D01*
X116544132Y-116783830D01*
X116563538Y-116774651D01*
X116583750Y-116767419D01*
X116604574Y-116762203D01*
X116625809Y-116759053D01*
X116647250Y-116758000D01*
X117159750Y-116758000D01*
X117181191Y-116759053D01*
G37*
G04 #@! TD.AperFunction*
G04 #@! TA.AperFunction,SMDPad,CuDef*
G36*
X117181191Y-118334053D02*
G01*
X117202426Y-118337203D01*
X117223250Y-118342419D01*
X117243462Y-118349651D01*
X117262868Y-118358830D01*
X117281281Y-118369866D01*
X117298524Y-118382654D01*
X117314430Y-118397070D01*
X117328846Y-118412976D01*
X117341634Y-118430219D01*
X117352670Y-118448632D01*
X117361849Y-118468038D01*
X117369081Y-118488250D01*
X117374297Y-118509074D01*
X117377447Y-118530309D01*
X117378500Y-118551750D01*
X117378500Y-118989250D01*
X117377447Y-119010691D01*
X117374297Y-119031926D01*
X117369081Y-119052750D01*
X117361849Y-119072962D01*
X117352670Y-119092368D01*
X117341634Y-119110781D01*
X117328846Y-119128024D01*
X117314430Y-119143930D01*
X117298524Y-119158346D01*
X117281281Y-119171134D01*
X117262868Y-119182170D01*
X117243462Y-119191349D01*
X117223250Y-119198581D01*
X117202426Y-119203797D01*
X117181191Y-119206947D01*
X117159750Y-119208000D01*
X116647250Y-119208000D01*
X116625809Y-119206947D01*
X116604574Y-119203797D01*
X116583750Y-119198581D01*
X116563538Y-119191349D01*
X116544132Y-119182170D01*
X116525719Y-119171134D01*
X116508476Y-119158346D01*
X116492570Y-119143930D01*
X116478154Y-119128024D01*
X116465366Y-119110781D01*
X116454330Y-119092368D01*
X116445151Y-119072962D01*
X116437919Y-119052750D01*
X116432703Y-119031926D01*
X116429553Y-119010691D01*
X116428500Y-118989250D01*
X116428500Y-118551750D01*
X116429553Y-118530309D01*
X116432703Y-118509074D01*
X116437919Y-118488250D01*
X116445151Y-118468038D01*
X116454330Y-118448632D01*
X116465366Y-118430219D01*
X116478154Y-118412976D01*
X116492570Y-118397070D01*
X116508476Y-118382654D01*
X116525719Y-118369866D01*
X116544132Y-118358830D01*
X116563538Y-118349651D01*
X116583750Y-118342419D01*
X116604574Y-118337203D01*
X116625809Y-118334053D01*
X116647250Y-118333000D01*
X117159750Y-118333000D01*
X117181191Y-118334053D01*
G37*
G04 #@! TD.AperFunction*
G04 #@! TA.AperFunction,SMDPad,CuDef*
G36*
X113625191Y-118334053D02*
G01*
X113646426Y-118337203D01*
X113667250Y-118342419D01*
X113687462Y-118349651D01*
X113706868Y-118358830D01*
X113725281Y-118369866D01*
X113742524Y-118382654D01*
X113758430Y-118397070D01*
X113772846Y-118412976D01*
X113785634Y-118430219D01*
X113796670Y-118448632D01*
X113805849Y-118468038D01*
X113813081Y-118488250D01*
X113818297Y-118509074D01*
X113821447Y-118530309D01*
X113822500Y-118551750D01*
X113822500Y-118989250D01*
X113821447Y-119010691D01*
X113818297Y-119031926D01*
X113813081Y-119052750D01*
X113805849Y-119072962D01*
X113796670Y-119092368D01*
X113785634Y-119110781D01*
X113772846Y-119128024D01*
X113758430Y-119143930D01*
X113742524Y-119158346D01*
X113725281Y-119171134D01*
X113706868Y-119182170D01*
X113687462Y-119191349D01*
X113667250Y-119198581D01*
X113646426Y-119203797D01*
X113625191Y-119206947D01*
X113603750Y-119208000D01*
X113091250Y-119208000D01*
X113069809Y-119206947D01*
X113048574Y-119203797D01*
X113027750Y-119198581D01*
X113007538Y-119191349D01*
X112988132Y-119182170D01*
X112969719Y-119171134D01*
X112952476Y-119158346D01*
X112936570Y-119143930D01*
X112922154Y-119128024D01*
X112909366Y-119110781D01*
X112898330Y-119092368D01*
X112889151Y-119072962D01*
X112881919Y-119052750D01*
X112876703Y-119031926D01*
X112873553Y-119010691D01*
X112872500Y-118989250D01*
X112872500Y-118551750D01*
X112873553Y-118530309D01*
X112876703Y-118509074D01*
X112881919Y-118488250D01*
X112889151Y-118468038D01*
X112898330Y-118448632D01*
X112909366Y-118430219D01*
X112922154Y-118412976D01*
X112936570Y-118397070D01*
X112952476Y-118382654D01*
X112969719Y-118369866D01*
X112988132Y-118358830D01*
X113007538Y-118349651D01*
X113027750Y-118342419D01*
X113048574Y-118337203D01*
X113069809Y-118334053D01*
X113091250Y-118333000D01*
X113603750Y-118333000D01*
X113625191Y-118334053D01*
G37*
G04 #@! TD.AperFunction*
G04 #@! TA.AperFunction,SMDPad,CuDef*
G36*
X113625191Y-116759053D02*
G01*
X113646426Y-116762203D01*
X113667250Y-116767419D01*
X113687462Y-116774651D01*
X113706868Y-116783830D01*
X113725281Y-116794866D01*
X113742524Y-116807654D01*
X113758430Y-116822070D01*
X113772846Y-116837976D01*
X113785634Y-116855219D01*
X113796670Y-116873632D01*
X113805849Y-116893038D01*
X113813081Y-116913250D01*
X113818297Y-116934074D01*
X113821447Y-116955309D01*
X113822500Y-116976750D01*
X113822500Y-117414250D01*
X113821447Y-117435691D01*
X113818297Y-117456926D01*
X113813081Y-117477750D01*
X113805849Y-117497962D01*
X113796670Y-117517368D01*
X113785634Y-117535781D01*
X113772846Y-117553024D01*
X113758430Y-117568930D01*
X113742524Y-117583346D01*
X113725281Y-117596134D01*
X113706868Y-117607170D01*
X113687462Y-117616349D01*
X113667250Y-117623581D01*
X113646426Y-117628797D01*
X113625191Y-117631947D01*
X113603750Y-117633000D01*
X113091250Y-117633000D01*
X113069809Y-117631947D01*
X113048574Y-117628797D01*
X113027750Y-117623581D01*
X113007538Y-117616349D01*
X112988132Y-117607170D01*
X112969719Y-117596134D01*
X112952476Y-117583346D01*
X112936570Y-117568930D01*
X112922154Y-117553024D01*
X112909366Y-117535781D01*
X112898330Y-117517368D01*
X112889151Y-117497962D01*
X112881919Y-117477750D01*
X112876703Y-117456926D01*
X112873553Y-117435691D01*
X112872500Y-117414250D01*
X112872500Y-116976750D01*
X112873553Y-116955309D01*
X112876703Y-116934074D01*
X112881919Y-116913250D01*
X112889151Y-116893038D01*
X112898330Y-116873632D01*
X112909366Y-116855219D01*
X112922154Y-116837976D01*
X112936570Y-116822070D01*
X112952476Y-116807654D01*
X112969719Y-116794866D01*
X112988132Y-116783830D01*
X113007538Y-116774651D01*
X113027750Y-116767419D01*
X113048574Y-116762203D01*
X113069809Y-116759053D01*
X113091250Y-116758000D01*
X113603750Y-116758000D01*
X113625191Y-116759053D01*
G37*
G04 #@! TD.AperFunction*
D17*
X139985750Y-76073000D03*
X139985750Y-73573000D03*
D18*
X112141000Y-95758000D03*
D19*
X112141000Y-93218000D03*
X112141000Y-85344000D03*
D18*
X112141000Y-87884000D03*
X112141000Y-80010000D03*
D19*
X112141000Y-77470000D03*
G04 #@! TA.AperFunction,SMDPad,CuDef*
D16*
G36*
X116240642Y-125736674D02*
G01*
X116264303Y-125740184D01*
X116287507Y-125745996D01*
X116310029Y-125754054D01*
X116331653Y-125764282D01*
X116352170Y-125776579D01*
X116371383Y-125790829D01*
X116389107Y-125806893D01*
X116405171Y-125824617D01*
X116419421Y-125843830D01*
X116431718Y-125864347D01*
X116441946Y-125885971D01*
X116450004Y-125908493D01*
X116455816Y-125931697D01*
X116459326Y-125955358D01*
X116460500Y-125979250D01*
X116460500Y-126466750D01*
X116459326Y-126490642D01*
X116455816Y-126514303D01*
X116450004Y-126537507D01*
X116441946Y-126560029D01*
X116431718Y-126581653D01*
X116419421Y-126602170D01*
X116405171Y-126621383D01*
X116389107Y-126639107D01*
X116371383Y-126655171D01*
X116352170Y-126669421D01*
X116331653Y-126681718D01*
X116310029Y-126691946D01*
X116287507Y-126700004D01*
X116264303Y-126705816D01*
X116240642Y-126709326D01*
X116216750Y-126710500D01*
X115304250Y-126710500D01*
X115280358Y-126709326D01*
X115256697Y-126705816D01*
X115233493Y-126700004D01*
X115210971Y-126691946D01*
X115189347Y-126681718D01*
X115168830Y-126669421D01*
X115149617Y-126655171D01*
X115131893Y-126639107D01*
X115115829Y-126621383D01*
X115101579Y-126602170D01*
X115089282Y-126581653D01*
X115079054Y-126560029D01*
X115070996Y-126537507D01*
X115065184Y-126514303D01*
X115061674Y-126490642D01*
X115060500Y-126466750D01*
X115060500Y-125979250D01*
X115061674Y-125955358D01*
X115065184Y-125931697D01*
X115070996Y-125908493D01*
X115079054Y-125885971D01*
X115089282Y-125864347D01*
X115101579Y-125843830D01*
X115115829Y-125824617D01*
X115131893Y-125806893D01*
X115149617Y-125790829D01*
X115168830Y-125776579D01*
X115189347Y-125764282D01*
X115210971Y-125754054D01*
X115233493Y-125745996D01*
X115256697Y-125740184D01*
X115280358Y-125736674D01*
X115304250Y-125735500D01*
X116216750Y-125735500D01*
X116240642Y-125736674D01*
G37*
G04 #@! TD.AperFunction*
G04 #@! TA.AperFunction,SMDPad,CuDef*
G36*
X116240642Y-123861674D02*
G01*
X116264303Y-123865184D01*
X116287507Y-123870996D01*
X116310029Y-123879054D01*
X116331653Y-123889282D01*
X116352170Y-123901579D01*
X116371383Y-123915829D01*
X116389107Y-123931893D01*
X116405171Y-123949617D01*
X116419421Y-123968830D01*
X116431718Y-123989347D01*
X116441946Y-124010971D01*
X116450004Y-124033493D01*
X116455816Y-124056697D01*
X116459326Y-124080358D01*
X116460500Y-124104250D01*
X116460500Y-124591750D01*
X116459326Y-124615642D01*
X116455816Y-124639303D01*
X116450004Y-124662507D01*
X116441946Y-124685029D01*
X116431718Y-124706653D01*
X116419421Y-124727170D01*
X116405171Y-124746383D01*
X116389107Y-124764107D01*
X116371383Y-124780171D01*
X116352170Y-124794421D01*
X116331653Y-124806718D01*
X116310029Y-124816946D01*
X116287507Y-124825004D01*
X116264303Y-124830816D01*
X116240642Y-124834326D01*
X116216750Y-124835500D01*
X115304250Y-124835500D01*
X115280358Y-124834326D01*
X115256697Y-124830816D01*
X115233493Y-124825004D01*
X115210971Y-124816946D01*
X115189347Y-124806718D01*
X115168830Y-124794421D01*
X115149617Y-124780171D01*
X115131893Y-124764107D01*
X115115829Y-124746383D01*
X115101579Y-124727170D01*
X115089282Y-124706653D01*
X115079054Y-124685029D01*
X115070996Y-124662507D01*
X115065184Y-124639303D01*
X115061674Y-124615642D01*
X115060500Y-124591750D01*
X115060500Y-124104250D01*
X115061674Y-124080358D01*
X115065184Y-124056697D01*
X115070996Y-124033493D01*
X115079054Y-124010971D01*
X115089282Y-123989347D01*
X115101579Y-123968830D01*
X115115829Y-123949617D01*
X115131893Y-123931893D01*
X115149617Y-123915829D01*
X115168830Y-123901579D01*
X115189347Y-123889282D01*
X115210971Y-123879054D01*
X115233493Y-123870996D01*
X115256697Y-123865184D01*
X115280358Y-123861674D01*
X115304250Y-123860500D01*
X116216750Y-123860500D01*
X116240642Y-123861674D01*
G37*
G04 #@! TD.AperFunction*
D20*
X119888000Y-107950000D03*
D21*
X113888000Y-107950000D03*
D22*
X116888000Y-112650000D03*
G04 #@! TA.AperFunction,SMDPad,CuDef*
D16*
G36*
X128496142Y-130943674D02*
G01*
X128519803Y-130947184D01*
X128543007Y-130952996D01*
X128565529Y-130961054D01*
X128587153Y-130971282D01*
X128607670Y-130983579D01*
X128626883Y-130997829D01*
X128644607Y-131013893D01*
X128660671Y-131031617D01*
X128674921Y-131050830D01*
X128687218Y-131071347D01*
X128697446Y-131092971D01*
X128705504Y-131115493D01*
X128711316Y-131138697D01*
X128714826Y-131162358D01*
X128716000Y-131186250D01*
X128716000Y-131673750D01*
X128714826Y-131697642D01*
X128711316Y-131721303D01*
X128705504Y-131744507D01*
X128697446Y-131767029D01*
X128687218Y-131788653D01*
X128674921Y-131809170D01*
X128660671Y-131828383D01*
X128644607Y-131846107D01*
X128626883Y-131862171D01*
X128607670Y-131876421D01*
X128587153Y-131888718D01*
X128565529Y-131898946D01*
X128543007Y-131907004D01*
X128519803Y-131912816D01*
X128496142Y-131916326D01*
X128472250Y-131917500D01*
X127559750Y-131917500D01*
X127535858Y-131916326D01*
X127512197Y-131912816D01*
X127488993Y-131907004D01*
X127466471Y-131898946D01*
X127444847Y-131888718D01*
X127424330Y-131876421D01*
X127405117Y-131862171D01*
X127387393Y-131846107D01*
X127371329Y-131828383D01*
X127357079Y-131809170D01*
X127344782Y-131788653D01*
X127334554Y-131767029D01*
X127326496Y-131744507D01*
X127320684Y-131721303D01*
X127317174Y-131697642D01*
X127316000Y-131673750D01*
X127316000Y-131186250D01*
X127317174Y-131162358D01*
X127320684Y-131138697D01*
X127326496Y-131115493D01*
X127334554Y-131092971D01*
X127344782Y-131071347D01*
X127357079Y-131050830D01*
X127371329Y-131031617D01*
X127387393Y-131013893D01*
X127405117Y-130997829D01*
X127424330Y-130983579D01*
X127444847Y-130971282D01*
X127466471Y-130961054D01*
X127488993Y-130952996D01*
X127512197Y-130947184D01*
X127535858Y-130943674D01*
X127559750Y-130942500D01*
X128472250Y-130942500D01*
X128496142Y-130943674D01*
G37*
G04 #@! TD.AperFunction*
G04 #@! TA.AperFunction,SMDPad,CuDef*
G36*
X128496142Y-129068674D02*
G01*
X128519803Y-129072184D01*
X128543007Y-129077996D01*
X128565529Y-129086054D01*
X128587153Y-129096282D01*
X128607670Y-129108579D01*
X128626883Y-129122829D01*
X128644607Y-129138893D01*
X128660671Y-129156617D01*
X128674921Y-129175830D01*
X128687218Y-129196347D01*
X128697446Y-129217971D01*
X128705504Y-129240493D01*
X128711316Y-129263697D01*
X128714826Y-129287358D01*
X128716000Y-129311250D01*
X128716000Y-129798750D01*
X128714826Y-129822642D01*
X128711316Y-129846303D01*
X128705504Y-129869507D01*
X128697446Y-129892029D01*
X128687218Y-129913653D01*
X128674921Y-129934170D01*
X128660671Y-129953383D01*
X128644607Y-129971107D01*
X128626883Y-129987171D01*
X128607670Y-130001421D01*
X128587153Y-130013718D01*
X128565529Y-130023946D01*
X128543007Y-130032004D01*
X128519803Y-130037816D01*
X128496142Y-130041326D01*
X128472250Y-130042500D01*
X127559750Y-130042500D01*
X127535858Y-130041326D01*
X127512197Y-130037816D01*
X127488993Y-130032004D01*
X127466471Y-130023946D01*
X127444847Y-130013718D01*
X127424330Y-130001421D01*
X127405117Y-129987171D01*
X127387393Y-129971107D01*
X127371329Y-129953383D01*
X127357079Y-129934170D01*
X127344782Y-129913653D01*
X127334554Y-129892029D01*
X127326496Y-129869507D01*
X127320684Y-129846303D01*
X127317174Y-129822642D01*
X127316000Y-129798750D01*
X127316000Y-129311250D01*
X127317174Y-129287358D01*
X127320684Y-129263697D01*
X127326496Y-129240493D01*
X127334554Y-129217971D01*
X127344782Y-129196347D01*
X127357079Y-129175830D01*
X127371329Y-129156617D01*
X127387393Y-129138893D01*
X127405117Y-129122829D01*
X127424330Y-129108579D01*
X127444847Y-129096282D01*
X127466471Y-129086054D01*
X127488993Y-129077996D01*
X127512197Y-129072184D01*
X127535858Y-129068674D01*
X127559750Y-129067500D01*
X128472250Y-129067500D01*
X128496142Y-129068674D01*
G37*
G04 #@! TD.AperFunction*
G04 #@! TA.AperFunction,SMDPad,CuDef*
G36*
X126337142Y-72236174D02*
G01*
X126360803Y-72239684D01*
X126384007Y-72245496D01*
X126406529Y-72253554D01*
X126428153Y-72263782D01*
X126448670Y-72276079D01*
X126467883Y-72290329D01*
X126485607Y-72306393D01*
X126501671Y-72324117D01*
X126515921Y-72343330D01*
X126528218Y-72363847D01*
X126538446Y-72385471D01*
X126546504Y-72407993D01*
X126552316Y-72431197D01*
X126555826Y-72454858D01*
X126557000Y-72478750D01*
X126557000Y-72966250D01*
X126555826Y-72990142D01*
X126552316Y-73013803D01*
X126546504Y-73037007D01*
X126538446Y-73059529D01*
X126528218Y-73081153D01*
X126515921Y-73101670D01*
X126501671Y-73120883D01*
X126485607Y-73138607D01*
X126467883Y-73154671D01*
X126448670Y-73168921D01*
X126428153Y-73181218D01*
X126406529Y-73191446D01*
X126384007Y-73199504D01*
X126360803Y-73205316D01*
X126337142Y-73208826D01*
X126313250Y-73210000D01*
X125400750Y-73210000D01*
X125376858Y-73208826D01*
X125353197Y-73205316D01*
X125329993Y-73199504D01*
X125307471Y-73191446D01*
X125285847Y-73181218D01*
X125265330Y-73168921D01*
X125246117Y-73154671D01*
X125228393Y-73138607D01*
X125212329Y-73120883D01*
X125198079Y-73101670D01*
X125185782Y-73081153D01*
X125175554Y-73059529D01*
X125167496Y-73037007D01*
X125161684Y-73013803D01*
X125158174Y-72990142D01*
X125157000Y-72966250D01*
X125157000Y-72478750D01*
X125158174Y-72454858D01*
X125161684Y-72431197D01*
X125167496Y-72407993D01*
X125175554Y-72385471D01*
X125185782Y-72363847D01*
X125198079Y-72343330D01*
X125212329Y-72324117D01*
X125228393Y-72306393D01*
X125246117Y-72290329D01*
X125265330Y-72276079D01*
X125285847Y-72263782D01*
X125307471Y-72253554D01*
X125329993Y-72245496D01*
X125353197Y-72239684D01*
X125376858Y-72236174D01*
X125400750Y-72235000D01*
X126313250Y-72235000D01*
X126337142Y-72236174D01*
G37*
G04 #@! TD.AperFunction*
G04 #@! TA.AperFunction,SMDPad,CuDef*
G36*
X126337142Y-74111174D02*
G01*
X126360803Y-74114684D01*
X126384007Y-74120496D01*
X126406529Y-74128554D01*
X126428153Y-74138782D01*
X126448670Y-74151079D01*
X126467883Y-74165329D01*
X126485607Y-74181393D01*
X126501671Y-74199117D01*
X126515921Y-74218330D01*
X126528218Y-74238847D01*
X126538446Y-74260471D01*
X126546504Y-74282993D01*
X126552316Y-74306197D01*
X126555826Y-74329858D01*
X126557000Y-74353750D01*
X126557000Y-74841250D01*
X126555826Y-74865142D01*
X126552316Y-74888803D01*
X126546504Y-74912007D01*
X126538446Y-74934529D01*
X126528218Y-74956153D01*
X126515921Y-74976670D01*
X126501671Y-74995883D01*
X126485607Y-75013607D01*
X126467883Y-75029671D01*
X126448670Y-75043921D01*
X126428153Y-75056218D01*
X126406529Y-75066446D01*
X126384007Y-75074504D01*
X126360803Y-75080316D01*
X126337142Y-75083826D01*
X126313250Y-75085000D01*
X125400750Y-75085000D01*
X125376858Y-75083826D01*
X125353197Y-75080316D01*
X125329993Y-75074504D01*
X125307471Y-75066446D01*
X125285847Y-75056218D01*
X125265330Y-75043921D01*
X125246117Y-75029671D01*
X125228393Y-75013607D01*
X125212329Y-74995883D01*
X125198079Y-74976670D01*
X125185782Y-74956153D01*
X125175554Y-74934529D01*
X125167496Y-74912007D01*
X125161684Y-74888803D01*
X125158174Y-74865142D01*
X125157000Y-74841250D01*
X125157000Y-74353750D01*
X125158174Y-74329858D01*
X125161684Y-74306197D01*
X125167496Y-74282993D01*
X125175554Y-74260471D01*
X125185782Y-74238847D01*
X125198079Y-74218330D01*
X125212329Y-74199117D01*
X125228393Y-74181393D01*
X125246117Y-74165329D01*
X125265330Y-74151079D01*
X125285847Y-74138782D01*
X125307471Y-74128554D01*
X125329993Y-74120496D01*
X125353197Y-74114684D01*
X125376858Y-74111174D01*
X125400750Y-74110000D01*
X126313250Y-74110000D01*
X126337142Y-74111174D01*
G37*
G04 #@! TD.AperFunction*
G04 #@! TA.AperFunction,SMDPad,CuDef*
G36*
X119860142Y-92937174D02*
G01*
X119883803Y-92940684D01*
X119907007Y-92946496D01*
X119929529Y-92954554D01*
X119951153Y-92964782D01*
X119971670Y-92977079D01*
X119990883Y-92991329D01*
X120008607Y-93007393D01*
X120024671Y-93025117D01*
X120038921Y-93044330D01*
X120051218Y-93064847D01*
X120061446Y-93086471D01*
X120069504Y-93108993D01*
X120075316Y-93132197D01*
X120078826Y-93155858D01*
X120080000Y-93179750D01*
X120080000Y-93667250D01*
X120078826Y-93691142D01*
X120075316Y-93714803D01*
X120069504Y-93738007D01*
X120061446Y-93760529D01*
X120051218Y-93782153D01*
X120038921Y-93802670D01*
X120024671Y-93821883D01*
X120008607Y-93839607D01*
X119990883Y-93855671D01*
X119971670Y-93869921D01*
X119951153Y-93882218D01*
X119929529Y-93892446D01*
X119907007Y-93900504D01*
X119883803Y-93906316D01*
X119860142Y-93909826D01*
X119836250Y-93911000D01*
X118923750Y-93911000D01*
X118899858Y-93909826D01*
X118876197Y-93906316D01*
X118852993Y-93900504D01*
X118830471Y-93892446D01*
X118808847Y-93882218D01*
X118788330Y-93869921D01*
X118769117Y-93855671D01*
X118751393Y-93839607D01*
X118735329Y-93821883D01*
X118721079Y-93802670D01*
X118708782Y-93782153D01*
X118698554Y-93760529D01*
X118690496Y-93738007D01*
X118684684Y-93714803D01*
X118681174Y-93691142D01*
X118680000Y-93667250D01*
X118680000Y-93179750D01*
X118681174Y-93155858D01*
X118684684Y-93132197D01*
X118690496Y-93108993D01*
X118698554Y-93086471D01*
X118708782Y-93064847D01*
X118721079Y-93044330D01*
X118735329Y-93025117D01*
X118751393Y-93007393D01*
X118769117Y-92991329D01*
X118788330Y-92977079D01*
X118808847Y-92964782D01*
X118830471Y-92954554D01*
X118852993Y-92946496D01*
X118876197Y-92940684D01*
X118899858Y-92937174D01*
X118923750Y-92936000D01*
X119836250Y-92936000D01*
X119860142Y-92937174D01*
G37*
G04 #@! TD.AperFunction*
G04 #@! TA.AperFunction,SMDPad,CuDef*
G36*
X119860142Y-94812174D02*
G01*
X119883803Y-94815684D01*
X119907007Y-94821496D01*
X119929529Y-94829554D01*
X119951153Y-94839782D01*
X119971670Y-94852079D01*
X119990883Y-94866329D01*
X120008607Y-94882393D01*
X120024671Y-94900117D01*
X120038921Y-94919330D01*
X120051218Y-94939847D01*
X120061446Y-94961471D01*
X120069504Y-94983993D01*
X120075316Y-95007197D01*
X120078826Y-95030858D01*
X120080000Y-95054750D01*
X120080000Y-95542250D01*
X120078826Y-95566142D01*
X120075316Y-95589803D01*
X120069504Y-95613007D01*
X120061446Y-95635529D01*
X120051218Y-95657153D01*
X120038921Y-95677670D01*
X120024671Y-95696883D01*
X120008607Y-95714607D01*
X119990883Y-95730671D01*
X119971670Y-95744921D01*
X119951153Y-95757218D01*
X119929529Y-95767446D01*
X119907007Y-95775504D01*
X119883803Y-95781316D01*
X119860142Y-95784826D01*
X119836250Y-95786000D01*
X118923750Y-95786000D01*
X118899858Y-95784826D01*
X118876197Y-95781316D01*
X118852993Y-95775504D01*
X118830471Y-95767446D01*
X118808847Y-95757218D01*
X118788330Y-95744921D01*
X118769117Y-95730671D01*
X118751393Y-95714607D01*
X118735329Y-95696883D01*
X118721079Y-95677670D01*
X118708782Y-95657153D01*
X118698554Y-95635529D01*
X118690496Y-95613007D01*
X118684684Y-95589803D01*
X118681174Y-95566142D01*
X118680000Y-95542250D01*
X118680000Y-95054750D01*
X118681174Y-95030858D01*
X118684684Y-95007197D01*
X118690496Y-94983993D01*
X118698554Y-94961471D01*
X118708782Y-94939847D01*
X118721079Y-94919330D01*
X118735329Y-94900117D01*
X118751393Y-94882393D01*
X118769117Y-94866329D01*
X118788330Y-94852079D01*
X118808847Y-94839782D01*
X118830471Y-94829554D01*
X118852993Y-94821496D01*
X118876197Y-94815684D01*
X118899858Y-94812174D01*
X118923750Y-94811000D01*
X119836250Y-94811000D01*
X119860142Y-94812174D01*
G37*
G04 #@! TD.AperFunction*
G04 #@! TA.AperFunction,SMDPad,CuDef*
G36*
X119860142Y-84936174D02*
G01*
X119883803Y-84939684D01*
X119907007Y-84945496D01*
X119929529Y-84953554D01*
X119951153Y-84963782D01*
X119971670Y-84976079D01*
X119990883Y-84990329D01*
X120008607Y-85006393D01*
X120024671Y-85024117D01*
X120038921Y-85043330D01*
X120051218Y-85063847D01*
X120061446Y-85085471D01*
X120069504Y-85107993D01*
X120075316Y-85131197D01*
X120078826Y-85154858D01*
X120080000Y-85178750D01*
X120080000Y-85666250D01*
X120078826Y-85690142D01*
X120075316Y-85713803D01*
X120069504Y-85737007D01*
X120061446Y-85759529D01*
X120051218Y-85781153D01*
X120038921Y-85801670D01*
X120024671Y-85820883D01*
X120008607Y-85838607D01*
X119990883Y-85854671D01*
X119971670Y-85868921D01*
X119951153Y-85881218D01*
X119929529Y-85891446D01*
X119907007Y-85899504D01*
X119883803Y-85905316D01*
X119860142Y-85908826D01*
X119836250Y-85910000D01*
X118923750Y-85910000D01*
X118899858Y-85908826D01*
X118876197Y-85905316D01*
X118852993Y-85899504D01*
X118830471Y-85891446D01*
X118808847Y-85881218D01*
X118788330Y-85868921D01*
X118769117Y-85854671D01*
X118751393Y-85838607D01*
X118735329Y-85820883D01*
X118721079Y-85801670D01*
X118708782Y-85781153D01*
X118698554Y-85759529D01*
X118690496Y-85737007D01*
X118684684Y-85713803D01*
X118681174Y-85690142D01*
X118680000Y-85666250D01*
X118680000Y-85178750D01*
X118681174Y-85154858D01*
X118684684Y-85131197D01*
X118690496Y-85107993D01*
X118698554Y-85085471D01*
X118708782Y-85063847D01*
X118721079Y-85043330D01*
X118735329Y-85024117D01*
X118751393Y-85006393D01*
X118769117Y-84990329D01*
X118788330Y-84976079D01*
X118808847Y-84963782D01*
X118830471Y-84953554D01*
X118852993Y-84945496D01*
X118876197Y-84939684D01*
X118899858Y-84936174D01*
X118923750Y-84935000D01*
X119836250Y-84935000D01*
X119860142Y-84936174D01*
G37*
G04 #@! TD.AperFunction*
G04 #@! TA.AperFunction,SMDPad,CuDef*
G36*
X119860142Y-86811174D02*
G01*
X119883803Y-86814684D01*
X119907007Y-86820496D01*
X119929529Y-86828554D01*
X119951153Y-86838782D01*
X119971670Y-86851079D01*
X119990883Y-86865329D01*
X120008607Y-86881393D01*
X120024671Y-86899117D01*
X120038921Y-86918330D01*
X120051218Y-86938847D01*
X120061446Y-86960471D01*
X120069504Y-86982993D01*
X120075316Y-87006197D01*
X120078826Y-87029858D01*
X120080000Y-87053750D01*
X120080000Y-87541250D01*
X120078826Y-87565142D01*
X120075316Y-87588803D01*
X120069504Y-87612007D01*
X120061446Y-87634529D01*
X120051218Y-87656153D01*
X120038921Y-87676670D01*
X120024671Y-87695883D01*
X120008607Y-87713607D01*
X119990883Y-87729671D01*
X119971670Y-87743921D01*
X119951153Y-87756218D01*
X119929529Y-87766446D01*
X119907007Y-87774504D01*
X119883803Y-87780316D01*
X119860142Y-87783826D01*
X119836250Y-87785000D01*
X118923750Y-87785000D01*
X118899858Y-87783826D01*
X118876197Y-87780316D01*
X118852993Y-87774504D01*
X118830471Y-87766446D01*
X118808847Y-87756218D01*
X118788330Y-87743921D01*
X118769117Y-87729671D01*
X118751393Y-87713607D01*
X118735329Y-87695883D01*
X118721079Y-87676670D01*
X118708782Y-87656153D01*
X118698554Y-87634529D01*
X118690496Y-87612007D01*
X118684684Y-87588803D01*
X118681174Y-87565142D01*
X118680000Y-87541250D01*
X118680000Y-87053750D01*
X118681174Y-87029858D01*
X118684684Y-87006197D01*
X118690496Y-86982993D01*
X118698554Y-86960471D01*
X118708782Y-86938847D01*
X118721079Y-86918330D01*
X118735329Y-86899117D01*
X118751393Y-86881393D01*
X118769117Y-86865329D01*
X118788330Y-86851079D01*
X118808847Y-86838782D01*
X118830471Y-86828554D01*
X118852993Y-86820496D01*
X118876197Y-86814684D01*
X118899858Y-86811174D01*
X118923750Y-86810000D01*
X119836250Y-86810000D01*
X119860142Y-86811174D01*
G37*
G04 #@! TD.AperFunction*
G04 #@! TA.AperFunction,SMDPad,CuDef*
G36*
X119860142Y-78937174D02*
G01*
X119883803Y-78940684D01*
X119907007Y-78946496D01*
X119929529Y-78954554D01*
X119951153Y-78964782D01*
X119971670Y-78977079D01*
X119990883Y-78991329D01*
X120008607Y-79007393D01*
X120024671Y-79025117D01*
X120038921Y-79044330D01*
X120051218Y-79064847D01*
X120061446Y-79086471D01*
X120069504Y-79108993D01*
X120075316Y-79132197D01*
X120078826Y-79155858D01*
X120080000Y-79179750D01*
X120080000Y-79667250D01*
X120078826Y-79691142D01*
X120075316Y-79714803D01*
X120069504Y-79738007D01*
X120061446Y-79760529D01*
X120051218Y-79782153D01*
X120038921Y-79802670D01*
X120024671Y-79821883D01*
X120008607Y-79839607D01*
X119990883Y-79855671D01*
X119971670Y-79869921D01*
X119951153Y-79882218D01*
X119929529Y-79892446D01*
X119907007Y-79900504D01*
X119883803Y-79906316D01*
X119860142Y-79909826D01*
X119836250Y-79911000D01*
X118923750Y-79911000D01*
X118899858Y-79909826D01*
X118876197Y-79906316D01*
X118852993Y-79900504D01*
X118830471Y-79892446D01*
X118808847Y-79882218D01*
X118788330Y-79869921D01*
X118769117Y-79855671D01*
X118751393Y-79839607D01*
X118735329Y-79821883D01*
X118721079Y-79802670D01*
X118708782Y-79782153D01*
X118698554Y-79760529D01*
X118690496Y-79738007D01*
X118684684Y-79714803D01*
X118681174Y-79691142D01*
X118680000Y-79667250D01*
X118680000Y-79179750D01*
X118681174Y-79155858D01*
X118684684Y-79132197D01*
X118690496Y-79108993D01*
X118698554Y-79086471D01*
X118708782Y-79064847D01*
X118721079Y-79044330D01*
X118735329Y-79025117D01*
X118751393Y-79007393D01*
X118769117Y-78991329D01*
X118788330Y-78977079D01*
X118808847Y-78964782D01*
X118830471Y-78954554D01*
X118852993Y-78946496D01*
X118876197Y-78940684D01*
X118899858Y-78937174D01*
X118923750Y-78936000D01*
X119836250Y-78936000D01*
X119860142Y-78937174D01*
G37*
G04 #@! TD.AperFunction*
G04 #@! TA.AperFunction,SMDPad,CuDef*
G36*
X119860142Y-77062174D02*
G01*
X119883803Y-77065684D01*
X119907007Y-77071496D01*
X119929529Y-77079554D01*
X119951153Y-77089782D01*
X119971670Y-77102079D01*
X119990883Y-77116329D01*
X120008607Y-77132393D01*
X120024671Y-77150117D01*
X120038921Y-77169330D01*
X120051218Y-77189847D01*
X120061446Y-77211471D01*
X120069504Y-77233993D01*
X120075316Y-77257197D01*
X120078826Y-77280858D01*
X120080000Y-77304750D01*
X120080000Y-77792250D01*
X120078826Y-77816142D01*
X120075316Y-77839803D01*
X120069504Y-77863007D01*
X120061446Y-77885529D01*
X120051218Y-77907153D01*
X120038921Y-77927670D01*
X120024671Y-77946883D01*
X120008607Y-77964607D01*
X119990883Y-77980671D01*
X119971670Y-77994921D01*
X119951153Y-78007218D01*
X119929529Y-78017446D01*
X119907007Y-78025504D01*
X119883803Y-78031316D01*
X119860142Y-78034826D01*
X119836250Y-78036000D01*
X118923750Y-78036000D01*
X118899858Y-78034826D01*
X118876197Y-78031316D01*
X118852993Y-78025504D01*
X118830471Y-78017446D01*
X118808847Y-78007218D01*
X118788330Y-77994921D01*
X118769117Y-77980671D01*
X118751393Y-77964607D01*
X118735329Y-77946883D01*
X118721079Y-77927670D01*
X118708782Y-77907153D01*
X118698554Y-77885529D01*
X118690496Y-77863007D01*
X118684684Y-77839803D01*
X118681174Y-77816142D01*
X118680000Y-77792250D01*
X118680000Y-77304750D01*
X118681174Y-77280858D01*
X118684684Y-77257197D01*
X118690496Y-77233993D01*
X118698554Y-77211471D01*
X118708782Y-77189847D01*
X118721079Y-77169330D01*
X118735329Y-77150117D01*
X118751393Y-77132393D01*
X118769117Y-77116329D01*
X118788330Y-77102079D01*
X118808847Y-77089782D01*
X118830471Y-77079554D01*
X118852993Y-77071496D01*
X118876197Y-77065684D01*
X118899858Y-77062174D01*
X118923750Y-77061000D01*
X119836250Y-77061000D01*
X119860142Y-77062174D01*
G37*
G04 #@! TD.AperFunction*
G04 #@! TA.AperFunction,SMDPad,CuDef*
G36*
X121066642Y-125863674D02*
G01*
X121090303Y-125867184D01*
X121113507Y-125872996D01*
X121136029Y-125881054D01*
X121157653Y-125891282D01*
X121178170Y-125903579D01*
X121197383Y-125917829D01*
X121215107Y-125933893D01*
X121231171Y-125951617D01*
X121245421Y-125970830D01*
X121257718Y-125991347D01*
X121267946Y-126012971D01*
X121276004Y-126035493D01*
X121281816Y-126058697D01*
X121285326Y-126082358D01*
X121286500Y-126106250D01*
X121286500Y-126593750D01*
X121285326Y-126617642D01*
X121281816Y-126641303D01*
X121276004Y-126664507D01*
X121267946Y-126687029D01*
X121257718Y-126708653D01*
X121245421Y-126729170D01*
X121231171Y-126748383D01*
X121215107Y-126766107D01*
X121197383Y-126782171D01*
X121178170Y-126796421D01*
X121157653Y-126808718D01*
X121136029Y-126818946D01*
X121113507Y-126827004D01*
X121090303Y-126832816D01*
X121066642Y-126836326D01*
X121042750Y-126837500D01*
X120130250Y-126837500D01*
X120106358Y-126836326D01*
X120082697Y-126832816D01*
X120059493Y-126827004D01*
X120036971Y-126818946D01*
X120015347Y-126808718D01*
X119994830Y-126796421D01*
X119975617Y-126782171D01*
X119957893Y-126766107D01*
X119941829Y-126748383D01*
X119927579Y-126729170D01*
X119915282Y-126708653D01*
X119905054Y-126687029D01*
X119896996Y-126664507D01*
X119891184Y-126641303D01*
X119887674Y-126617642D01*
X119886500Y-126593750D01*
X119886500Y-126106250D01*
X119887674Y-126082358D01*
X119891184Y-126058697D01*
X119896996Y-126035493D01*
X119905054Y-126012971D01*
X119915282Y-125991347D01*
X119927579Y-125970830D01*
X119941829Y-125951617D01*
X119957893Y-125933893D01*
X119975617Y-125917829D01*
X119994830Y-125903579D01*
X120015347Y-125891282D01*
X120036971Y-125881054D01*
X120059493Y-125872996D01*
X120082697Y-125867184D01*
X120106358Y-125863674D01*
X120130250Y-125862500D01*
X121042750Y-125862500D01*
X121066642Y-125863674D01*
G37*
G04 #@! TD.AperFunction*
G04 #@! TA.AperFunction,SMDPad,CuDef*
G36*
X121066642Y-123988674D02*
G01*
X121090303Y-123992184D01*
X121113507Y-123997996D01*
X121136029Y-124006054D01*
X121157653Y-124016282D01*
X121178170Y-124028579D01*
X121197383Y-124042829D01*
X121215107Y-124058893D01*
X121231171Y-124076617D01*
X121245421Y-124095830D01*
X121257718Y-124116347D01*
X121267946Y-124137971D01*
X121276004Y-124160493D01*
X121281816Y-124183697D01*
X121285326Y-124207358D01*
X121286500Y-124231250D01*
X121286500Y-124718750D01*
X121285326Y-124742642D01*
X121281816Y-124766303D01*
X121276004Y-124789507D01*
X121267946Y-124812029D01*
X121257718Y-124833653D01*
X121245421Y-124854170D01*
X121231171Y-124873383D01*
X121215107Y-124891107D01*
X121197383Y-124907171D01*
X121178170Y-124921421D01*
X121157653Y-124933718D01*
X121136029Y-124943946D01*
X121113507Y-124952004D01*
X121090303Y-124957816D01*
X121066642Y-124961326D01*
X121042750Y-124962500D01*
X120130250Y-124962500D01*
X120106358Y-124961326D01*
X120082697Y-124957816D01*
X120059493Y-124952004D01*
X120036971Y-124943946D01*
X120015347Y-124933718D01*
X119994830Y-124921421D01*
X119975617Y-124907171D01*
X119957893Y-124891107D01*
X119941829Y-124873383D01*
X119927579Y-124854170D01*
X119915282Y-124833653D01*
X119905054Y-124812029D01*
X119896996Y-124789507D01*
X119891184Y-124766303D01*
X119887674Y-124742642D01*
X119886500Y-124718750D01*
X119886500Y-124231250D01*
X119887674Y-124207358D01*
X119891184Y-124183697D01*
X119896996Y-124160493D01*
X119905054Y-124137971D01*
X119915282Y-124116347D01*
X119927579Y-124095830D01*
X119941829Y-124076617D01*
X119957893Y-124058893D01*
X119975617Y-124042829D01*
X119994830Y-124028579D01*
X120015347Y-124016282D01*
X120036971Y-124006054D01*
X120059493Y-123997996D01*
X120082697Y-123992184D01*
X120106358Y-123988674D01*
X120130250Y-123987500D01*
X121042750Y-123987500D01*
X121066642Y-123988674D01*
G37*
G04 #@! TD.AperFunction*
D23*
X157988000Y-86174500D03*
X157988000Y-81724500D03*
X157988000Y-77274500D03*
X158242000Y-96578500D03*
X158242000Y-101028500D03*
X158242000Y-105478500D03*
X158242000Y-115374500D03*
X158242000Y-119824500D03*
X158242000Y-124274500D03*
D24*
X143152500Y-129643500D03*
X138152500Y-129643500D03*
X143152500Y-134643500D03*
X138152500Y-134643500D03*
D25*
X109347000Y-121666000D03*
D26*
X145923000Y-93345000D02*
X144780000Y-93345000D01*
X157480000Y-81788000D02*
X145923000Y-93345000D01*
X145911370Y-95885000D02*
X144780000Y-95885000D01*
X151449370Y-95885000D02*
X145911370Y-95885000D01*
X158242000Y-101028500D02*
X156592870Y-101028500D01*
X156592870Y-101028500D02*
X151449370Y-95885000D01*
X128104500Y-129643500D02*
X128016000Y-129555000D01*
X132778500Y-114363500D02*
X132778500Y-129603500D01*
X129540000Y-111125000D02*
X132778500Y-114363500D01*
X138152500Y-129643500D02*
X132778500Y-129603500D01*
X132778500Y-129603500D02*
X128104500Y-129643500D01*
X149225000Y-100203000D02*
X147447000Y-98425000D01*
X147447000Y-98425000D02*
X144780000Y-98425000D01*
X157734000Y-119888000D02*
X149225000Y-111379000D01*
X149225000Y-111379000D02*
X149225000Y-100203000D01*
X133985000Y-82725500D02*
X125857000Y-74597500D01*
X133985000Y-102731370D02*
X133985000Y-82725500D01*
X130671370Y-106045000D02*
X133985000Y-102731370D01*
X129540000Y-106045000D02*
X130671370Y-106045000D01*
X123873500Y-95298500D02*
X129540000Y-100965000D01*
X119380000Y-95298500D02*
X123873500Y-95298500D01*
X119380000Y-88265000D02*
X129540000Y-98425000D01*
X119380000Y-87297500D02*
X119380000Y-88265000D01*
X119380000Y-79423500D02*
X122936000Y-82979500D01*
X122936000Y-89281000D02*
X129540000Y-95885000D01*
X122936000Y-82979500D02*
X122936000Y-89281000D01*
X147061000Y-113665000D02*
X144780000Y-113665000D01*
X157734000Y-124338000D02*
X147061000Y-113665000D01*
X159319630Y-124274500D02*
X161544000Y-122050130D01*
X158242000Y-124274500D02*
X159319630Y-124274500D01*
X161544000Y-108780500D02*
X158242000Y-105478500D01*
X161544000Y-122050130D02*
X161544000Y-108780500D01*
X159003999Y-104716501D02*
X159003999Y-104711501D01*
X158242000Y-105478500D02*
X159003999Y-104716501D01*
X159003999Y-104711501D02*
X161544000Y-102171500D01*
X161544000Y-89730500D02*
X157988000Y-86174500D01*
X161544000Y-102171500D02*
X161544000Y-89730500D01*
X113822500Y-117195500D02*
X116903500Y-117195500D01*
X113347500Y-117195500D02*
X113822500Y-117195500D01*
X116903500Y-117195500D02*
X120205500Y-117195500D01*
X115760500Y-126223000D02*
X111808500Y-126223000D01*
X111808500Y-126223000D02*
X109347000Y-123761500D01*
X109347000Y-123761500D02*
X109347000Y-121666000D01*
X111849000Y-117195500D02*
X113347500Y-117195500D01*
X109347000Y-119697500D02*
X111849000Y-117195500D01*
X109347000Y-121666000D02*
X109347000Y-119697500D01*
X113347500Y-116758000D02*
X112014000Y-115424500D01*
X113347500Y-117195500D02*
X113347500Y-116758000D01*
X112014000Y-111014416D02*
X113253356Y-109775060D01*
X112014000Y-115424500D02*
X112014000Y-111014416D01*
X119888000Y-109029500D02*
X119713060Y-109204440D01*
X119888000Y-107950000D02*
X119888000Y-109029500D01*
X120205500Y-118770500D02*
X122339000Y-118770500D01*
X122339000Y-118770500D02*
X123571000Y-117538500D01*
X123571000Y-113073416D02*
X120522644Y-110025060D01*
X123571000Y-117538500D02*
X123571000Y-113073416D01*
X139885750Y-76173000D02*
X139985750Y-76073000D01*
X135255000Y-76173000D02*
X139885750Y-76173000D01*
X144616500Y-76073000D02*
X144716500Y-76173000D01*
X139985750Y-76073000D02*
X144616500Y-76073000D01*
X139985750Y-96170750D02*
X144780000Y-100965000D01*
X139985750Y-76073000D02*
X139985750Y-96170750D01*
X119253000Y-93169500D02*
X119507000Y-93423500D01*
X119174500Y-93218000D02*
X119380000Y-93423500D01*
X112141000Y-93218000D02*
X119174500Y-93218000D01*
X119301500Y-85344000D02*
X119380000Y-85422500D01*
X112141000Y-85344000D02*
X119301500Y-85344000D01*
X119301500Y-77470000D02*
X119380000Y-77548500D01*
X112141000Y-77470000D02*
X119301500Y-77470000D01*
X115887500Y-124475000D02*
X115760500Y-124348000D01*
X120586500Y-124475000D02*
X115887500Y-124475000D01*
X125857000Y-72235000D02*
X125857000Y-64389000D01*
X125857000Y-72722500D02*
X125857000Y-72235000D01*
X141224000Y-66992500D02*
X141224000Y-64389000D01*
X137123500Y-71093000D02*
X141224000Y-66992500D01*
X135255000Y-71093000D02*
X137123500Y-71093000D01*
D27*
G36*
X164340000Y-61522606D02*
G01*
X164340001Y-139332560D01*
X164330702Y-139340000D01*
X106080432Y-139340000D01*
X105660000Y-138972122D01*
X105660000Y-133779872D01*
X108765000Y-133779872D01*
X108765000Y-134220128D01*
X108850890Y-134651925D01*
X109019369Y-135058669D01*
X109263962Y-135424729D01*
X109575271Y-135736038D01*
X109941331Y-135980631D01*
X110348075Y-136149110D01*
X110779872Y-136235000D01*
X111220128Y-136235000D01*
X111651925Y-136149110D01*
X112058669Y-135980631D01*
X112424729Y-135736038D01*
X112736038Y-135424729D01*
X112980631Y-135058669D01*
X113149110Y-134651925D01*
X113184776Y-134472617D01*
X136417500Y-134472617D01*
X136417500Y-134814383D01*
X136484175Y-135149581D01*
X136614963Y-135465331D01*
X136804837Y-135749498D01*
X137046502Y-135991163D01*
X137330669Y-136181037D01*
X137646419Y-136311825D01*
X137981617Y-136378500D01*
X138323383Y-136378500D01*
X138658581Y-136311825D01*
X138974331Y-136181037D01*
X139258498Y-135991163D01*
X139500163Y-135749498D01*
X139690037Y-135465331D01*
X139820825Y-135149581D01*
X139887500Y-134814383D01*
X139887500Y-134472617D01*
X141417500Y-134472617D01*
X141417500Y-134814383D01*
X141484175Y-135149581D01*
X141614963Y-135465331D01*
X141804837Y-135749498D01*
X142046502Y-135991163D01*
X142330669Y-136181037D01*
X142646419Y-136311825D01*
X142981617Y-136378500D01*
X143323383Y-136378500D01*
X143658581Y-136311825D01*
X143974331Y-136181037D01*
X144258498Y-135991163D01*
X144500163Y-135749498D01*
X144690037Y-135465331D01*
X144820825Y-135149581D01*
X144887500Y-134814383D01*
X144887500Y-134472617D01*
X144820825Y-134137419D01*
X144690037Y-133821669D01*
X144662110Y-133779872D01*
X156765000Y-133779872D01*
X156765000Y-134220128D01*
X156850890Y-134651925D01*
X157019369Y-135058669D01*
X157263962Y-135424729D01*
X157575271Y-135736038D01*
X157941331Y-135980631D01*
X158348075Y-136149110D01*
X158779872Y-136235000D01*
X159220128Y-136235000D01*
X159651925Y-136149110D01*
X160058669Y-135980631D01*
X160424729Y-135736038D01*
X160736038Y-135424729D01*
X160980631Y-135058669D01*
X161149110Y-134651925D01*
X161235000Y-134220128D01*
X161235000Y-133779872D01*
X161149110Y-133348075D01*
X160980631Y-132941331D01*
X160736038Y-132575271D01*
X160424729Y-132263962D01*
X160058669Y-132019369D01*
X159651925Y-131850890D01*
X159220128Y-131765000D01*
X158779872Y-131765000D01*
X158348075Y-131850890D01*
X157941331Y-132019369D01*
X157575271Y-132263962D01*
X157263962Y-132575271D01*
X157019369Y-132941331D01*
X156850890Y-133348075D01*
X156765000Y-133779872D01*
X144662110Y-133779872D01*
X144500163Y-133537502D01*
X144258498Y-133295837D01*
X143974331Y-133105963D01*
X143658581Y-132975175D01*
X143323383Y-132908500D01*
X142981617Y-132908500D01*
X142646419Y-132975175D01*
X142330669Y-133105963D01*
X142046502Y-133295837D01*
X141804837Y-133537502D01*
X141614963Y-133821669D01*
X141484175Y-134137419D01*
X141417500Y-134472617D01*
X139887500Y-134472617D01*
X139820825Y-134137419D01*
X139690037Y-133821669D01*
X139500163Y-133537502D01*
X139258498Y-133295837D01*
X138974331Y-133105963D01*
X138658581Y-132975175D01*
X138323383Y-132908500D01*
X137981617Y-132908500D01*
X137646419Y-132975175D01*
X137330669Y-133105963D01*
X137046502Y-133295837D01*
X136804837Y-133537502D01*
X136614963Y-133821669D01*
X136484175Y-134137419D01*
X136417500Y-134472617D01*
X113184776Y-134472617D01*
X113235000Y-134220128D01*
X113235000Y-133779872D01*
X113149110Y-133348075D01*
X112980631Y-132941331D01*
X112736038Y-132575271D01*
X112424729Y-132263962D01*
X112058669Y-132019369D01*
X111812736Y-131917500D01*
X126677928Y-131917500D01*
X126690188Y-132041982D01*
X126726498Y-132161680D01*
X126785463Y-132271994D01*
X126864815Y-132368685D01*
X126961506Y-132448037D01*
X127071820Y-132507002D01*
X127191518Y-132543312D01*
X127316000Y-132555572D01*
X127730250Y-132552500D01*
X127889000Y-132393750D01*
X127889000Y-131557000D01*
X128143000Y-131557000D01*
X128143000Y-132393750D01*
X128301750Y-132552500D01*
X128716000Y-132555572D01*
X128840482Y-132543312D01*
X128960180Y-132507002D01*
X129070494Y-132448037D01*
X129167185Y-132368685D01*
X129246537Y-132271994D01*
X129305502Y-132161680D01*
X129341812Y-132041982D01*
X129354072Y-131917500D01*
X129351000Y-131715750D01*
X129192250Y-131557000D01*
X128143000Y-131557000D01*
X127889000Y-131557000D01*
X126839750Y-131557000D01*
X126681000Y-131715750D01*
X126677928Y-131917500D01*
X111812736Y-131917500D01*
X111651925Y-131850890D01*
X111220128Y-131765000D01*
X110779872Y-131765000D01*
X110348075Y-131850890D01*
X109941331Y-132019369D01*
X109575271Y-132263962D01*
X109263962Y-132575271D01*
X109019369Y-132941331D01*
X108850890Y-133348075D01*
X108765000Y-133779872D01*
X105660000Y-133779872D01*
X105660000Y-121564061D01*
X108312000Y-121564061D01*
X108312000Y-121767939D01*
X108351774Y-121967898D01*
X108429795Y-122156256D01*
X108543063Y-122325774D01*
X108587001Y-122369712D01*
X108587000Y-123724177D01*
X108583324Y-123761500D01*
X108587000Y-123798822D01*
X108587000Y-123798832D01*
X108597997Y-123910485D01*
X108619768Y-123982254D01*
X108641454Y-124053746D01*
X108712026Y-124185776D01*
X108749346Y-124231250D01*
X108806999Y-124301501D01*
X108836003Y-124325304D01*
X111244701Y-126734003D01*
X111268499Y-126763001D01*
X111384224Y-126857974D01*
X111516253Y-126928546D01*
X111659514Y-126972003D01*
X111771167Y-126983000D01*
X111771175Y-126983000D01*
X111808500Y-126986676D01*
X111845825Y-126983000D01*
X114592655Y-126983000D01*
X114680708Y-127090292D01*
X114814336Y-127199958D01*
X114966791Y-127281447D01*
X115132215Y-127331628D01*
X115304250Y-127348572D01*
X116216750Y-127348572D01*
X116388785Y-127331628D01*
X116554209Y-127281447D01*
X116706664Y-127199958D01*
X116840292Y-127090292D01*
X116949958Y-126956664D01*
X117013652Y-126837500D01*
X119248428Y-126837500D01*
X119260688Y-126961982D01*
X119296998Y-127081680D01*
X119355963Y-127191994D01*
X119435315Y-127288685D01*
X119532006Y-127368037D01*
X119642320Y-127427002D01*
X119762018Y-127463312D01*
X119886500Y-127475572D01*
X120300750Y-127472500D01*
X120459500Y-127313750D01*
X120459500Y-126477000D01*
X120713500Y-126477000D01*
X120713500Y-127313750D01*
X120872250Y-127472500D01*
X121286500Y-127475572D01*
X121410982Y-127463312D01*
X121530680Y-127427002D01*
X121640994Y-127368037D01*
X121737685Y-127288685D01*
X121817037Y-127191994D01*
X121876002Y-127081680D01*
X121912312Y-126961982D01*
X121924572Y-126837500D01*
X121921500Y-126635750D01*
X121762750Y-126477000D01*
X120713500Y-126477000D01*
X120459500Y-126477000D01*
X119410250Y-126477000D01*
X119251500Y-126635750D01*
X119248428Y-126837500D01*
X117013652Y-126837500D01*
X117031447Y-126804209D01*
X117081628Y-126638785D01*
X117098572Y-126466750D01*
X117098572Y-125979250D01*
X117081628Y-125807215D01*
X117031447Y-125641791D01*
X116949958Y-125489336D01*
X116840292Y-125355708D01*
X116754744Y-125285500D01*
X116816278Y-125235000D01*
X119418655Y-125235000D01*
X119506708Y-125342292D01*
X119513064Y-125347508D01*
X119435315Y-125411315D01*
X119355963Y-125508006D01*
X119296998Y-125618320D01*
X119260688Y-125738018D01*
X119248428Y-125862500D01*
X119251500Y-126064250D01*
X119410250Y-126223000D01*
X120459500Y-126223000D01*
X120459500Y-126203000D01*
X120713500Y-126203000D01*
X120713500Y-126223000D01*
X121762750Y-126223000D01*
X121921500Y-126064250D01*
X121924572Y-125862500D01*
X121912312Y-125738018D01*
X121876002Y-125618320D01*
X121817037Y-125508006D01*
X121737685Y-125411315D01*
X121659936Y-125347508D01*
X121666292Y-125342292D01*
X121775958Y-125208664D01*
X121857447Y-125056209D01*
X121907628Y-124890785D01*
X121924572Y-124718750D01*
X121924572Y-124231250D01*
X121907628Y-124059215D01*
X121857447Y-123893791D01*
X121775958Y-123741336D01*
X121666292Y-123607708D01*
X121532664Y-123498042D01*
X121380209Y-123416553D01*
X121214785Y-123366372D01*
X121042750Y-123349428D01*
X120130250Y-123349428D01*
X119958215Y-123366372D01*
X119792791Y-123416553D01*
X119640336Y-123498042D01*
X119506708Y-123607708D01*
X119418655Y-123715000D01*
X117003764Y-123715000D01*
X116949958Y-123614336D01*
X116840292Y-123480708D01*
X116706664Y-123371042D01*
X116554209Y-123289553D01*
X116388785Y-123239372D01*
X116216750Y-123222428D01*
X115304250Y-123222428D01*
X115132215Y-123239372D01*
X114966791Y-123289553D01*
X114814336Y-123371042D01*
X114680708Y-123480708D01*
X114571042Y-123614336D01*
X114489553Y-123766791D01*
X114439372Y-123932215D01*
X114422428Y-124104250D01*
X114422428Y-124591750D01*
X114439372Y-124763785D01*
X114489553Y-124929209D01*
X114571042Y-125081664D01*
X114680708Y-125215292D01*
X114766256Y-125285500D01*
X114680708Y-125355708D01*
X114592655Y-125463000D01*
X112123302Y-125463000D01*
X110107000Y-123446699D01*
X110107000Y-122369711D01*
X110150937Y-122325774D01*
X110264205Y-122156256D01*
X110342226Y-121967898D01*
X110382000Y-121767939D01*
X110382000Y-121564061D01*
X110342226Y-121364102D01*
X110264205Y-121175744D01*
X110150937Y-121006226D01*
X110107000Y-120962289D01*
X110107000Y-120012301D01*
X110911301Y-119208000D01*
X112234428Y-119208000D01*
X112246688Y-119332482D01*
X112282998Y-119452180D01*
X112341963Y-119562494D01*
X112421315Y-119659185D01*
X112518006Y-119738537D01*
X112628320Y-119797502D01*
X112748018Y-119833812D01*
X112872500Y-119846072D01*
X113061750Y-119843000D01*
X113220500Y-119684250D01*
X113220500Y-118897500D01*
X113474500Y-118897500D01*
X113474500Y-119684250D01*
X113633250Y-119843000D01*
X113822500Y-119846072D01*
X113946982Y-119833812D01*
X114066680Y-119797502D01*
X114176994Y-119738537D01*
X114273685Y-119659185D01*
X114353037Y-119562494D01*
X114412002Y-119452180D01*
X114448312Y-119332482D01*
X114460572Y-119208000D01*
X115790428Y-119208000D01*
X115802688Y-119332482D01*
X115838998Y-119452180D01*
X115897963Y-119562494D01*
X115977315Y-119659185D01*
X116074006Y-119738537D01*
X116184320Y-119797502D01*
X116304018Y-119833812D01*
X116428500Y-119846072D01*
X116617750Y-119843000D01*
X116776500Y-119684250D01*
X116776500Y-118897500D01*
X117030500Y-118897500D01*
X117030500Y-119684250D01*
X117189250Y-119843000D01*
X117378500Y-119846072D01*
X117502982Y-119833812D01*
X117622680Y-119797502D01*
X117732994Y-119738537D01*
X117829685Y-119659185D01*
X117909037Y-119562494D01*
X117968002Y-119452180D01*
X118004312Y-119332482D01*
X118016572Y-119208000D01*
X119092428Y-119208000D01*
X119104688Y-119332482D01*
X119140998Y-119452180D01*
X119199963Y-119562494D01*
X119279315Y-119659185D01*
X119376006Y-119738537D01*
X119486320Y-119797502D01*
X119606018Y-119833812D01*
X119730500Y-119846072D01*
X119919750Y-119843000D01*
X120078500Y-119684250D01*
X120078500Y-118897500D01*
X120332500Y-118897500D01*
X120332500Y-119684250D01*
X120491250Y-119843000D01*
X120680500Y-119846072D01*
X120804982Y-119833812D01*
X120924680Y-119797502D01*
X121034994Y-119738537D01*
X121131685Y-119659185D01*
X121211037Y-119562494D01*
X121270002Y-119452180D01*
X121306312Y-119332482D01*
X121318572Y-119208000D01*
X121315500Y-119056250D01*
X121156750Y-118897500D01*
X120332500Y-118897500D01*
X120078500Y-118897500D01*
X119254250Y-118897500D01*
X119095500Y-119056250D01*
X119092428Y-119208000D01*
X118016572Y-119208000D01*
X118013500Y-119056250D01*
X117854750Y-118897500D01*
X117030500Y-118897500D01*
X116776500Y-118897500D01*
X115952250Y-118897500D01*
X115793500Y-119056250D01*
X115790428Y-119208000D01*
X114460572Y-119208000D01*
X114457500Y-119056250D01*
X114298750Y-118897500D01*
X113474500Y-118897500D01*
X113220500Y-118897500D01*
X112396250Y-118897500D01*
X112237500Y-119056250D01*
X112234428Y-119208000D01*
X110911301Y-119208000D01*
X112163802Y-117955500D01*
X112360843Y-117955500D01*
X112341963Y-117978506D01*
X112282998Y-118088820D01*
X112246688Y-118208518D01*
X112234428Y-118333000D01*
X112237500Y-118484750D01*
X112396250Y-118643500D01*
X113220500Y-118643500D01*
X113220500Y-118623500D01*
X113474500Y-118623500D01*
X113474500Y-118643500D01*
X114298750Y-118643500D01*
X114457500Y-118484750D01*
X114460572Y-118333000D01*
X114448312Y-118208518D01*
X114412002Y-118088820D01*
X114353037Y-117978506D01*
X114334157Y-117955500D01*
X115916843Y-117955500D01*
X115897963Y-117978506D01*
X115838998Y-118088820D01*
X115802688Y-118208518D01*
X115790428Y-118333000D01*
X115793500Y-118484750D01*
X115952250Y-118643500D01*
X116776500Y-118643500D01*
X116776500Y-118623500D01*
X117030500Y-118623500D01*
X117030500Y-118643500D01*
X117854750Y-118643500D01*
X118013500Y-118484750D01*
X118016572Y-118333000D01*
X118004312Y-118208518D01*
X117968002Y-118088820D01*
X117909037Y-117978506D01*
X117890157Y-117955500D01*
X119218843Y-117955500D01*
X119199963Y-117978506D01*
X119140998Y-118088820D01*
X119104688Y-118208518D01*
X119092428Y-118333000D01*
X119095500Y-118484750D01*
X119254250Y-118643500D01*
X120078500Y-118643500D01*
X120078500Y-118623500D01*
X120332500Y-118623500D01*
X120332500Y-118643500D01*
X121156750Y-118643500D01*
X121315500Y-118484750D01*
X121318572Y-118333000D01*
X121306312Y-118208518D01*
X121270002Y-118088820D01*
X121211037Y-117978506D01*
X121156400Y-117911930D01*
X121174171Y-117890275D01*
X121253350Y-117742142D01*
X121302108Y-117581408D01*
X121318572Y-117414250D01*
X121318572Y-116976750D01*
X121302108Y-116809592D01*
X121253350Y-116648858D01*
X121174171Y-116500725D01*
X121067615Y-116370885D01*
X120937775Y-116264329D01*
X120789642Y-116185150D01*
X120628908Y-116136392D01*
X120461750Y-116119928D01*
X119949250Y-116119928D01*
X119782092Y-116136392D01*
X119621358Y-116185150D01*
X119473225Y-116264329D01*
X119343385Y-116370885D01*
X119290357Y-116435500D01*
X117818643Y-116435500D01*
X117765615Y-116370885D01*
X117635775Y-116264329D01*
X117487642Y-116185150D01*
X117326908Y-116136392D01*
X117159750Y-116119928D01*
X116647250Y-116119928D01*
X116480092Y-116136392D01*
X116319358Y-116185150D01*
X116171225Y-116264329D01*
X116041385Y-116370885D01*
X115988357Y-116435500D01*
X114262643Y-116435500D01*
X114209615Y-116370885D01*
X114079775Y-116264329D01*
X113931642Y-116185150D01*
X113813664Y-116149362D01*
X112774000Y-115109699D01*
X112774000Y-112650000D01*
X113994485Y-112650000D01*
X114028467Y-112995020D01*
X114129105Y-113326781D01*
X114292534Y-113632534D01*
X114512471Y-113900529D01*
X114780466Y-114120466D01*
X115086219Y-114283895D01*
X115417980Y-114384533D01*
X115676547Y-114410000D01*
X118099453Y-114410000D01*
X118358020Y-114384533D01*
X118689781Y-114283895D01*
X118995534Y-114120466D01*
X119263529Y-113900529D01*
X119483466Y-113632534D01*
X119646895Y-113326781D01*
X119747533Y-112995020D01*
X119781515Y-112650000D01*
X119747533Y-112304980D01*
X119646895Y-111973219D01*
X119483466Y-111667466D01*
X119263529Y-111399471D01*
X118995534Y-111179534D01*
X118689781Y-111016105D01*
X118358020Y-110915467D01*
X118099453Y-110890000D01*
X115676547Y-110890000D01*
X115417980Y-110915467D01*
X115086219Y-111016105D01*
X114780466Y-111179534D01*
X114512471Y-111399471D01*
X114292534Y-111667466D01*
X114129105Y-111973219D01*
X114028467Y-112304980D01*
X113994485Y-112650000D01*
X112774000Y-112650000D01*
X112774000Y-111329217D01*
X113351706Y-110751511D01*
X113542980Y-110809533D01*
X113888000Y-110843515D01*
X114233019Y-110809533D01*
X114564780Y-110708895D01*
X114870533Y-110545466D01*
X115138529Y-110325529D01*
X115358466Y-110057534D01*
X115521895Y-109751781D01*
X115622533Y-109420020D01*
X115648000Y-109161453D01*
X115648000Y-106738547D01*
X115631695Y-106573000D01*
X118003000Y-106573000D01*
X118003000Y-107823000D01*
X118752951Y-107823000D01*
X118752950Y-108077000D01*
X118003000Y-108077000D01*
X118003000Y-109327000D01*
X118063996Y-109692305D01*
X118195088Y-110038691D01*
X118391237Y-110352847D01*
X118644906Y-110622699D01*
X118946347Y-110837878D01*
X119283975Y-110990114D01*
X119468355Y-111037695D01*
X119761000Y-110921572D01*
X119761000Y-110335050D01*
X120015000Y-110335050D01*
X120015000Y-110921572D01*
X120307645Y-111037695D01*
X120492025Y-110990114D01*
X120829653Y-110837878D01*
X121131094Y-110622699D01*
X121384763Y-110352847D01*
X121580912Y-110038691D01*
X121712004Y-109692305D01*
X121773000Y-109327000D01*
X121773000Y-108077000D01*
X121023050Y-108077000D01*
X121023050Y-107823000D01*
X121773000Y-107823000D01*
X121773000Y-106573000D01*
X121712004Y-106207695D01*
X121580912Y-105861309D01*
X121384763Y-105547153D01*
X121131094Y-105277301D01*
X120829653Y-105062122D01*
X120492025Y-104909886D01*
X120307645Y-104862305D01*
X120015000Y-104978428D01*
X120015000Y-105564950D01*
X119761000Y-105564950D01*
X119761000Y-104978428D01*
X119468355Y-104862305D01*
X119283975Y-104909886D01*
X118946347Y-105062122D01*
X118644906Y-105277301D01*
X118391237Y-105547153D01*
X118195088Y-105861309D01*
X118063996Y-106207695D01*
X118003000Y-106573000D01*
X115631695Y-106573000D01*
X115622533Y-106479980D01*
X115521895Y-106148219D01*
X115358466Y-105842466D01*
X115138529Y-105574471D01*
X114870534Y-105354534D01*
X114564781Y-105191105D01*
X114233020Y-105090467D01*
X113888000Y-105056485D01*
X113542981Y-105090467D01*
X113211220Y-105191105D01*
X112905467Y-105354534D01*
X112637472Y-105574471D01*
X112417535Y-105842466D01*
X112254106Y-106148219D01*
X112153468Y-106479980D01*
X112128001Y-106738547D01*
X112128000Y-109161452D01*
X112153467Y-109420019D01*
X112241939Y-109711675D01*
X111502998Y-110450617D01*
X111474000Y-110474415D01*
X111450202Y-110503413D01*
X111450201Y-110503414D01*
X111379026Y-110590140D01*
X111308454Y-110722170D01*
X111264998Y-110865431D01*
X111250324Y-111014416D01*
X111254001Y-111051748D01*
X111254000Y-115387177D01*
X111250324Y-115424500D01*
X111254000Y-115461822D01*
X111254000Y-115461832D01*
X111264997Y-115573485D01*
X111308454Y-115716746D01*
X111379026Y-115848776D01*
X111418871Y-115897326D01*
X111473999Y-115964501D01*
X111503003Y-115988304D01*
X111950199Y-116435500D01*
X111886322Y-116435500D01*
X111848999Y-116431824D01*
X111811676Y-116435500D01*
X111811667Y-116435500D01*
X111700014Y-116446497D01*
X111556753Y-116489954D01*
X111424724Y-116560526D01*
X111308999Y-116655499D01*
X111285201Y-116684497D01*
X108835998Y-119133701D01*
X108807000Y-119157499D01*
X108783202Y-119186497D01*
X108783201Y-119186498D01*
X108712026Y-119273224D01*
X108641454Y-119405254D01*
X108597998Y-119548515D01*
X108583324Y-119697500D01*
X108587001Y-119734832D01*
X108587000Y-120962289D01*
X108543063Y-121006226D01*
X108429795Y-121175744D01*
X108351774Y-121364102D01*
X108312000Y-121564061D01*
X105660000Y-121564061D01*
X105660000Y-79110000D01*
X110602928Y-79110000D01*
X110602928Y-80910000D01*
X110615188Y-81034482D01*
X110651498Y-81154180D01*
X110710463Y-81264494D01*
X110789815Y-81361185D01*
X110886506Y-81440537D01*
X110996820Y-81499502D01*
X111116518Y-81535812D01*
X111241000Y-81548072D01*
X113041000Y-81548072D01*
X113165482Y-81535812D01*
X113285180Y-81499502D01*
X113395494Y-81440537D01*
X113492185Y-81361185D01*
X113571537Y-81264494D01*
X113630502Y-81154180D01*
X113666812Y-81034482D01*
X113679072Y-80910000D01*
X113679072Y-79110000D01*
X113666812Y-78985518D01*
X113630502Y-78865820D01*
X113571537Y-78755506D01*
X113492185Y-78658815D01*
X113395494Y-78579463D01*
X113285180Y-78520498D01*
X113266873Y-78514944D01*
X113333312Y-78448505D01*
X113479313Y-78230000D01*
X118162660Y-78230000D01*
X118190542Y-78282164D01*
X118300208Y-78415792D01*
X118385756Y-78486000D01*
X118300208Y-78556208D01*
X118190542Y-78689836D01*
X118109053Y-78842291D01*
X118058872Y-79007715D01*
X118041928Y-79179750D01*
X118041928Y-79667250D01*
X118058872Y-79839285D01*
X118109053Y-80004709D01*
X118190542Y-80157164D01*
X118300208Y-80290792D01*
X118433836Y-80400458D01*
X118586291Y-80481947D01*
X118751715Y-80532128D01*
X118923750Y-80549072D01*
X119430771Y-80549072D01*
X122176000Y-83294303D01*
X122176001Y-89243668D01*
X122172324Y-89281000D01*
X122186998Y-89429985D01*
X122230454Y-89573246D01*
X122301026Y-89705276D01*
X122372201Y-89792002D01*
X122396000Y-89821001D01*
X122424998Y-89844799D01*
X128141312Y-95561114D01*
X128105000Y-95743665D01*
X128105000Y-95915198D01*
X120402012Y-88212211D01*
X120459792Y-88164792D01*
X120569458Y-88031164D01*
X120650947Y-87878709D01*
X120701128Y-87713285D01*
X120718072Y-87541250D01*
X120718072Y-87053750D01*
X120701128Y-86881715D01*
X120650947Y-86716291D01*
X120569458Y-86563836D01*
X120459792Y-86430208D01*
X120374244Y-86360000D01*
X120459792Y-86289792D01*
X120569458Y-86156164D01*
X120650947Y-86003709D01*
X120701128Y-85838285D01*
X120718072Y-85666250D01*
X120718072Y-85178750D01*
X120701128Y-85006715D01*
X120650947Y-84841291D01*
X120569458Y-84688836D01*
X120459792Y-84555208D01*
X120326164Y-84445542D01*
X120173709Y-84364053D01*
X120008285Y-84313872D01*
X119836250Y-84296928D01*
X118923750Y-84296928D01*
X118751715Y-84313872D01*
X118586291Y-84364053D01*
X118433836Y-84445542D01*
X118300208Y-84555208D01*
X118276579Y-84584000D01*
X113479313Y-84584000D01*
X113333312Y-84365495D01*
X113119505Y-84151688D01*
X112868095Y-83983701D01*
X112588743Y-83867989D01*
X112292184Y-83809000D01*
X111989816Y-83809000D01*
X111693257Y-83867989D01*
X111413905Y-83983701D01*
X111162495Y-84151688D01*
X110948688Y-84365495D01*
X110780701Y-84616905D01*
X110664989Y-84896257D01*
X110606000Y-85192816D01*
X110606000Y-85495184D01*
X110664989Y-85791743D01*
X110780701Y-86071095D01*
X110948688Y-86322505D01*
X111015127Y-86388944D01*
X110996820Y-86394498D01*
X110886506Y-86453463D01*
X110789815Y-86532815D01*
X110710463Y-86629506D01*
X110651498Y-86739820D01*
X110615188Y-86859518D01*
X110602928Y-86984000D01*
X110602928Y-88784000D01*
X110615188Y-88908482D01*
X110651498Y-89028180D01*
X110710463Y-89138494D01*
X110789815Y-89235185D01*
X110886506Y-89314537D01*
X110996820Y-89373502D01*
X111116518Y-89409812D01*
X111241000Y-89422072D01*
X113041000Y-89422072D01*
X113165482Y-89409812D01*
X113285180Y-89373502D01*
X113395494Y-89314537D01*
X113492185Y-89235185D01*
X113571537Y-89138494D01*
X113630502Y-89028180D01*
X113666812Y-88908482D01*
X113679072Y-88784000D01*
X113679072Y-86984000D01*
X113666812Y-86859518D01*
X113630502Y-86739820D01*
X113571537Y-86629506D01*
X113492185Y-86532815D01*
X113395494Y-86453463D01*
X113285180Y-86394498D01*
X113266873Y-86388944D01*
X113333312Y-86322505D01*
X113479313Y-86104000D01*
X118162660Y-86104000D01*
X118190542Y-86156164D01*
X118300208Y-86289792D01*
X118385756Y-86360000D01*
X118300208Y-86430208D01*
X118190542Y-86563836D01*
X118109053Y-86716291D01*
X118058872Y-86881715D01*
X118041928Y-87053750D01*
X118041928Y-87541250D01*
X118058872Y-87713285D01*
X118109053Y-87878709D01*
X118190542Y-88031164D01*
X118300208Y-88164792D01*
X118433836Y-88274458D01*
X118586291Y-88355947D01*
X118626482Y-88368139D01*
X118630245Y-88406335D01*
X118630998Y-88413985D01*
X118674454Y-88557246D01*
X118745026Y-88689276D01*
X118816201Y-88776002D01*
X118840000Y-88805001D01*
X118868998Y-88828799D01*
X128141312Y-98101114D01*
X128105000Y-98283665D01*
X128105000Y-98455198D01*
X124437304Y-94787503D01*
X124413501Y-94758499D01*
X124297776Y-94663526D01*
X124165747Y-94592954D01*
X124022486Y-94549497D01*
X123910833Y-94538500D01*
X123910822Y-94538500D01*
X123873500Y-94534824D01*
X123836178Y-94538500D01*
X120547845Y-94538500D01*
X120459792Y-94431208D01*
X120374244Y-94361000D01*
X120459792Y-94290792D01*
X120569458Y-94157164D01*
X120650947Y-94004709D01*
X120701128Y-93839285D01*
X120718072Y-93667250D01*
X120718072Y-93179750D01*
X120701128Y-93007715D01*
X120650947Y-92842291D01*
X120569458Y-92689836D01*
X120459792Y-92556208D01*
X120326164Y-92446542D01*
X120173709Y-92365053D01*
X120008285Y-92314872D01*
X119836250Y-92297928D01*
X118923750Y-92297928D01*
X118751715Y-92314872D01*
X118586291Y-92365053D01*
X118433836Y-92446542D01*
X118419874Y-92458000D01*
X113479313Y-92458000D01*
X113333312Y-92239495D01*
X113119505Y-92025688D01*
X112868095Y-91857701D01*
X112588743Y-91741989D01*
X112292184Y-91683000D01*
X111989816Y-91683000D01*
X111693257Y-91741989D01*
X111413905Y-91857701D01*
X111162495Y-92025688D01*
X110948688Y-92239495D01*
X110780701Y-92490905D01*
X110664989Y-92770257D01*
X110606000Y-93066816D01*
X110606000Y-93369184D01*
X110664989Y-93665743D01*
X110780701Y-93945095D01*
X110948688Y-94196505D01*
X111015127Y-94262944D01*
X110996820Y-94268498D01*
X110886506Y-94327463D01*
X110789815Y-94406815D01*
X110710463Y-94503506D01*
X110651498Y-94613820D01*
X110615188Y-94733518D01*
X110602928Y-94858000D01*
X110602928Y-96658000D01*
X110615188Y-96782482D01*
X110651498Y-96902180D01*
X110710463Y-97012494D01*
X110789815Y-97109185D01*
X110886506Y-97188537D01*
X110996820Y-97247502D01*
X111116518Y-97283812D01*
X111241000Y-97296072D01*
X113041000Y-97296072D01*
X113165482Y-97283812D01*
X113285180Y-97247502D01*
X113395494Y-97188537D01*
X113492185Y-97109185D01*
X113571537Y-97012494D01*
X113630502Y-96902180D01*
X113666812Y-96782482D01*
X113679072Y-96658000D01*
X113679072Y-94858000D01*
X113666812Y-94733518D01*
X113630502Y-94613820D01*
X113571537Y-94503506D01*
X113492185Y-94406815D01*
X113395494Y-94327463D01*
X113285180Y-94268498D01*
X113266873Y-94262944D01*
X113333312Y-94196505D01*
X113479313Y-93978000D01*
X118100951Y-93978000D01*
X118109053Y-94004709D01*
X118190542Y-94157164D01*
X118300208Y-94290792D01*
X118385756Y-94361000D01*
X118300208Y-94431208D01*
X118190542Y-94564836D01*
X118109053Y-94717291D01*
X118058872Y-94882715D01*
X118041928Y-95054750D01*
X118041928Y-95542250D01*
X118058872Y-95714285D01*
X118109053Y-95879709D01*
X118190542Y-96032164D01*
X118300208Y-96165792D01*
X118433836Y-96275458D01*
X118586291Y-96356947D01*
X118751715Y-96407128D01*
X118923750Y-96424072D01*
X119836250Y-96424072D01*
X120008285Y-96407128D01*
X120173709Y-96356947D01*
X120326164Y-96275458D01*
X120459792Y-96165792D01*
X120547845Y-96058500D01*
X123558699Y-96058500D01*
X128141312Y-100641114D01*
X128105000Y-100823665D01*
X128105000Y-101106335D01*
X128160147Y-101383574D01*
X128268320Y-101644727D01*
X128425363Y-101879759D01*
X128625241Y-102079637D01*
X128857759Y-102235000D01*
X128625241Y-102390363D01*
X128425363Y-102590241D01*
X128268320Y-102825273D01*
X128160147Y-103086426D01*
X128105000Y-103363665D01*
X128105000Y-103646335D01*
X128160147Y-103923574D01*
X128268320Y-104184727D01*
X128425363Y-104419759D01*
X128625241Y-104619637D01*
X128857759Y-104775000D01*
X128625241Y-104930363D01*
X128425363Y-105130241D01*
X128268320Y-105365273D01*
X128160147Y-105626426D01*
X128105000Y-105903665D01*
X128105000Y-106186335D01*
X128160147Y-106463574D01*
X128268320Y-106724727D01*
X128425363Y-106959759D01*
X128625241Y-107159637D01*
X128857759Y-107315000D01*
X128625241Y-107470363D01*
X128425363Y-107670241D01*
X128268320Y-107905273D01*
X128160147Y-108166426D01*
X128105000Y-108443665D01*
X128105000Y-108726335D01*
X128160147Y-109003574D01*
X128268320Y-109264727D01*
X128425363Y-109499759D01*
X128625241Y-109699637D01*
X128857759Y-109855000D01*
X128625241Y-110010363D01*
X128425363Y-110210241D01*
X128268320Y-110445273D01*
X128160147Y-110706426D01*
X128105000Y-110983665D01*
X128105000Y-111266335D01*
X128160147Y-111543574D01*
X128268320Y-111804727D01*
X128425363Y-112039759D01*
X128625241Y-112239637D01*
X128857759Y-112395000D01*
X128625241Y-112550363D01*
X128425363Y-112750241D01*
X128268320Y-112985273D01*
X128160147Y-113246426D01*
X128105000Y-113523665D01*
X128105000Y-113806335D01*
X128160147Y-114083574D01*
X128268320Y-114344727D01*
X128425363Y-114579759D01*
X128625241Y-114779637D01*
X128857759Y-114935000D01*
X128625241Y-115090363D01*
X128425363Y-115290241D01*
X128268320Y-115525273D01*
X128160147Y-115786426D01*
X128105000Y-116063665D01*
X128105000Y-116346335D01*
X128160147Y-116623574D01*
X128268320Y-116884727D01*
X128425363Y-117119759D01*
X128625241Y-117319637D01*
X128857759Y-117475000D01*
X128625241Y-117630363D01*
X128425363Y-117830241D01*
X128268320Y-118065273D01*
X128160147Y-118326426D01*
X128105000Y-118603665D01*
X128105000Y-118886335D01*
X128160147Y-119163574D01*
X128268320Y-119424727D01*
X128425363Y-119659759D01*
X128623961Y-119858357D01*
X128615518Y-119859188D01*
X128495820Y-119895498D01*
X128385506Y-119954463D01*
X128288815Y-120033815D01*
X128209463Y-120130506D01*
X128150498Y-120240820D01*
X128114188Y-120360518D01*
X128101928Y-120485000D01*
X128101928Y-122085000D01*
X128114188Y-122209482D01*
X128150498Y-122329180D01*
X128209463Y-122439494D01*
X128288815Y-122536185D01*
X128385506Y-122615537D01*
X128495820Y-122674502D01*
X128615518Y-122710812D01*
X128740000Y-122723072D01*
X130340000Y-122723072D01*
X130464482Y-122710812D01*
X130584180Y-122674502D01*
X130694494Y-122615537D01*
X130791185Y-122536185D01*
X130870537Y-122439494D01*
X130929502Y-122329180D01*
X130965812Y-122209482D01*
X130978072Y-122085000D01*
X130978072Y-120485000D01*
X130965812Y-120360518D01*
X130929502Y-120240820D01*
X130870537Y-120130506D01*
X130791185Y-120033815D01*
X130694494Y-119954463D01*
X130584180Y-119895498D01*
X130464482Y-119859188D01*
X130456039Y-119858357D01*
X130654637Y-119659759D01*
X130811680Y-119424727D01*
X130919853Y-119163574D01*
X130975000Y-118886335D01*
X130975000Y-118603665D01*
X130919853Y-118326426D01*
X130811680Y-118065273D01*
X130654637Y-117830241D01*
X130454759Y-117630363D01*
X130222241Y-117475000D01*
X130454759Y-117319637D01*
X130654637Y-117119759D01*
X130811680Y-116884727D01*
X130919853Y-116623574D01*
X130975000Y-116346335D01*
X130975000Y-116063665D01*
X130919853Y-115786426D01*
X130811680Y-115525273D01*
X130654637Y-115290241D01*
X130454759Y-115090363D01*
X130222241Y-114935000D01*
X130454759Y-114779637D01*
X130654637Y-114579759D01*
X130811680Y-114344727D01*
X130919853Y-114083574D01*
X130975000Y-113806335D01*
X130975000Y-113634802D01*
X132018500Y-114678302D01*
X132018501Y-128849977D01*
X129233506Y-128873811D01*
X129205458Y-128821336D01*
X129095792Y-128687708D01*
X128962164Y-128578042D01*
X128809709Y-128496553D01*
X128644285Y-128446372D01*
X128472250Y-128429428D01*
X127559750Y-128429428D01*
X127387715Y-128446372D01*
X127222291Y-128496553D01*
X127069836Y-128578042D01*
X126936208Y-128687708D01*
X126826542Y-128821336D01*
X126745053Y-128973791D01*
X126694872Y-129139215D01*
X126677928Y-129311250D01*
X126677928Y-129798750D01*
X126694872Y-129970785D01*
X126745053Y-130136209D01*
X126826542Y-130288664D01*
X126936208Y-130422292D01*
X126942564Y-130427508D01*
X126864815Y-130491315D01*
X126785463Y-130588006D01*
X126726498Y-130698320D01*
X126690188Y-130818018D01*
X126677928Y-130942500D01*
X126681000Y-131144250D01*
X126839750Y-131303000D01*
X127889000Y-131303000D01*
X127889000Y-131283000D01*
X128143000Y-131283000D01*
X128143000Y-131303000D01*
X129192250Y-131303000D01*
X129351000Y-131144250D01*
X129354072Y-130942500D01*
X129341812Y-130818018D01*
X129305502Y-130698320D01*
X129246537Y-130588006D01*
X129167185Y-130491315D01*
X129089436Y-130427508D01*
X129095792Y-130422292D01*
X129118312Y-130394851D01*
X132744405Y-130363819D01*
X132778500Y-130367177D01*
X132813012Y-130363778D01*
X136584526Y-130391850D01*
X136614963Y-130465331D01*
X136804837Y-130749498D01*
X137046502Y-130991163D01*
X137330669Y-131181037D01*
X137646419Y-131311825D01*
X137981617Y-131378500D01*
X138323383Y-131378500D01*
X138658581Y-131311825D01*
X138974331Y-131181037D01*
X139258498Y-130991163D01*
X139500163Y-130749498D01*
X139690037Y-130465331D01*
X139820825Y-130149581D01*
X139887500Y-129814383D01*
X139887500Y-129472617D01*
X141417500Y-129472617D01*
X141417500Y-129814383D01*
X141484175Y-130149581D01*
X141614963Y-130465331D01*
X141804837Y-130749498D01*
X142046502Y-130991163D01*
X142330669Y-131181037D01*
X142646419Y-131311825D01*
X142981617Y-131378500D01*
X143323383Y-131378500D01*
X143658581Y-131311825D01*
X143974331Y-131181037D01*
X144258498Y-130991163D01*
X144500163Y-130749498D01*
X144690037Y-130465331D01*
X144820825Y-130149581D01*
X144887500Y-129814383D01*
X144887500Y-129472617D01*
X144820825Y-129137419D01*
X144690037Y-128821669D01*
X144500163Y-128537502D01*
X144258498Y-128295837D01*
X143974331Y-128105963D01*
X143658581Y-127975175D01*
X143323383Y-127908500D01*
X142981617Y-127908500D01*
X142646419Y-127975175D01*
X142330669Y-128105963D01*
X142046502Y-128295837D01*
X141804837Y-128537502D01*
X141614963Y-128821669D01*
X141484175Y-129137419D01*
X141417500Y-129472617D01*
X139887500Y-129472617D01*
X139820825Y-129137419D01*
X139690037Y-128821669D01*
X139500163Y-128537502D01*
X139258498Y-128295837D01*
X138974331Y-128105963D01*
X138658581Y-127975175D01*
X138323383Y-127908500D01*
X137981617Y-127908500D01*
X137646419Y-127975175D01*
X137330669Y-128105963D01*
X137046502Y-128295837D01*
X136804837Y-128537502D01*
X136614963Y-128821669D01*
X136594165Y-128871880D01*
X133538500Y-128849137D01*
X133538500Y-121634039D01*
X143388096Y-121634039D01*
X143428754Y-121768087D01*
X143548963Y-122022420D01*
X143716481Y-122248414D01*
X143924869Y-122437385D01*
X144166119Y-122582070D01*
X144430960Y-122676909D01*
X144653000Y-122555624D01*
X144653000Y-121412000D01*
X144907000Y-121412000D01*
X144907000Y-122555624D01*
X145129040Y-122676909D01*
X145393881Y-122582070D01*
X145635131Y-122437385D01*
X145843519Y-122248414D01*
X146011037Y-122022420D01*
X146131246Y-121768087D01*
X146171904Y-121634039D01*
X146049915Y-121412000D01*
X144907000Y-121412000D01*
X144653000Y-121412000D01*
X143510085Y-121412000D01*
X143388096Y-121634039D01*
X133538500Y-121634039D01*
X133538500Y-114400833D01*
X133542177Y-114363500D01*
X133527503Y-114214514D01*
X133484046Y-114071253D01*
X133413474Y-113939224D01*
X133342299Y-113852497D01*
X133318501Y-113823499D01*
X133289504Y-113799702D01*
X130938688Y-111448886D01*
X130975000Y-111266335D01*
X130975000Y-110983665D01*
X130919853Y-110706426D01*
X130811680Y-110445273D01*
X130654637Y-110210241D01*
X130454759Y-110010363D01*
X130222241Y-109855000D01*
X130454759Y-109699637D01*
X130654637Y-109499759D01*
X130811680Y-109264727D01*
X130919853Y-109003574D01*
X130975000Y-108726335D01*
X130975000Y-108443665D01*
X130919853Y-108166426D01*
X130811680Y-107905273D01*
X130654637Y-107670241D01*
X130454759Y-107470363D01*
X130222241Y-107315000D01*
X130454759Y-107159637D01*
X130654637Y-106959759D01*
X130761519Y-106799798D01*
X130820356Y-106794003D01*
X130963617Y-106750546D01*
X131095646Y-106679974D01*
X131211371Y-106585001D01*
X131235174Y-106555997D01*
X134496009Y-103295164D01*
X134525001Y-103271371D01*
X134548795Y-103242378D01*
X134548799Y-103242374D01*
X134619973Y-103155647D01*
X134619974Y-103155646D01*
X134690546Y-103023617D01*
X134734003Y-102880356D01*
X134745000Y-102768703D01*
X134745000Y-102768694D01*
X134748676Y-102731371D01*
X134745000Y-102694048D01*
X134745000Y-82762823D01*
X134748676Y-82725500D01*
X134745000Y-82688177D01*
X134745000Y-82688167D01*
X134734003Y-82576514D01*
X134690546Y-82433253D01*
X134619974Y-82301224D01*
X134525001Y-82185499D01*
X134496003Y-82161701D01*
X128375816Y-76041514D01*
X133920000Y-76041514D01*
X133920000Y-76304486D01*
X133971304Y-76562405D01*
X134071939Y-76805359D01*
X134218038Y-77024013D01*
X134403987Y-77209962D01*
X134622641Y-77356061D01*
X134865595Y-77456696D01*
X135123514Y-77508000D01*
X135386486Y-77508000D01*
X135644405Y-77456696D01*
X135887359Y-77356061D01*
X136106013Y-77209962D01*
X136291962Y-77024013D01*
X136352775Y-76933000D01*
X138834524Y-76933000D01*
X138871113Y-76987759D01*
X139070991Y-77187637D01*
X139225750Y-77291043D01*
X139225751Y-96133417D01*
X139222074Y-96170750D01*
X139236748Y-96319735D01*
X139280204Y-96462996D01*
X139350776Y-96595026D01*
X139394806Y-96648676D01*
X139445750Y-96710751D01*
X139474748Y-96734549D01*
X143381312Y-100641114D01*
X143345000Y-100823665D01*
X143345000Y-101106335D01*
X143400147Y-101383574D01*
X143508320Y-101644727D01*
X143665363Y-101879759D01*
X143865241Y-102079637D01*
X144097759Y-102235000D01*
X143865241Y-102390363D01*
X143665363Y-102590241D01*
X143508320Y-102825273D01*
X143400147Y-103086426D01*
X143345000Y-103363665D01*
X143345000Y-103646335D01*
X143400147Y-103923574D01*
X143508320Y-104184727D01*
X143665363Y-104419759D01*
X143865241Y-104619637D01*
X144097759Y-104775000D01*
X143865241Y-104930363D01*
X143665363Y-105130241D01*
X143508320Y-105365273D01*
X143400147Y-105626426D01*
X143345000Y-105903665D01*
X143345000Y-106186335D01*
X143400147Y-106463574D01*
X143508320Y-106724727D01*
X143665363Y-106959759D01*
X143865241Y-107159637D01*
X144097759Y-107315000D01*
X143865241Y-107470363D01*
X143665363Y-107670241D01*
X143508320Y-107905273D01*
X143400147Y-108166426D01*
X143345000Y-108443665D01*
X143345000Y-108726335D01*
X143400147Y-109003574D01*
X143508320Y-109264727D01*
X143665363Y-109499759D01*
X143865241Y-109699637D01*
X144097759Y-109855000D01*
X143865241Y-110010363D01*
X143665363Y-110210241D01*
X143508320Y-110445273D01*
X143400147Y-110706426D01*
X143345000Y-110983665D01*
X143345000Y-111266335D01*
X143400147Y-111543574D01*
X143508320Y-111804727D01*
X143665363Y-112039759D01*
X143865241Y-112239637D01*
X144097759Y-112395000D01*
X143865241Y-112550363D01*
X143665363Y-112750241D01*
X143508320Y-112985273D01*
X143400147Y-113246426D01*
X143345000Y-113523665D01*
X143345000Y-113806335D01*
X143400147Y-114083574D01*
X143508320Y-114344727D01*
X143665363Y-114579759D01*
X143865241Y-114779637D01*
X144097759Y-114935000D01*
X143865241Y-115090363D01*
X143665363Y-115290241D01*
X143508320Y-115525273D01*
X143400147Y-115786426D01*
X143345000Y-116063665D01*
X143345000Y-116346335D01*
X143400147Y-116623574D01*
X143508320Y-116884727D01*
X143665363Y-117119759D01*
X143865241Y-117319637D01*
X144097759Y-117475000D01*
X143865241Y-117630363D01*
X143665363Y-117830241D01*
X143508320Y-118065273D01*
X143400147Y-118326426D01*
X143345000Y-118603665D01*
X143345000Y-118886335D01*
X143400147Y-119163574D01*
X143508320Y-119424727D01*
X143665363Y-119659759D01*
X143865241Y-119859637D01*
X144100273Y-120016680D01*
X144110865Y-120021067D01*
X143924869Y-120132615D01*
X143716481Y-120321586D01*
X143548963Y-120547580D01*
X143428754Y-120801913D01*
X143388096Y-120935961D01*
X143510085Y-121158000D01*
X144653000Y-121158000D01*
X144653000Y-121138000D01*
X144907000Y-121138000D01*
X144907000Y-121158000D01*
X146049915Y-121158000D01*
X146171904Y-120935961D01*
X146131246Y-120801913D01*
X146011037Y-120547580D01*
X145843519Y-120321586D01*
X145635131Y-120132615D01*
X145449135Y-120021067D01*
X145459727Y-120016680D01*
X145694759Y-119859637D01*
X145894637Y-119659759D01*
X146051680Y-119424727D01*
X146159853Y-119163574D01*
X146215000Y-118886335D01*
X146215000Y-118603665D01*
X146159853Y-118326426D01*
X146051680Y-118065273D01*
X145894637Y-117830241D01*
X145694759Y-117630363D01*
X145462241Y-117475000D01*
X145694759Y-117319637D01*
X145894637Y-117119759D01*
X146051680Y-116884727D01*
X146159853Y-116623574D01*
X146215000Y-116346335D01*
X146215000Y-116063665D01*
X146159853Y-115786426D01*
X146051680Y-115525273D01*
X145894637Y-115290241D01*
X145694759Y-115090363D01*
X145462241Y-114935000D01*
X145694759Y-114779637D01*
X145894637Y-114579759D01*
X145998043Y-114425000D01*
X146746199Y-114425000D01*
X156872738Y-124551540D01*
X156898686Y-124681990D01*
X157003995Y-124936227D01*
X157156880Y-125165035D01*
X157351465Y-125359620D01*
X157580273Y-125512505D01*
X157834510Y-125617814D01*
X158104408Y-125671500D01*
X158379592Y-125671500D01*
X158649490Y-125617814D01*
X158903727Y-125512505D01*
X159132535Y-125359620D01*
X159327120Y-125165035D01*
X159418383Y-125028451D01*
X159468616Y-125023503D01*
X159611877Y-124980046D01*
X159743906Y-124909474D01*
X159859631Y-124814501D01*
X159883434Y-124785497D01*
X162055004Y-122613928D01*
X162084001Y-122590131D01*
X162178974Y-122474406D01*
X162249546Y-122342377D01*
X162293003Y-122199116D01*
X162304000Y-122087463D01*
X162304000Y-122087454D01*
X162307676Y-122050131D01*
X162304000Y-122012808D01*
X162304000Y-108817822D01*
X162307676Y-108780499D01*
X162304000Y-108743176D01*
X162304000Y-108743167D01*
X162293003Y-108631514D01*
X162249546Y-108488253D01*
X162178974Y-108356224D01*
X162084001Y-108240499D01*
X162055003Y-108216701D01*
X159608372Y-105770071D01*
X159639000Y-105616092D01*
X159639000Y-105340908D01*
X159607542Y-105182759D01*
X162055004Y-102735298D01*
X162084001Y-102711501D01*
X162178974Y-102595776D01*
X162249546Y-102463747D01*
X162293003Y-102320486D01*
X162304000Y-102208833D01*
X162304000Y-102208823D01*
X162307676Y-102171500D01*
X162304000Y-102134177D01*
X162304000Y-89767822D01*
X162307676Y-89730499D01*
X162304000Y-89693176D01*
X162304000Y-89693167D01*
X162293003Y-89581514D01*
X162249546Y-89438253D01*
X162178974Y-89306224D01*
X162120674Y-89235185D01*
X162107799Y-89219496D01*
X162107795Y-89219492D01*
X162084001Y-89190499D01*
X162055008Y-89166705D01*
X159354372Y-86466070D01*
X159385000Y-86312092D01*
X159385000Y-86036908D01*
X159331314Y-85767010D01*
X159226005Y-85512773D01*
X159073120Y-85283965D01*
X158878535Y-85089380D01*
X158649727Y-84936495D01*
X158395490Y-84831186D01*
X158125592Y-84777500D01*
X157850408Y-84777500D01*
X157580510Y-84831186D01*
X157326273Y-84936495D01*
X157097465Y-85089380D01*
X156902880Y-85283965D01*
X156749995Y-85512773D01*
X156644686Y-85767010D01*
X156591000Y-86036908D01*
X156591000Y-86312092D01*
X156644686Y-86581990D01*
X156749995Y-86836227D01*
X156902880Y-87065035D01*
X157097465Y-87259620D01*
X157326273Y-87412505D01*
X157580510Y-87517814D01*
X157850408Y-87571500D01*
X158125592Y-87571500D01*
X158279570Y-87540872D01*
X160784001Y-90045304D01*
X160784000Y-101856698D01*
X158529400Y-104111299D01*
X158379592Y-104081500D01*
X158104408Y-104081500D01*
X157834510Y-104135186D01*
X157580273Y-104240495D01*
X157351465Y-104393380D01*
X157156880Y-104587965D01*
X157003995Y-104816773D01*
X156898686Y-105071010D01*
X156845000Y-105340908D01*
X156845000Y-105616092D01*
X156898686Y-105885990D01*
X157003995Y-106140227D01*
X157156880Y-106369035D01*
X157351465Y-106563620D01*
X157580273Y-106716505D01*
X157834510Y-106821814D01*
X158104408Y-106875500D01*
X158379592Y-106875500D01*
X158533571Y-106844872D01*
X160784001Y-109095303D01*
X160784000Y-121735328D01*
X159231242Y-123288087D01*
X159132535Y-123189380D01*
X158903727Y-123036495D01*
X158649490Y-122931186D01*
X158379592Y-122877500D01*
X158104408Y-122877500D01*
X157834510Y-122931186D01*
X157580273Y-123036495D01*
X157536527Y-123065725D01*
X147624804Y-113154003D01*
X147601001Y-113124999D01*
X147485276Y-113030026D01*
X147353247Y-112959454D01*
X147209986Y-112915997D01*
X147098333Y-112905000D01*
X147098322Y-112905000D01*
X147061000Y-112901324D01*
X147023678Y-112905000D01*
X145998043Y-112905000D01*
X145894637Y-112750241D01*
X145694759Y-112550363D01*
X145462241Y-112395000D01*
X145694759Y-112239637D01*
X145894637Y-112039759D01*
X146051680Y-111804727D01*
X146159853Y-111543574D01*
X146215000Y-111266335D01*
X146215000Y-110983665D01*
X146159853Y-110706426D01*
X146051680Y-110445273D01*
X145894637Y-110210241D01*
X145694759Y-110010363D01*
X145462241Y-109855000D01*
X145694759Y-109699637D01*
X145894637Y-109499759D01*
X146051680Y-109264727D01*
X146159853Y-109003574D01*
X146215000Y-108726335D01*
X146215000Y-108443665D01*
X146159853Y-108166426D01*
X146051680Y-107905273D01*
X145894637Y-107670241D01*
X145694759Y-107470363D01*
X145462241Y-107315000D01*
X145694759Y-107159637D01*
X145894637Y-106959759D01*
X146051680Y-106724727D01*
X146159853Y-106463574D01*
X146215000Y-106186335D01*
X146215000Y-105903665D01*
X146159853Y-105626426D01*
X146051680Y-105365273D01*
X145894637Y-105130241D01*
X145694759Y-104930363D01*
X145462241Y-104775000D01*
X145694759Y-104619637D01*
X145894637Y-104419759D01*
X146051680Y-104184727D01*
X146159853Y-103923574D01*
X146215000Y-103646335D01*
X146215000Y-103363665D01*
X146159853Y-103086426D01*
X146051680Y-102825273D01*
X145894637Y-102590241D01*
X145694759Y-102390363D01*
X145462241Y-102235000D01*
X145694759Y-102079637D01*
X145894637Y-101879759D01*
X146051680Y-101644727D01*
X146159853Y-101383574D01*
X146215000Y-101106335D01*
X146215000Y-100823665D01*
X146159853Y-100546426D01*
X146051680Y-100285273D01*
X145894637Y-100050241D01*
X145694759Y-99850363D01*
X145462241Y-99695000D01*
X145694759Y-99539637D01*
X145894637Y-99339759D01*
X145998043Y-99185000D01*
X147132199Y-99185000D01*
X148465001Y-100517803D01*
X148465000Y-111341678D01*
X148461324Y-111379000D01*
X148465000Y-111416322D01*
X148465000Y-111416332D01*
X148475997Y-111527985D01*
X148508763Y-111636002D01*
X148519454Y-111671246D01*
X148590026Y-111803276D01*
X148629871Y-111851826D01*
X148684999Y-111919001D01*
X148714003Y-111942804D01*
X156872738Y-120101540D01*
X156898686Y-120231990D01*
X157003995Y-120486227D01*
X157156880Y-120715035D01*
X157351465Y-120909620D01*
X157580273Y-121062505D01*
X157834510Y-121167814D01*
X158104408Y-121221500D01*
X158379592Y-121221500D01*
X158649490Y-121167814D01*
X158903727Y-121062505D01*
X159132535Y-120909620D01*
X159327120Y-120715035D01*
X159480005Y-120486227D01*
X159585314Y-120231990D01*
X159639000Y-119962092D01*
X159639000Y-119686908D01*
X159585314Y-119417010D01*
X159480005Y-119162773D01*
X159327120Y-118933965D01*
X159132535Y-118739380D01*
X158903727Y-118586495D01*
X158649490Y-118481186D01*
X158379592Y-118427500D01*
X158104408Y-118427500D01*
X157834510Y-118481186D01*
X157580273Y-118586495D01*
X157536527Y-118615725D01*
X154157710Y-115236908D01*
X156845000Y-115236908D01*
X156845000Y-115512092D01*
X156898686Y-115781990D01*
X157003995Y-116036227D01*
X157156880Y-116265035D01*
X157351465Y-116459620D01*
X157580273Y-116612505D01*
X157834510Y-116717814D01*
X158104408Y-116771500D01*
X158379592Y-116771500D01*
X158649490Y-116717814D01*
X158903727Y-116612505D01*
X159132535Y-116459620D01*
X159327120Y-116265035D01*
X159480005Y-116036227D01*
X159585314Y-115781990D01*
X159639000Y-115512092D01*
X159639000Y-115236908D01*
X159585314Y-114967010D01*
X159480005Y-114712773D01*
X159327120Y-114483965D01*
X159132535Y-114289380D01*
X158903727Y-114136495D01*
X158649490Y-114031186D01*
X158379592Y-113977500D01*
X158104408Y-113977500D01*
X157834510Y-114031186D01*
X157580273Y-114136495D01*
X157351465Y-114289380D01*
X157156880Y-114483965D01*
X157003995Y-114712773D01*
X156898686Y-114967010D01*
X156845000Y-115236908D01*
X154157710Y-115236908D01*
X149985000Y-111064199D01*
X149985000Y-100240325D01*
X149988676Y-100203000D01*
X149985000Y-100165675D01*
X149985000Y-100165667D01*
X149974003Y-100054014D01*
X149930546Y-99910753D01*
X149859974Y-99778724D01*
X149765001Y-99662999D01*
X149736003Y-99639201D01*
X148010804Y-97914003D01*
X147987001Y-97884999D01*
X147871276Y-97790026D01*
X147739247Y-97719454D01*
X147595986Y-97675997D01*
X147484333Y-97665000D01*
X147484322Y-97665000D01*
X147447000Y-97661324D01*
X147409678Y-97665000D01*
X145998043Y-97665000D01*
X145894637Y-97510241D01*
X145694759Y-97310363D01*
X145462241Y-97155000D01*
X145694759Y-96999637D01*
X145894637Y-96799759D01*
X145998043Y-96645000D01*
X151134569Y-96645000D01*
X156029075Y-101539508D01*
X156052869Y-101568501D01*
X156081862Y-101592295D01*
X156081866Y-101592299D01*
X156100634Y-101607701D01*
X156168594Y-101663474D01*
X156300623Y-101734046D01*
X156443884Y-101777503D01*
X156555537Y-101788500D01*
X156555546Y-101788500D01*
X156592869Y-101792176D01*
X156630192Y-101788500D01*
X157069659Y-101788500D01*
X157156880Y-101919035D01*
X157351465Y-102113620D01*
X157580273Y-102266505D01*
X157834510Y-102371814D01*
X158104408Y-102425500D01*
X158379592Y-102425500D01*
X158649490Y-102371814D01*
X158903727Y-102266505D01*
X159132535Y-102113620D01*
X159327120Y-101919035D01*
X159480005Y-101690227D01*
X159585314Y-101435990D01*
X159639000Y-101166092D01*
X159639000Y-100890908D01*
X159585314Y-100621010D01*
X159480005Y-100366773D01*
X159327120Y-100137965D01*
X159132535Y-99943380D01*
X158903727Y-99790495D01*
X158649490Y-99685186D01*
X158379592Y-99631500D01*
X158104408Y-99631500D01*
X157834510Y-99685186D01*
X157580273Y-99790495D01*
X157351465Y-99943380D01*
X157156880Y-100137965D01*
X157069659Y-100268500D01*
X156907673Y-100268500D01*
X153080080Y-96440908D01*
X156845000Y-96440908D01*
X156845000Y-96716092D01*
X156898686Y-96985990D01*
X157003995Y-97240227D01*
X157156880Y-97469035D01*
X157351465Y-97663620D01*
X157580273Y-97816505D01*
X157834510Y-97921814D01*
X158104408Y-97975500D01*
X158379592Y-97975500D01*
X158649490Y-97921814D01*
X158903727Y-97816505D01*
X159132535Y-97663620D01*
X159327120Y-97469035D01*
X159480005Y-97240227D01*
X159585314Y-96985990D01*
X159639000Y-96716092D01*
X159639000Y-96440908D01*
X159585314Y-96171010D01*
X159480005Y-95916773D01*
X159327120Y-95687965D01*
X159132535Y-95493380D01*
X158903727Y-95340495D01*
X158649490Y-95235186D01*
X158379592Y-95181500D01*
X158104408Y-95181500D01*
X157834510Y-95235186D01*
X157580273Y-95340495D01*
X157351465Y-95493380D01*
X157156880Y-95687965D01*
X157003995Y-95916773D01*
X156898686Y-96171010D01*
X156845000Y-96440908D01*
X153080080Y-96440908D01*
X152013174Y-95374003D01*
X151989371Y-95344999D01*
X151873646Y-95250026D01*
X151741617Y-95179454D01*
X151598356Y-95135997D01*
X151486703Y-95125000D01*
X151486692Y-95125000D01*
X151449370Y-95121324D01*
X151412048Y-95125000D01*
X145998043Y-95125000D01*
X145894637Y-94970241D01*
X145694759Y-94770363D01*
X145462241Y-94615000D01*
X145694759Y-94459637D01*
X145894637Y-94259759D01*
X146000700Y-94101024D01*
X146071986Y-94094003D01*
X146215247Y-94050546D01*
X146347276Y-93979974D01*
X146463001Y-93885001D01*
X146486804Y-93855997D01*
X157364474Y-82978328D01*
X157580510Y-83067814D01*
X157850408Y-83121500D01*
X158125592Y-83121500D01*
X158395490Y-83067814D01*
X158649727Y-82962505D01*
X158878535Y-82809620D01*
X159073120Y-82615035D01*
X159226005Y-82386227D01*
X159331314Y-82131990D01*
X159385000Y-81862092D01*
X159385000Y-81586908D01*
X159331314Y-81317010D01*
X159226005Y-81062773D01*
X159073120Y-80833965D01*
X158878535Y-80639380D01*
X158649727Y-80486495D01*
X158395490Y-80381186D01*
X158125592Y-80327500D01*
X157850408Y-80327500D01*
X157580510Y-80381186D01*
X157326273Y-80486495D01*
X157097465Y-80639380D01*
X156902880Y-80833965D01*
X156749995Y-81062773D01*
X156644686Y-81317010D01*
X156591000Y-81586908D01*
X156591000Y-81602198D01*
X145828797Y-92364401D01*
X145694759Y-92230363D01*
X145462241Y-92075000D01*
X145694759Y-91919637D01*
X145894637Y-91719759D01*
X146051680Y-91484727D01*
X146159853Y-91223574D01*
X146215000Y-90946335D01*
X146215000Y-90663665D01*
X146159853Y-90386426D01*
X146051680Y-90125273D01*
X145894637Y-89890241D01*
X145694759Y-89690363D01*
X145462241Y-89535000D01*
X145694759Y-89379637D01*
X145894637Y-89179759D01*
X146051680Y-88944727D01*
X146159853Y-88683574D01*
X146215000Y-88406335D01*
X146215000Y-88123665D01*
X146159853Y-87846426D01*
X146051680Y-87585273D01*
X145894637Y-87350241D01*
X145694759Y-87150363D01*
X145462241Y-86995000D01*
X145694759Y-86839637D01*
X145894637Y-86639759D01*
X146051680Y-86404727D01*
X146159853Y-86143574D01*
X146215000Y-85866335D01*
X146215000Y-85583665D01*
X146159853Y-85306426D01*
X146051680Y-85045273D01*
X145894637Y-84810241D01*
X145694759Y-84610363D01*
X145459727Y-84453320D01*
X145198574Y-84345147D01*
X144921335Y-84290000D01*
X144638665Y-84290000D01*
X144361426Y-84345147D01*
X144100273Y-84453320D01*
X143865241Y-84610363D01*
X143665363Y-84810241D01*
X143508320Y-85045273D01*
X143400147Y-85306426D01*
X143345000Y-85583665D01*
X143345000Y-85866335D01*
X143400147Y-86143574D01*
X143508320Y-86404727D01*
X143665363Y-86639759D01*
X143865241Y-86839637D01*
X144097759Y-86995000D01*
X143865241Y-87150363D01*
X143665363Y-87350241D01*
X143508320Y-87585273D01*
X143400147Y-87846426D01*
X143345000Y-88123665D01*
X143345000Y-88406335D01*
X143400147Y-88683574D01*
X143508320Y-88944727D01*
X143665363Y-89179759D01*
X143865241Y-89379637D01*
X144097759Y-89535000D01*
X143865241Y-89690363D01*
X143665363Y-89890241D01*
X143508320Y-90125273D01*
X143400147Y-90386426D01*
X143345000Y-90663665D01*
X143345000Y-90946335D01*
X143400147Y-91223574D01*
X143508320Y-91484727D01*
X143665363Y-91719759D01*
X143865241Y-91919637D01*
X144097759Y-92075000D01*
X143865241Y-92230363D01*
X143665363Y-92430241D01*
X143508320Y-92665273D01*
X143400147Y-92926426D01*
X143345000Y-93203665D01*
X143345000Y-93486335D01*
X143400147Y-93763574D01*
X143508320Y-94024727D01*
X143665363Y-94259759D01*
X143865241Y-94459637D01*
X144097759Y-94615000D01*
X143865241Y-94770363D01*
X143665363Y-94970241D01*
X143508320Y-95205273D01*
X143400147Y-95466426D01*
X143345000Y-95743665D01*
X143345000Y-96026335D01*
X143400147Y-96303574D01*
X143508320Y-96564727D01*
X143665363Y-96799759D01*
X143865241Y-96999637D01*
X144097759Y-97155000D01*
X143865241Y-97310363D01*
X143665363Y-97510241D01*
X143508320Y-97745273D01*
X143400147Y-98006426D01*
X143345000Y-98283665D01*
X143345000Y-98455198D01*
X140745750Y-95855949D01*
X140745750Y-77291043D01*
X140900509Y-77187637D01*
X141100387Y-76987759D01*
X141203793Y-76833000D01*
X143551908Y-76833000D01*
X143679538Y-77024013D01*
X143865487Y-77209962D01*
X144084141Y-77356061D01*
X144327095Y-77456696D01*
X144585014Y-77508000D01*
X144847986Y-77508000D01*
X145105905Y-77456696D01*
X145348859Y-77356061D01*
X145567513Y-77209962D01*
X145640567Y-77136908D01*
X156591000Y-77136908D01*
X156591000Y-77412092D01*
X156644686Y-77681990D01*
X156749995Y-77936227D01*
X156902880Y-78165035D01*
X157097465Y-78359620D01*
X157326273Y-78512505D01*
X157580510Y-78617814D01*
X157850408Y-78671500D01*
X158125592Y-78671500D01*
X158395490Y-78617814D01*
X158649727Y-78512505D01*
X158878535Y-78359620D01*
X159073120Y-78165035D01*
X159226005Y-77936227D01*
X159331314Y-77681990D01*
X159385000Y-77412092D01*
X159385000Y-77136908D01*
X159331314Y-76867010D01*
X159226005Y-76612773D01*
X159073120Y-76383965D01*
X158878535Y-76189380D01*
X158649727Y-76036495D01*
X158395490Y-75931186D01*
X158125592Y-75877500D01*
X157850408Y-75877500D01*
X157580510Y-75931186D01*
X157326273Y-76036495D01*
X157097465Y-76189380D01*
X156902880Y-76383965D01*
X156749995Y-76612773D01*
X156644686Y-76867010D01*
X156591000Y-77136908D01*
X145640567Y-77136908D01*
X145753462Y-77024013D01*
X145899561Y-76805359D01*
X146000196Y-76562405D01*
X146051500Y-76304486D01*
X146051500Y-76041514D01*
X146000196Y-75783595D01*
X145899561Y-75540641D01*
X145753462Y-75321987D01*
X145567513Y-75136038D01*
X145348859Y-74989939D01*
X145105905Y-74889304D01*
X144847986Y-74838000D01*
X144585014Y-74838000D01*
X144327095Y-74889304D01*
X144084141Y-74989939D01*
X143865487Y-75136038D01*
X143688525Y-75313000D01*
X141203793Y-75313000D01*
X141100387Y-75158241D01*
X140900509Y-74958363D01*
X140697923Y-74823000D01*
X140900509Y-74687637D01*
X141100387Y-74487759D01*
X141257430Y-74252727D01*
X141365603Y-73991574D01*
X141420750Y-73714335D01*
X141420750Y-73431665D01*
X141365603Y-73154426D01*
X141257430Y-72893273D01*
X141100387Y-72658241D01*
X140900509Y-72458363D01*
X140665477Y-72301320D01*
X140404324Y-72193147D01*
X140127085Y-72138000D01*
X139844415Y-72138000D01*
X139567176Y-72193147D01*
X139306023Y-72301320D01*
X139070991Y-72458363D01*
X138871113Y-72658241D01*
X138714070Y-72893273D01*
X138605897Y-73154426D01*
X138550750Y-73431665D01*
X138550750Y-73714335D01*
X138605897Y-73991574D01*
X138714070Y-74252727D01*
X138871113Y-74487759D01*
X139070991Y-74687637D01*
X139273577Y-74823000D01*
X139070991Y-74958363D01*
X138871113Y-75158241D01*
X138714070Y-75393273D01*
X138705899Y-75413000D01*
X136352775Y-75413000D01*
X136291962Y-75321987D01*
X136106013Y-75136038D01*
X135887359Y-74989939D01*
X135644405Y-74889304D01*
X135386486Y-74838000D01*
X135123514Y-74838000D01*
X134865595Y-74889304D01*
X134622641Y-74989939D01*
X134403987Y-75136038D01*
X134218038Y-75321987D01*
X134071939Y-75540641D01*
X133971304Y-75783595D01*
X133920000Y-76041514D01*
X128375816Y-76041514D01*
X127193322Y-74859021D01*
X127195072Y-74841250D01*
X127195072Y-74353750D01*
X127178128Y-74181715D01*
X127127947Y-74016291D01*
X127046458Y-73863836D01*
X126936792Y-73730208D01*
X126851244Y-73660000D01*
X126936792Y-73589792D01*
X127046458Y-73456164D01*
X127127947Y-73303709D01*
X127178128Y-73138285D01*
X127195072Y-72966250D01*
X127195072Y-72478750D01*
X127178128Y-72306715D01*
X127127947Y-72141291D01*
X127046458Y-71988836D01*
X126936792Y-71855208D01*
X126803164Y-71745542D01*
X126650709Y-71664053D01*
X126617000Y-71653827D01*
X126617000Y-70961514D01*
X133920000Y-70961514D01*
X133920000Y-71224486D01*
X133971304Y-71482405D01*
X134071939Y-71725359D01*
X134218038Y-71944013D01*
X134403987Y-72129962D01*
X134622641Y-72276061D01*
X134865595Y-72376696D01*
X135123514Y-72428000D01*
X135386486Y-72428000D01*
X135644405Y-72376696D01*
X135887359Y-72276061D01*
X136106013Y-72129962D01*
X136291962Y-71944013D01*
X136352775Y-71853000D01*
X137086178Y-71853000D01*
X137123500Y-71856676D01*
X137160822Y-71853000D01*
X137160833Y-71853000D01*
X137272486Y-71842003D01*
X137415747Y-71798546D01*
X137547776Y-71727974D01*
X137663501Y-71633001D01*
X137687304Y-71603997D01*
X138329787Y-70961514D01*
X143381500Y-70961514D01*
X143381500Y-71224486D01*
X143432804Y-71482405D01*
X143533439Y-71725359D01*
X143679538Y-71944013D01*
X143865487Y-72129962D01*
X144084141Y-72276061D01*
X144327095Y-72376696D01*
X144585014Y-72428000D01*
X144847986Y-72428000D01*
X145105905Y-72376696D01*
X145348859Y-72276061D01*
X145567513Y-72129962D01*
X145753462Y-71944013D01*
X145899561Y-71725359D01*
X146000196Y-71482405D01*
X146051500Y-71224486D01*
X146051500Y-70961514D01*
X146000196Y-70703595D01*
X145899561Y-70460641D01*
X145753462Y-70241987D01*
X145567513Y-70056038D01*
X145348859Y-69909939D01*
X145105905Y-69809304D01*
X144847986Y-69758000D01*
X144585014Y-69758000D01*
X144327095Y-69809304D01*
X144084141Y-69909939D01*
X143865487Y-70056038D01*
X143679538Y-70241987D01*
X143533439Y-70460641D01*
X143432804Y-70703595D01*
X143381500Y-70961514D01*
X138329787Y-70961514D01*
X141735004Y-67556298D01*
X141764001Y-67532501D01*
X141858974Y-67416776D01*
X141929546Y-67284747D01*
X141973003Y-67141486D01*
X141984000Y-67029833D01*
X141984000Y-67029825D01*
X141987676Y-66992500D01*
X141984000Y-66955175D01*
X141984000Y-65898029D01*
X142022147Y-65882228D01*
X142175958Y-65779454D01*
X142183463Y-65793494D01*
X142262815Y-65890185D01*
X142359506Y-65969537D01*
X142469820Y-66028502D01*
X142589518Y-66064812D01*
X142714000Y-66077072D01*
X143478250Y-66074000D01*
X143637000Y-65915250D01*
X143637000Y-64516000D01*
X143891000Y-64516000D01*
X143891000Y-65915250D01*
X144049750Y-66074000D01*
X144814000Y-66077072D01*
X144938482Y-66064812D01*
X145058180Y-66028502D01*
X145168494Y-65969537D01*
X145265185Y-65890185D01*
X145344537Y-65793494D01*
X145351818Y-65779872D01*
X156765000Y-65779872D01*
X156765000Y-66220128D01*
X156850890Y-66651925D01*
X157019369Y-67058669D01*
X157263962Y-67424729D01*
X157575271Y-67736038D01*
X157941331Y-67980631D01*
X158348075Y-68149110D01*
X158779872Y-68235000D01*
X159220128Y-68235000D01*
X159651925Y-68149110D01*
X160058669Y-67980631D01*
X160424729Y-67736038D01*
X160736038Y-67424729D01*
X160980631Y-67058669D01*
X161149110Y-66651925D01*
X161235000Y-66220128D01*
X161235000Y-65779872D01*
X161149110Y-65348075D01*
X160980631Y-64941331D01*
X160736038Y-64575271D01*
X160424729Y-64263962D01*
X160058669Y-64019369D01*
X159651925Y-63850890D01*
X159220128Y-63765000D01*
X158779872Y-63765000D01*
X158348075Y-63850890D01*
X157941331Y-64019369D01*
X157575271Y-64263962D01*
X157263962Y-64575271D01*
X157019369Y-64941331D01*
X156850890Y-65348075D01*
X156765000Y-65779872D01*
X145351818Y-65779872D01*
X145403502Y-65683180D01*
X145439812Y-65563482D01*
X145452072Y-65439000D01*
X145449000Y-64674750D01*
X145290250Y-64516000D01*
X143891000Y-64516000D01*
X143637000Y-64516000D01*
X143617000Y-64516000D01*
X143617000Y-64262000D01*
X143637000Y-64262000D01*
X143637000Y-62862750D01*
X143891000Y-62862750D01*
X143891000Y-64262000D01*
X145290250Y-64262000D01*
X145449000Y-64103250D01*
X145452072Y-63339000D01*
X145439812Y-63214518D01*
X145403502Y-63094820D01*
X145344537Y-62984506D01*
X145265185Y-62887815D01*
X145168494Y-62808463D01*
X145058180Y-62749498D01*
X144938482Y-62713188D01*
X144814000Y-62700928D01*
X144049750Y-62704000D01*
X143891000Y-62862750D01*
X143637000Y-62862750D01*
X143478250Y-62704000D01*
X142714000Y-62700928D01*
X142589518Y-62713188D01*
X142469820Y-62749498D01*
X142359506Y-62808463D01*
X142262815Y-62887815D01*
X142183463Y-62984506D01*
X142175958Y-62998546D01*
X142022147Y-62895772D01*
X141715496Y-62768754D01*
X141389958Y-62704000D01*
X141058042Y-62704000D01*
X140732504Y-62768754D01*
X140425853Y-62895772D01*
X140149875Y-63080175D01*
X139954000Y-63276050D01*
X139758125Y-63080175D01*
X139482147Y-62895772D01*
X139175496Y-62768754D01*
X138849958Y-62704000D01*
X138518042Y-62704000D01*
X138192504Y-62768754D01*
X137885853Y-62895772D01*
X137609875Y-63080175D01*
X137375175Y-63314875D01*
X137190772Y-63590853D01*
X137063754Y-63897504D01*
X136999000Y-64223042D01*
X136999000Y-64554958D01*
X137063754Y-64880496D01*
X137190772Y-65187147D01*
X137375175Y-65463125D01*
X137609875Y-65697825D01*
X137885853Y-65882228D01*
X138192504Y-66009246D01*
X138518042Y-66074000D01*
X138849958Y-66074000D01*
X139175496Y-66009246D01*
X139482147Y-65882228D01*
X139758125Y-65697825D01*
X139954000Y-65501950D01*
X140149875Y-65697825D01*
X140425853Y-65882228D01*
X140464000Y-65898029D01*
X140464000Y-66677698D01*
X136808699Y-70333000D01*
X136352775Y-70333000D01*
X136291962Y-70241987D01*
X136106013Y-70056038D01*
X135887359Y-69909939D01*
X135644405Y-69809304D01*
X135386486Y-69758000D01*
X135123514Y-69758000D01*
X134865595Y-69809304D01*
X134622641Y-69909939D01*
X134403987Y-70056038D01*
X134218038Y-70241987D01*
X134071939Y-70460641D01*
X133971304Y-70703595D01*
X133920000Y-70961514D01*
X126617000Y-70961514D01*
X126617000Y-65898029D01*
X126655147Y-65882228D01*
X126808958Y-65779454D01*
X126816463Y-65793494D01*
X126895815Y-65890185D01*
X126992506Y-65969537D01*
X127102820Y-66028502D01*
X127222518Y-66064812D01*
X127347000Y-66077072D01*
X128111250Y-66074000D01*
X128270000Y-65915250D01*
X128270000Y-64516000D01*
X128524000Y-64516000D01*
X128524000Y-65915250D01*
X128682750Y-66074000D01*
X129447000Y-66077072D01*
X129571482Y-66064812D01*
X129691180Y-66028502D01*
X129801494Y-65969537D01*
X129898185Y-65890185D01*
X129977537Y-65793494D01*
X130036502Y-65683180D01*
X130072812Y-65563482D01*
X130085072Y-65439000D01*
X130082000Y-64674750D01*
X129923250Y-64516000D01*
X128524000Y-64516000D01*
X128270000Y-64516000D01*
X128250000Y-64516000D01*
X128250000Y-64262000D01*
X128270000Y-64262000D01*
X128270000Y-62862750D01*
X128524000Y-62862750D01*
X128524000Y-64262000D01*
X129923250Y-64262000D01*
X130082000Y-64103250D01*
X130085072Y-63339000D01*
X130072812Y-63214518D01*
X130036502Y-63094820D01*
X129977537Y-62984506D01*
X129898185Y-62887815D01*
X129801494Y-62808463D01*
X129691180Y-62749498D01*
X129571482Y-62713188D01*
X129447000Y-62700928D01*
X128682750Y-62704000D01*
X128524000Y-62862750D01*
X128270000Y-62862750D01*
X128111250Y-62704000D01*
X127347000Y-62700928D01*
X127222518Y-62713188D01*
X127102820Y-62749498D01*
X126992506Y-62808463D01*
X126895815Y-62887815D01*
X126816463Y-62984506D01*
X126808958Y-62998546D01*
X126655147Y-62895772D01*
X126348496Y-62768754D01*
X126022958Y-62704000D01*
X125691042Y-62704000D01*
X125365504Y-62768754D01*
X125058853Y-62895772D01*
X124782875Y-63080175D01*
X124587000Y-63276050D01*
X124391125Y-63080175D01*
X124115147Y-62895772D01*
X123808496Y-62768754D01*
X123482958Y-62704000D01*
X123151042Y-62704000D01*
X122825504Y-62768754D01*
X122518853Y-62895772D01*
X122242875Y-63080175D01*
X122008175Y-63314875D01*
X121823772Y-63590853D01*
X121696754Y-63897504D01*
X121632000Y-64223042D01*
X121632000Y-64554958D01*
X121696754Y-64880496D01*
X121823772Y-65187147D01*
X122008175Y-65463125D01*
X122242875Y-65697825D01*
X122518853Y-65882228D01*
X122825504Y-66009246D01*
X123151042Y-66074000D01*
X123482958Y-66074000D01*
X123808496Y-66009246D01*
X124115147Y-65882228D01*
X124391125Y-65697825D01*
X124587000Y-65501950D01*
X124782875Y-65697825D01*
X125058853Y-65882228D01*
X125097001Y-65898029D01*
X125097000Y-71653827D01*
X125063291Y-71664053D01*
X124910836Y-71745542D01*
X124777208Y-71855208D01*
X124667542Y-71988836D01*
X124586053Y-72141291D01*
X124535872Y-72306715D01*
X124518928Y-72478750D01*
X124518928Y-72966250D01*
X124535872Y-73138285D01*
X124586053Y-73303709D01*
X124667542Y-73456164D01*
X124777208Y-73589792D01*
X124862756Y-73660000D01*
X124777208Y-73730208D01*
X124667542Y-73863836D01*
X124586053Y-74016291D01*
X124535872Y-74181715D01*
X124518928Y-74353750D01*
X124518928Y-74841250D01*
X124535872Y-75013285D01*
X124586053Y-75178709D01*
X124667542Y-75331164D01*
X124777208Y-75464792D01*
X124910836Y-75574458D01*
X125063291Y-75655947D01*
X125228715Y-75706128D01*
X125400750Y-75723072D01*
X125907771Y-75723072D01*
X133225001Y-83040303D01*
X133225000Y-102416567D01*
X130582982Y-105058586D01*
X130454759Y-104930363D01*
X130222241Y-104775000D01*
X130454759Y-104619637D01*
X130654637Y-104419759D01*
X130811680Y-104184727D01*
X130919853Y-103923574D01*
X130975000Y-103646335D01*
X130975000Y-103363665D01*
X130919853Y-103086426D01*
X130811680Y-102825273D01*
X130654637Y-102590241D01*
X130454759Y-102390363D01*
X130222241Y-102235000D01*
X130454759Y-102079637D01*
X130654637Y-101879759D01*
X130811680Y-101644727D01*
X130919853Y-101383574D01*
X130975000Y-101106335D01*
X130975000Y-100823665D01*
X130919853Y-100546426D01*
X130811680Y-100285273D01*
X130654637Y-100050241D01*
X130454759Y-99850363D01*
X130222241Y-99695000D01*
X130454759Y-99539637D01*
X130654637Y-99339759D01*
X130811680Y-99104727D01*
X130919853Y-98843574D01*
X130975000Y-98566335D01*
X130975000Y-98283665D01*
X130919853Y-98006426D01*
X130811680Y-97745273D01*
X130654637Y-97510241D01*
X130454759Y-97310363D01*
X130222241Y-97155000D01*
X130454759Y-96999637D01*
X130654637Y-96799759D01*
X130811680Y-96564727D01*
X130919853Y-96303574D01*
X130975000Y-96026335D01*
X130975000Y-95743665D01*
X130919853Y-95466426D01*
X130811680Y-95205273D01*
X130654637Y-94970241D01*
X130454759Y-94770363D01*
X130222241Y-94615000D01*
X130454759Y-94459637D01*
X130654637Y-94259759D01*
X130811680Y-94024727D01*
X130919853Y-93763574D01*
X130975000Y-93486335D01*
X130975000Y-93203665D01*
X130919853Y-92926426D01*
X130811680Y-92665273D01*
X130654637Y-92430241D01*
X130454759Y-92230363D01*
X130222241Y-92075000D01*
X130454759Y-91919637D01*
X130654637Y-91719759D01*
X130811680Y-91484727D01*
X130919853Y-91223574D01*
X130975000Y-90946335D01*
X130975000Y-90663665D01*
X130919853Y-90386426D01*
X130811680Y-90125273D01*
X130654637Y-89890241D01*
X130454759Y-89690363D01*
X130222241Y-89535000D01*
X130454759Y-89379637D01*
X130654637Y-89179759D01*
X130811680Y-88944727D01*
X130919853Y-88683574D01*
X130975000Y-88406335D01*
X130975000Y-88123665D01*
X130919853Y-87846426D01*
X130811680Y-87585273D01*
X130654637Y-87350241D01*
X130454759Y-87150363D01*
X130222241Y-86995000D01*
X130454759Y-86839637D01*
X130654637Y-86639759D01*
X130811680Y-86404727D01*
X130919853Y-86143574D01*
X130975000Y-85866335D01*
X130975000Y-85583665D01*
X130919853Y-85306426D01*
X130811680Y-85045273D01*
X130654637Y-84810241D01*
X130454759Y-84610363D01*
X130219727Y-84453320D01*
X129958574Y-84345147D01*
X129681335Y-84290000D01*
X129398665Y-84290000D01*
X129121426Y-84345147D01*
X128860273Y-84453320D01*
X128625241Y-84610363D01*
X128425363Y-84810241D01*
X128268320Y-85045273D01*
X128160147Y-85306426D01*
X128105000Y-85583665D01*
X128105000Y-85866335D01*
X128160147Y-86143574D01*
X128268320Y-86404727D01*
X128425363Y-86639759D01*
X128625241Y-86839637D01*
X128857759Y-86995000D01*
X128625241Y-87150363D01*
X128425363Y-87350241D01*
X128268320Y-87585273D01*
X128160147Y-87846426D01*
X128105000Y-88123665D01*
X128105000Y-88406335D01*
X128160147Y-88683574D01*
X128268320Y-88944727D01*
X128425363Y-89179759D01*
X128625241Y-89379637D01*
X128857759Y-89535000D01*
X128625241Y-89690363D01*
X128425363Y-89890241D01*
X128268320Y-90125273D01*
X128160147Y-90386426D01*
X128105000Y-90663665D01*
X128105000Y-90946335D01*
X128160147Y-91223574D01*
X128268320Y-91484727D01*
X128425363Y-91719759D01*
X128625241Y-91919637D01*
X128857759Y-92075000D01*
X128625241Y-92230363D01*
X128425363Y-92430241D01*
X128268320Y-92665273D01*
X128160147Y-92926426D01*
X128105000Y-93203665D01*
X128105000Y-93375198D01*
X123696000Y-88966199D01*
X123696000Y-83016822D01*
X123699676Y-82979499D01*
X123696000Y-82942176D01*
X123696000Y-82942167D01*
X123685003Y-82830514D01*
X123641546Y-82687253D01*
X123570974Y-82555224D01*
X123557811Y-82539185D01*
X123499799Y-82468496D01*
X123499795Y-82468492D01*
X123476001Y-82439499D01*
X123447009Y-82415706D01*
X120716322Y-79685020D01*
X120718072Y-79667250D01*
X120718072Y-79179750D01*
X120701128Y-79007715D01*
X120650947Y-78842291D01*
X120569458Y-78689836D01*
X120459792Y-78556208D01*
X120374244Y-78486000D01*
X120459792Y-78415792D01*
X120569458Y-78282164D01*
X120650947Y-78129709D01*
X120701128Y-77964285D01*
X120718072Y-77792250D01*
X120718072Y-77304750D01*
X120701128Y-77132715D01*
X120650947Y-76967291D01*
X120569458Y-76814836D01*
X120459792Y-76681208D01*
X120326164Y-76571542D01*
X120173709Y-76490053D01*
X120008285Y-76439872D01*
X119836250Y-76422928D01*
X118923750Y-76422928D01*
X118751715Y-76439872D01*
X118586291Y-76490053D01*
X118433836Y-76571542D01*
X118300208Y-76681208D01*
X118276579Y-76710000D01*
X113479313Y-76710000D01*
X113333312Y-76491495D01*
X113119505Y-76277688D01*
X112868095Y-76109701D01*
X112588743Y-75993989D01*
X112292184Y-75935000D01*
X111989816Y-75935000D01*
X111693257Y-75993989D01*
X111413905Y-76109701D01*
X111162495Y-76277688D01*
X110948688Y-76491495D01*
X110780701Y-76742905D01*
X110664989Y-77022257D01*
X110606000Y-77318816D01*
X110606000Y-77621184D01*
X110664989Y-77917743D01*
X110780701Y-78197095D01*
X110948688Y-78448505D01*
X111015127Y-78514944D01*
X110996820Y-78520498D01*
X110886506Y-78579463D01*
X110789815Y-78658815D01*
X110710463Y-78755506D01*
X110651498Y-78865820D01*
X110615188Y-78985518D01*
X110602928Y-79110000D01*
X105660000Y-79110000D01*
X105660000Y-65779872D01*
X108765000Y-65779872D01*
X108765000Y-66220128D01*
X108850890Y-66651925D01*
X109019369Y-67058669D01*
X109263962Y-67424729D01*
X109575271Y-67736038D01*
X109941331Y-67980631D01*
X110348075Y-68149110D01*
X110779872Y-68235000D01*
X111220128Y-68235000D01*
X111651925Y-68149110D01*
X112058669Y-67980631D01*
X112424729Y-67736038D01*
X112736038Y-67424729D01*
X112980631Y-67058669D01*
X113149110Y-66651925D01*
X113235000Y-66220128D01*
X113235000Y-65779872D01*
X113149110Y-65348075D01*
X112980631Y-64941331D01*
X112736038Y-64575271D01*
X112424729Y-64263962D01*
X112058669Y-64019369D01*
X111651925Y-63850890D01*
X111220128Y-63765000D01*
X110779872Y-63765000D01*
X110348075Y-63850890D01*
X109941331Y-64019369D01*
X109575271Y-64263962D01*
X109263962Y-64575271D01*
X109019369Y-64941331D01*
X108850890Y-65348075D01*
X108765000Y-65779872D01*
X105660000Y-65779872D01*
X105660000Y-61874380D01*
X106671983Y-60660000D01*
X163477394Y-60660000D01*
X164340000Y-61522606D01*
G37*
X164340000Y-61522606D02*
X164340001Y-139332560D01*
X164330702Y-139340000D01*
X106080432Y-139340000D01*
X105660000Y-138972122D01*
X105660000Y-133779872D01*
X108765000Y-133779872D01*
X108765000Y-134220128D01*
X108850890Y-134651925D01*
X109019369Y-135058669D01*
X109263962Y-135424729D01*
X109575271Y-135736038D01*
X109941331Y-135980631D01*
X110348075Y-136149110D01*
X110779872Y-136235000D01*
X111220128Y-136235000D01*
X111651925Y-136149110D01*
X112058669Y-135980631D01*
X112424729Y-135736038D01*
X112736038Y-135424729D01*
X112980631Y-135058669D01*
X113149110Y-134651925D01*
X113184776Y-134472617D01*
X136417500Y-134472617D01*
X136417500Y-134814383D01*
X136484175Y-135149581D01*
X136614963Y-135465331D01*
X136804837Y-135749498D01*
X137046502Y-135991163D01*
X137330669Y-136181037D01*
X137646419Y-136311825D01*
X137981617Y-136378500D01*
X138323383Y-136378500D01*
X138658581Y-136311825D01*
X138974331Y-136181037D01*
X139258498Y-135991163D01*
X139500163Y-135749498D01*
X139690037Y-135465331D01*
X139820825Y-135149581D01*
X139887500Y-134814383D01*
X139887500Y-134472617D01*
X141417500Y-134472617D01*
X141417500Y-134814383D01*
X141484175Y-135149581D01*
X141614963Y-135465331D01*
X141804837Y-135749498D01*
X142046502Y-135991163D01*
X142330669Y-136181037D01*
X142646419Y-136311825D01*
X142981617Y-136378500D01*
X143323383Y-136378500D01*
X143658581Y-136311825D01*
X143974331Y-136181037D01*
X144258498Y-135991163D01*
X144500163Y-135749498D01*
X144690037Y-135465331D01*
X144820825Y-135149581D01*
X144887500Y-134814383D01*
X144887500Y-134472617D01*
X144820825Y-134137419D01*
X144690037Y-133821669D01*
X144662110Y-133779872D01*
X156765000Y-133779872D01*
X156765000Y-134220128D01*
X156850890Y-134651925D01*
X157019369Y-135058669D01*
X157263962Y-135424729D01*
X157575271Y-135736038D01*
X157941331Y-135980631D01*
X158348075Y-136149110D01*
X158779872Y-136235000D01*
X159220128Y-136235000D01*
X159651925Y-136149110D01*
X160058669Y-135980631D01*
X160424729Y-135736038D01*
X160736038Y-135424729D01*
X160980631Y-135058669D01*
X161149110Y-134651925D01*
X161235000Y-134220128D01*
X161235000Y-133779872D01*
X161149110Y-133348075D01*
X160980631Y-132941331D01*
X160736038Y-132575271D01*
X160424729Y-132263962D01*
X160058669Y-132019369D01*
X159651925Y-131850890D01*
X159220128Y-131765000D01*
X158779872Y-131765000D01*
X158348075Y-131850890D01*
X157941331Y-132019369D01*
X157575271Y-132263962D01*
X157263962Y-132575271D01*
X157019369Y-132941331D01*
X156850890Y-133348075D01*
X156765000Y-133779872D01*
X144662110Y-133779872D01*
X144500163Y-133537502D01*
X144258498Y-133295837D01*
X143974331Y-133105963D01*
X143658581Y-132975175D01*
X143323383Y-132908500D01*
X142981617Y-132908500D01*
X142646419Y-132975175D01*
X142330669Y-133105963D01*
X142046502Y-133295837D01*
X141804837Y-133537502D01*
X141614963Y-133821669D01*
X141484175Y-134137419D01*
X141417500Y-134472617D01*
X139887500Y-134472617D01*
X139820825Y-134137419D01*
X139690037Y-133821669D01*
X139500163Y-133537502D01*
X139258498Y-133295837D01*
X138974331Y-133105963D01*
X138658581Y-132975175D01*
X138323383Y-132908500D01*
X137981617Y-132908500D01*
X137646419Y-132975175D01*
X137330669Y-133105963D01*
X137046502Y-133295837D01*
X136804837Y-133537502D01*
X136614963Y-133821669D01*
X136484175Y-134137419D01*
X136417500Y-134472617D01*
X113184776Y-134472617D01*
X113235000Y-134220128D01*
X113235000Y-133779872D01*
X113149110Y-133348075D01*
X112980631Y-132941331D01*
X112736038Y-132575271D01*
X112424729Y-132263962D01*
X112058669Y-132019369D01*
X111812736Y-131917500D01*
X126677928Y-131917500D01*
X126690188Y-132041982D01*
X126726498Y-132161680D01*
X126785463Y-132271994D01*
X126864815Y-132368685D01*
X126961506Y-132448037D01*
X127071820Y-132507002D01*
X127191518Y-132543312D01*
X127316000Y-132555572D01*
X127730250Y-132552500D01*
X127889000Y-132393750D01*
X127889000Y-131557000D01*
X128143000Y-131557000D01*
X128143000Y-132393750D01*
X128301750Y-132552500D01*
X128716000Y-132555572D01*
X128840482Y-132543312D01*
X128960180Y-132507002D01*
X129070494Y-132448037D01*
X129167185Y-132368685D01*
X129246537Y-132271994D01*
X129305502Y-132161680D01*
X129341812Y-132041982D01*
X129354072Y-131917500D01*
X129351000Y-131715750D01*
X129192250Y-131557000D01*
X128143000Y-131557000D01*
X127889000Y-131557000D01*
X126839750Y-131557000D01*
X126681000Y-131715750D01*
X126677928Y-131917500D01*
X111812736Y-131917500D01*
X111651925Y-131850890D01*
X111220128Y-131765000D01*
X110779872Y-131765000D01*
X110348075Y-131850890D01*
X109941331Y-132019369D01*
X109575271Y-132263962D01*
X109263962Y-132575271D01*
X109019369Y-132941331D01*
X108850890Y-133348075D01*
X108765000Y-133779872D01*
X105660000Y-133779872D01*
X105660000Y-121564061D01*
X108312000Y-121564061D01*
X108312000Y-121767939D01*
X108351774Y-121967898D01*
X108429795Y-122156256D01*
X108543063Y-122325774D01*
X108587001Y-122369712D01*
X108587000Y-123724177D01*
X108583324Y-123761500D01*
X108587000Y-123798822D01*
X108587000Y-123798832D01*
X108597997Y-123910485D01*
X108619768Y-123982254D01*
X108641454Y-124053746D01*
X108712026Y-124185776D01*
X108749346Y-124231250D01*
X108806999Y-124301501D01*
X108836003Y-124325304D01*
X111244701Y-126734003D01*
X111268499Y-126763001D01*
X111384224Y-126857974D01*
X111516253Y-126928546D01*
X111659514Y-126972003D01*
X111771167Y-126983000D01*
X111771175Y-126983000D01*
X111808500Y-126986676D01*
X111845825Y-126983000D01*
X114592655Y-126983000D01*
X114680708Y-127090292D01*
X114814336Y-127199958D01*
X114966791Y-127281447D01*
X115132215Y-127331628D01*
X115304250Y-127348572D01*
X116216750Y-127348572D01*
X116388785Y-127331628D01*
X116554209Y-127281447D01*
X116706664Y-127199958D01*
X116840292Y-127090292D01*
X116949958Y-126956664D01*
X117013652Y-126837500D01*
X119248428Y-126837500D01*
X119260688Y-126961982D01*
X119296998Y-127081680D01*
X119355963Y-127191994D01*
X119435315Y-127288685D01*
X119532006Y-127368037D01*
X119642320Y-127427002D01*
X119762018Y-127463312D01*
X119886500Y-127475572D01*
X120300750Y-127472500D01*
X120459500Y-127313750D01*
X120459500Y-126477000D01*
X120713500Y-126477000D01*
X120713500Y-127313750D01*
X120872250Y-127472500D01*
X121286500Y-127475572D01*
X121410982Y-127463312D01*
X121530680Y-127427002D01*
X121640994Y-127368037D01*
X121737685Y-127288685D01*
X121817037Y-127191994D01*
X121876002Y-127081680D01*
X121912312Y-126961982D01*
X121924572Y-126837500D01*
X121921500Y-126635750D01*
X121762750Y-126477000D01*
X120713500Y-126477000D01*
X120459500Y-126477000D01*
X119410250Y-126477000D01*
X119251500Y-126635750D01*
X119248428Y-126837500D01*
X117013652Y-126837500D01*
X117031447Y-126804209D01*
X117081628Y-126638785D01*
X117098572Y-126466750D01*
X117098572Y-125979250D01*
X117081628Y-125807215D01*
X117031447Y-125641791D01*
X116949958Y-125489336D01*
X116840292Y-125355708D01*
X116754744Y-125285500D01*
X116816278Y-125235000D01*
X119418655Y-125235000D01*
X119506708Y-125342292D01*
X119513064Y-125347508D01*
X119435315Y-125411315D01*
X119355963Y-125508006D01*
X119296998Y-125618320D01*
X119260688Y-125738018D01*
X119248428Y-125862500D01*
X119251500Y-126064250D01*
X119410250Y-126223000D01*
X120459500Y-126223000D01*
X120459500Y-126203000D01*
X120713500Y-126203000D01*
X120713500Y-126223000D01*
X121762750Y-126223000D01*
X121921500Y-126064250D01*
X121924572Y-125862500D01*
X121912312Y-125738018D01*
X121876002Y-125618320D01*
X121817037Y-125508006D01*
X121737685Y-125411315D01*
X121659936Y-125347508D01*
X121666292Y-125342292D01*
X121775958Y-125208664D01*
X121857447Y-125056209D01*
X121907628Y-124890785D01*
X121924572Y-124718750D01*
X121924572Y-124231250D01*
X121907628Y-124059215D01*
X121857447Y-123893791D01*
X121775958Y-123741336D01*
X121666292Y-123607708D01*
X121532664Y-123498042D01*
X121380209Y-123416553D01*
X121214785Y-123366372D01*
X121042750Y-123349428D01*
X120130250Y-123349428D01*
X119958215Y-123366372D01*
X119792791Y-123416553D01*
X119640336Y-123498042D01*
X119506708Y-123607708D01*
X119418655Y-123715000D01*
X117003764Y-123715000D01*
X116949958Y-123614336D01*
X116840292Y-123480708D01*
X116706664Y-123371042D01*
X116554209Y-123289553D01*
X116388785Y-123239372D01*
X116216750Y-123222428D01*
X115304250Y-123222428D01*
X115132215Y-123239372D01*
X114966791Y-123289553D01*
X114814336Y-123371042D01*
X114680708Y-123480708D01*
X114571042Y-123614336D01*
X114489553Y-123766791D01*
X114439372Y-123932215D01*
X114422428Y-124104250D01*
X114422428Y-124591750D01*
X114439372Y-124763785D01*
X114489553Y-124929209D01*
X114571042Y-125081664D01*
X114680708Y-125215292D01*
X114766256Y-125285500D01*
X114680708Y-125355708D01*
X114592655Y-125463000D01*
X112123302Y-125463000D01*
X110107000Y-123446699D01*
X110107000Y-122369711D01*
X110150937Y-122325774D01*
X110264205Y-122156256D01*
X110342226Y-121967898D01*
X110382000Y-121767939D01*
X110382000Y-121564061D01*
X110342226Y-121364102D01*
X110264205Y-121175744D01*
X110150937Y-121006226D01*
X110107000Y-120962289D01*
X110107000Y-120012301D01*
X110911301Y-119208000D01*
X112234428Y-119208000D01*
X112246688Y-119332482D01*
X112282998Y-119452180D01*
X112341963Y-119562494D01*
X112421315Y-119659185D01*
X112518006Y-119738537D01*
X112628320Y-119797502D01*
X112748018Y-119833812D01*
X112872500Y-119846072D01*
X113061750Y-119843000D01*
X113220500Y-119684250D01*
X113220500Y-118897500D01*
X113474500Y-118897500D01*
X113474500Y-119684250D01*
X113633250Y-119843000D01*
X113822500Y-119846072D01*
X113946982Y-119833812D01*
X114066680Y-119797502D01*
X114176994Y-119738537D01*
X114273685Y-119659185D01*
X114353037Y-119562494D01*
X114412002Y-119452180D01*
X114448312Y-119332482D01*
X114460572Y-119208000D01*
X115790428Y-119208000D01*
X115802688Y-119332482D01*
X115838998Y-119452180D01*
X115897963Y-119562494D01*
X115977315Y-119659185D01*
X116074006Y-119738537D01*
X116184320Y-119797502D01*
X116304018Y-119833812D01*
X116428500Y-119846072D01*
X116617750Y-119843000D01*
X116776500Y-119684250D01*
X116776500Y-118897500D01*
X117030500Y-118897500D01*
X117030500Y-119684250D01*
X117189250Y-119843000D01*
X117378500Y-119846072D01*
X117502982Y-119833812D01*
X117622680Y-119797502D01*
X117732994Y-119738537D01*
X117829685Y-119659185D01*
X117909037Y-119562494D01*
X117968002Y-119452180D01*
X118004312Y-119332482D01*
X118016572Y-119208000D01*
X119092428Y-119208000D01*
X119104688Y-119332482D01*
X119140998Y-119452180D01*
X119199963Y-119562494D01*
X119279315Y-119659185D01*
X119376006Y-119738537D01*
X119486320Y-119797502D01*
X119606018Y-119833812D01*
X119730500Y-119846072D01*
X119919750Y-119843000D01*
X120078500Y-119684250D01*
X120078500Y-118897500D01*
X120332500Y-118897500D01*
X120332500Y-119684250D01*
X120491250Y-119843000D01*
X120680500Y-119846072D01*
X120804982Y-119833812D01*
X120924680Y-119797502D01*
X121034994Y-119738537D01*
X121131685Y-119659185D01*
X121211037Y-119562494D01*
X121270002Y-119452180D01*
X121306312Y-119332482D01*
X121318572Y-119208000D01*
X121315500Y-119056250D01*
X121156750Y-118897500D01*
X120332500Y-118897500D01*
X120078500Y-118897500D01*
X119254250Y-118897500D01*
X119095500Y-119056250D01*
X119092428Y-119208000D01*
X118016572Y-119208000D01*
X118013500Y-119056250D01*
X117854750Y-118897500D01*
X117030500Y-118897500D01*
X116776500Y-118897500D01*
X115952250Y-118897500D01*
X115793500Y-119056250D01*
X115790428Y-119208000D01*
X114460572Y-119208000D01*
X114457500Y-119056250D01*
X114298750Y-118897500D01*
X113474500Y-118897500D01*
X113220500Y-118897500D01*
X112396250Y-118897500D01*
X112237500Y-119056250D01*
X112234428Y-119208000D01*
X110911301Y-119208000D01*
X112163802Y-117955500D01*
X112360843Y-117955500D01*
X112341963Y-117978506D01*
X112282998Y-118088820D01*
X112246688Y-118208518D01*
X112234428Y-118333000D01*
X112237500Y-118484750D01*
X112396250Y-118643500D01*
X113220500Y-118643500D01*
X113220500Y-118623500D01*
X113474500Y-118623500D01*
X113474500Y-118643500D01*
X114298750Y-118643500D01*
X114457500Y-118484750D01*
X114460572Y-118333000D01*
X114448312Y-118208518D01*
X114412002Y-118088820D01*
X114353037Y-117978506D01*
X114334157Y-117955500D01*
X115916843Y-117955500D01*
X115897963Y-117978506D01*
X115838998Y-118088820D01*
X115802688Y-118208518D01*
X115790428Y-118333000D01*
X115793500Y-118484750D01*
X115952250Y-118643500D01*
X116776500Y-118643500D01*
X116776500Y-118623500D01*
X117030500Y-118623500D01*
X117030500Y-118643500D01*
X117854750Y-118643500D01*
X118013500Y-118484750D01*
X118016572Y-118333000D01*
X118004312Y-118208518D01*
X117968002Y-118088820D01*
X117909037Y-117978506D01*
X117890157Y-117955500D01*
X119218843Y-117955500D01*
X119199963Y-117978506D01*
X119140998Y-118088820D01*
X119104688Y-118208518D01*
X119092428Y-118333000D01*
X119095500Y-118484750D01*
X119254250Y-118643500D01*
X120078500Y-118643500D01*
X120078500Y-118623500D01*
X120332500Y-118623500D01*
X120332500Y-118643500D01*
X121156750Y-118643500D01*
X121315500Y-118484750D01*
X121318572Y-118333000D01*
X121306312Y-118208518D01*
X121270002Y-118088820D01*
X121211037Y-117978506D01*
X121156400Y-117911930D01*
X121174171Y-117890275D01*
X121253350Y-117742142D01*
X121302108Y-117581408D01*
X121318572Y-117414250D01*
X121318572Y-116976750D01*
X121302108Y-116809592D01*
X121253350Y-116648858D01*
X121174171Y-116500725D01*
X121067615Y-116370885D01*
X120937775Y-116264329D01*
X120789642Y-116185150D01*
X120628908Y-116136392D01*
X120461750Y-116119928D01*
X119949250Y-116119928D01*
X119782092Y-116136392D01*
X119621358Y-116185150D01*
X119473225Y-116264329D01*
X119343385Y-116370885D01*
X119290357Y-116435500D01*
X117818643Y-116435500D01*
X117765615Y-116370885D01*
X117635775Y-116264329D01*
X117487642Y-116185150D01*
X117326908Y-116136392D01*
X117159750Y-116119928D01*
X116647250Y-116119928D01*
X116480092Y-116136392D01*
X116319358Y-116185150D01*
X116171225Y-116264329D01*
X116041385Y-116370885D01*
X115988357Y-116435500D01*
X114262643Y-116435500D01*
X114209615Y-116370885D01*
X114079775Y-116264329D01*
X113931642Y-116185150D01*
X113813664Y-116149362D01*
X112774000Y-115109699D01*
X112774000Y-112650000D01*
X113994485Y-112650000D01*
X114028467Y-112995020D01*
X114129105Y-113326781D01*
X114292534Y-113632534D01*
X114512471Y-113900529D01*
X114780466Y-114120466D01*
X115086219Y-114283895D01*
X115417980Y-114384533D01*
X115676547Y-114410000D01*
X118099453Y-114410000D01*
X118358020Y-114384533D01*
X118689781Y-114283895D01*
X118995534Y-114120466D01*
X119263529Y-113900529D01*
X119483466Y-113632534D01*
X119646895Y-113326781D01*
X119747533Y-112995020D01*
X119781515Y-112650000D01*
X119747533Y-112304980D01*
X119646895Y-111973219D01*
X119483466Y-111667466D01*
X119263529Y-111399471D01*
X118995534Y-111179534D01*
X118689781Y-111016105D01*
X118358020Y-110915467D01*
X118099453Y-110890000D01*
X115676547Y-110890000D01*
X115417980Y-110915467D01*
X115086219Y-111016105D01*
X114780466Y-111179534D01*
X114512471Y-111399471D01*
X114292534Y-111667466D01*
X114129105Y-111973219D01*
X114028467Y-112304980D01*
X113994485Y-112650000D01*
X112774000Y-112650000D01*
X112774000Y-111329217D01*
X113351706Y-110751511D01*
X113542980Y-110809533D01*
X113888000Y-110843515D01*
X114233019Y-110809533D01*
X114564780Y-110708895D01*
X114870533Y-110545466D01*
X115138529Y-110325529D01*
X115358466Y-110057534D01*
X115521895Y-109751781D01*
X115622533Y-109420020D01*
X115648000Y-109161453D01*
X115648000Y-106738547D01*
X115631695Y-106573000D01*
X118003000Y-106573000D01*
X118003000Y-107823000D01*
X118752951Y-107823000D01*
X118752950Y-108077000D01*
X118003000Y-108077000D01*
X118003000Y-109327000D01*
X118063996Y-109692305D01*
X118195088Y-110038691D01*
X118391237Y-110352847D01*
X118644906Y-110622699D01*
X118946347Y-110837878D01*
X119283975Y-110990114D01*
X119468355Y-111037695D01*
X119761000Y-110921572D01*
X119761000Y-110335050D01*
X120015000Y-110335050D01*
X120015000Y-110921572D01*
X120307645Y-111037695D01*
X120492025Y-110990114D01*
X120829653Y-110837878D01*
X121131094Y-110622699D01*
X121384763Y-110352847D01*
X121580912Y-110038691D01*
X121712004Y-109692305D01*
X121773000Y-109327000D01*
X121773000Y-108077000D01*
X121023050Y-108077000D01*
X121023050Y-107823000D01*
X121773000Y-107823000D01*
X121773000Y-106573000D01*
X121712004Y-106207695D01*
X121580912Y-105861309D01*
X121384763Y-105547153D01*
X121131094Y-105277301D01*
X120829653Y-105062122D01*
X120492025Y-104909886D01*
X120307645Y-104862305D01*
X120015000Y-104978428D01*
X120015000Y-105564950D01*
X119761000Y-105564950D01*
X119761000Y-104978428D01*
X119468355Y-104862305D01*
X119283975Y-104909886D01*
X118946347Y-105062122D01*
X118644906Y-105277301D01*
X118391237Y-105547153D01*
X118195088Y-105861309D01*
X118063996Y-106207695D01*
X118003000Y-106573000D01*
X115631695Y-106573000D01*
X115622533Y-106479980D01*
X115521895Y-106148219D01*
X115358466Y-105842466D01*
X115138529Y-105574471D01*
X114870534Y-105354534D01*
X114564781Y-105191105D01*
X114233020Y-105090467D01*
X113888000Y-105056485D01*
X113542981Y-105090467D01*
X113211220Y-105191105D01*
X112905467Y-105354534D01*
X112637472Y-105574471D01*
X112417535Y-105842466D01*
X112254106Y-106148219D01*
X112153468Y-106479980D01*
X112128001Y-106738547D01*
X112128000Y-109161452D01*
X112153467Y-109420019D01*
X112241939Y-109711675D01*
X111502998Y-110450617D01*
X111474000Y-110474415D01*
X111450202Y-110503413D01*
X111450201Y-110503414D01*
X111379026Y-110590140D01*
X111308454Y-110722170D01*
X111264998Y-110865431D01*
X111250324Y-111014416D01*
X111254001Y-111051748D01*
X111254000Y-115387177D01*
X111250324Y-115424500D01*
X111254000Y-115461822D01*
X111254000Y-115461832D01*
X111264997Y-115573485D01*
X111308454Y-115716746D01*
X111379026Y-115848776D01*
X111418871Y-115897326D01*
X111473999Y-115964501D01*
X111503003Y-115988304D01*
X111950199Y-116435500D01*
X111886322Y-116435500D01*
X111848999Y-116431824D01*
X111811676Y-116435500D01*
X111811667Y-116435500D01*
X111700014Y-116446497D01*
X111556753Y-116489954D01*
X111424724Y-116560526D01*
X111308999Y-116655499D01*
X111285201Y-116684497D01*
X108835998Y-119133701D01*
X108807000Y-119157499D01*
X108783202Y-119186497D01*
X108783201Y-119186498D01*
X108712026Y-119273224D01*
X108641454Y-119405254D01*
X108597998Y-119548515D01*
X108583324Y-119697500D01*
X108587001Y-119734832D01*
X108587000Y-120962289D01*
X108543063Y-121006226D01*
X108429795Y-121175744D01*
X108351774Y-121364102D01*
X108312000Y-121564061D01*
X105660000Y-121564061D01*
X105660000Y-79110000D01*
X110602928Y-79110000D01*
X110602928Y-80910000D01*
X110615188Y-81034482D01*
X110651498Y-81154180D01*
X110710463Y-81264494D01*
X110789815Y-81361185D01*
X110886506Y-81440537D01*
X110996820Y-81499502D01*
X111116518Y-81535812D01*
X111241000Y-81548072D01*
X113041000Y-81548072D01*
X113165482Y-81535812D01*
X113285180Y-81499502D01*
X113395494Y-81440537D01*
X113492185Y-81361185D01*
X113571537Y-81264494D01*
X113630502Y-81154180D01*
X113666812Y-81034482D01*
X113679072Y-80910000D01*
X113679072Y-79110000D01*
X113666812Y-78985518D01*
X113630502Y-78865820D01*
X113571537Y-78755506D01*
X113492185Y-78658815D01*
X113395494Y-78579463D01*
X113285180Y-78520498D01*
X113266873Y-78514944D01*
X113333312Y-78448505D01*
X113479313Y-78230000D01*
X118162660Y-78230000D01*
X118190542Y-78282164D01*
X118300208Y-78415792D01*
X118385756Y-78486000D01*
X118300208Y-78556208D01*
X118190542Y-78689836D01*
X118109053Y-78842291D01*
X118058872Y-79007715D01*
X118041928Y-79179750D01*
X118041928Y-79667250D01*
X118058872Y-79839285D01*
X118109053Y-80004709D01*
X118190542Y-80157164D01*
X118300208Y-80290792D01*
X118433836Y-80400458D01*
X118586291Y-80481947D01*
X118751715Y-80532128D01*
X118923750Y-80549072D01*
X119430771Y-80549072D01*
X122176000Y-83294303D01*
X122176001Y-89243668D01*
X122172324Y-89281000D01*
X122186998Y-89429985D01*
X122230454Y-89573246D01*
X122301026Y-89705276D01*
X122372201Y-89792002D01*
X122396000Y-89821001D01*
X122424998Y-89844799D01*
X128141312Y-95561114D01*
X128105000Y-95743665D01*
X128105000Y-95915198D01*
X120402012Y-88212211D01*
X120459792Y-88164792D01*
X120569458Y-88031164D01*
X120650947Y-87878709D01*
X120701128Y-87713285D01*
X120718072Y-87541250D01*
X120718072Y-87053750D01*
X120701128Y-86881715D01*
X120650947Y-86716291D01*
X120569458Y-86563836D01*
X120459792Y-86430208D01*
X120374244Y-86360000D01*
X120459792Y-86289792D01*
X120569458Y-86156164D01*
X120650947Y-86003709D01*
X120701128Y-85838285D01*
X120718072Y-85666250D01*
X120718072Y-85178750D01*
X120701128Y-85006715D01*
X120650947Y-84841291D01*
X120569458Y-84688836D01*
X120459792Y-84555208D01*
X120326164Y-84445542D01*
X120173709Y-84364053D01*
X120008285Y-84313872D01*
X119836250Y-84296928D01*
X118923750Y-84296928D01*
X118751715Y-84313872D01*
X118586291Y-84364053D01*
X118433836Y-84445542D01*
X118300208Y-84555208D01*
X118276579Y-84584000D01*
X113479313Y-84584000D01*
X113333312Y-84365495D01*
X113119505Y-84151688D01*
X112868095Y-83983701D01*
X112588743Y-83867989D01*
X112292184Y-83809000D01*
X111989816Y-83809000D01*
X111693257Y-83867989D01*
X111413905Y-83983701D01*
X111162495Y-84151688D01*
X110948688Y-84365495D01*
X110780701Y-84616905D01*
X110664989Y-84896257D01*
X110606000Y-85192816D01*
X110606000Y-85495184D01*
X110664989Y-85791743D01*
X110780701Y-86071095D01*
X110948688Y-86322505D01*
X111015127Y-86388944D01*
X110996820Y-86394498D01*
X110886506Y-86453463D01*
X110789815Y-86532815D01*
X110710463Y-86629506D01*
X110651498Y-86739820D01*
X110615188Y-86859518D01*
X110602928Y-86984000D01*
X110602928Y-88784000D01*
X110615188Y-88908482D01*
X110651498Y-89028180D01*
X110710463Y-89138494D01*
X110789815Y-89235185D01*
X110886506Y-89314537D01*
X110996820Y-89373502D01*
X111116518Y-89409812D01*
X111241000Y-89422072D01*
X113041000Y-89422072D01*
X113165482Y-89409812D01*
X113285180Y-89373502D01*
X113395494Y-89314537D01*
X113492185Y-89235185D01*
X113571537Y-89138494D01*
X113630502Y-89028180D01*
X113666812Y-88908482D01*
X113679072Y-88784000D01*
X113679072Y-86984000D01*
X113666812Y-86859518D01*
X113630502Y-86739820D01*
X113571537Y-86629506D01*
X113492185Y-86532815D01*
X113395494Y-86453463D01*
X113285180Y-86394498D01*
X113266873Y-86388944D01*
X113333312Y-86322505D01*
X113479313Y-86104000D01*
X118162660Y-86104000D01*
X118190542Y-86156164D01*
X118300208Y-86289792D01*
X118385756Y-86360000D01*
X118300208Y-86430208D01*
X118190542Y-86563836D01*
X118109053Y-86716291D01*
X118058872Y-86881715D01*
X118041928Y-87053750D01*
X118041928Y-87541250D01*
X118058872Y-87713285D01*
X118109053Y-87878709D01*
X118190542Y-88031164D01*
X118300208Y-88164792D01*
X118433836Y-88274458D01*
X118586291Y-88355947D01*
X118626482Y-88368139D01*
X118630245Y-88406335D01*
X118630998Y-88413985D01*
X118674454Y-88557246D01*
X118745026Y-88689276D01*
X118816201Y-88776002D01*
X118840000Y-88805001D01*
X118868998Y-88828799D01*
X128141312Y-98101114D01*
X128105000Y-98283665D01*
X128105000Y-98455198D01*
X124437304Y-94787503D01*
X124413501Y-94758499D01*
X124297776Y-94663526D01*
X124165747Y-94592954D01*
X124022486Y-94549497D01*
X123910833Y-94538500D01*
X123910822Y-94538500D01*
X123873500Y-94534824D01*
X123836178Y-94538500D01*
X120547845Y-94538500D01*
X120459792Y-94431208D01*
X120374244Y-94361000D01*
X120459792Y-94290792D01*
X120569458Y-94157164D01*
X120650947Y-94004709D01*
X120701128Y-93839285D01*
X120718072Y-93667250D01*
X120718072Y-93179750D01*
X120701128Y-93007715D01*
X120650947Y-92842291D01*
X120569458Y-92689836D01*
X120459792Y-92556208D01*
X120326164Y-92446542D01*
X120173709Y-92365053D01*
X120008285Y-92314872D01*
X119836250Y-92297928D01*
X118923750Y-92297928D01*
X118751715Y-92314872D01*
X118586291Y-92365053D01*
X118433836Y-92446542D01*
X118419874Y-92458000D01*
X113479313Y-92458000D01*
X113333312Y-92239495D01*
X113119505Y-92025688D01*
X112868095Y-91857701D01*
X112588743Y-91741989D01*
X112292184Y-91683000D01*
X111989816Y-91683000D01*
X111693257Y-91741989D01*
X111413905Y-91857701D01*
X111162495Y-92025688D01*
X110948688Y-92239495D01*
X110780701Y-92490905D01*
X110664989Y-92770257D01*
X110606000Y-93066816D01*
X110606000Y-93369184D01*
X110664989Y-93665743D01*
X110780701Y-93945095D01*
X110948688Y-94196505D01*
X111015127Y-94262944D01*
X110996820Y-94268498D01*
X110886506Y-94327463D01*
X110789815Y-94406815D01*
X110710463Y-94503506D01*
X110651498Y-94613820D01*
X110615188Y-94733518D01*
X110602928Y-94858000D01*
X110602928Y-96658000D01*
X110615188Y-96782482D01*
X110651498Y-96902180D01*
X110710463Y-97012494D01*
X110789815Y-97109185D01*
X110886506Y-97188537D01*
X110996820Y-97247502D01*
X111116518Y-97283812D01*
X111241000Y-97296072D01*
X113041000Y-97296072D01*
X113165482Y-97283812D01*
X113285180Y-97247502D01*
X113395494Y-97188537D01*
X113492185Y-97109185D01*
X113571537Y-97012494D01*
X113630502Y-96902180D01*
X113666812Y-96782482D01*
X113679072Y-96658000D01*
X113679072Y-94858000D01*
X113666812Y-94733518D01*
X113630502Y-94613820D01*
X113571537Y-94503506D01*
X113492185Y-94406815D01*
X113395494Y-94327463D01*
X113285180Y-94268498D01*
X113266873Y-94262944D01*
X113333312Y-94196505D01*
X113479313Y-93978000D01*
X118100951Y-93978000D01*
X118109053Y-94004709D01*
X118190542Y-94157164D01*
X118300208Y-94290792D01*
X118385756Y-94361000D01*
X118300208Y-94431208D01*
X118190542Y-94564836D01*
X118109053Y-94717291D01*
X118058872Y-94882715D01*
X118041928Y-95054750D01*
X118041928Y-95542250D01*
X118058872Y-95714285D01*
X118109053Y-95879709D01*
X118190542Y-96032164D01*
X118300208Y-96165792D01*
X118433836Y-96275458D01*
X118586291Y-96356947D01*
X118751715Y-96407128D01*
X118923750Y-96424072D01*
X119836250Y-96424072D01*
X120008285Y-96407128D01*
X120173709Y-96356947D01*
X120326164Y-96275458D01*
X120459792Y-96165792D01*
X120547845Y-96058500D01*
X123558699Y-96058500D01*
X128141312Y-100641114D01*
X128105000Y-100823665D01*
X128105000Y-101106335D01*
X128160147Y-101383574D01*
X128268320Y-101644727D01*
X128425363Y-101879759D01*
X128625241Y-102079637D01*
X128857759Y-102235000D01*
X128625241Y-102390363D01*
X128425363Y-102590241D01*
X128268320Y-102825273D01*
X128160147Y-103086426D01*
X128105000Y-103363665D01*
X128105000Y-103646335D01*
X128160147Y-103923574D01*
X128268320Y-104184727D01*
X128425363Y-104419759D01*
X128625241Y-104619637D01*
X128857759Y-104775000D01*
X128625241Y-104930363D01*
X128425363Y-105130241D01*
X128268320Y-105365273D01*
X128160147Y-105626426D01*
X128105000Y-105903665D01*
X128105000Y-106186335D01*
X128160147Y-106463574D01*
X128268320Y-106724727D01*
X128425363Y-106959759D01*
X128625241Y-107159637D01*
X128857759Y-107315000D01*
X128625241Y-107470363D01*
X128425363Y-107670241D01*
X128268320Y-107905273D01*
X128160147Y-108166426D01*
X128105000Y-108443665D01*
X128105000Y-108726335D01*
X128160147Y-109003574D01*
X128268320Y-109264727D01*
X128425363Y-109499759D01*
X128625241Y-109699637D01*
X128857759Y-109855000D01*
X128625241Y-110010363D01*
X128425363Y-110210241D01*
X128268320Y-110445273D01*
X128160147Y-110706426D01*
X128105000Y-110983665D01*
X128105000Y-111266335D01*
X128160147Y-111543574D01*
X128268320Y-111804727D01*
X128425363Y-112039759D01*
X128625241Y-112239637D01*
X128857759Y-112395000D01*
X128625241Y-112550363D01*
X128425363Y-112750241D01*
X128268320Y-112985273D01*
X128160147Y-113246426D01*
X128105000Y-113523665D01*
X128105000Y-113806335D01*
X128160147Y-114083574D01*
X128268320Y-114344727D01*
X128425363Y-114579759D01*
X128625241Y-114779637D01*
X128857759Y-114935000D01*
X128625241Y-115090363D01*
X128425363Y-115290241D01*
X128268320Y-115525273D01*
X128160147Y-115786426D01*
X128105000Y-116063665D01*
X128105000Y-116346335D01*
X128160147Y-116623574D01*
X128268320Y-116884727D01*
X128425363Y-117119759D01*
X128625241Y-117319637D01*
X128857759Y-117475000D01*
X128625241Y-117630363D01*
X128425363Y-117830241D01*
X128268320Y-118065273D01*
X128160147Y-118326426D01*
X128105000Y-118603665D01*
X128105000Y-118886335D01*
X128160147Y-119163574D01*
X128268320Y-119424727D01*
X128425363Y-119659759D01*
X128623961Y-119858357D01*
X128615518Y-119859188D01*
X128495820Y-119895498D01*
X128385506Y-119954463D01*
X128288815Y-120033815D01*
X128209463Y-120130506D01*
X128150498Y-120240820D01*
X128114188Y-120360518D01*
X128101928Y-120485000D01*
X128101928Y-122085000D01*
X128114188Y-122209482D01*
X128150498Y-122329180D01*
X128209463Y-122439494D01*
X128288815Y-122536185D01*
X128385506Y-122615537D01*
X128495820Y-122674502D01*
X128615518Y-122710812D01*
X128740000Y-122723072D01*
X130340000Y-122723072D01*
X130464482Y-122710812D01*
X130584180Y-122674502D01*
X130694494Y-122615537D01*
X130791185Y-122536185D01*
X130870537Y-122439494D01*
X130929502Y-122329180D01*
X130965812Y-122209482D01*
X130978072Y-122085000D01*
X130978072Y-120485000D01*
X130965812Y-120360518D01*
X130929502Y-120240820D01*
X130870537Y-120130506D01*
X130791185Y-120033815D01*
X130694494Y-119954463D01*
X130584180Y-119895498D01*
X130464482Y-119859188D01*
X130456039Y-119858357D01*
X130654637Y-119659759D01*
X130811680Y-119424727D01*
X130919853Y-119163574D01*
X130975000Y-118886335D01*
X130975000Y-118603665D01*
X130919853Y-118326426D01*
X130811680Y-118065273D01*
X130654637Y-117830241D01*
X130454759Y-117630363D01*
X130222241Y-117475000D01*
X130454759Y-117319637D01*
X130654637Y-117119759D01*
X130811680Y-116884727D01*
X130919853Y-116623574D01*
X130975000Y-116346335D01*
X130975000Y-116063665D01*
X130919853Y-115786426D01*
X130811680Y-115525273D01*
X130654637Y-115290241D01*
X130454759Y-115090363D01*
X130222241Y-114935000D01*
X130454759Y-114779637D01*
X130654637Y-114579759D01*
X130811680Y-114344727D01*
X130919853Y-114083574D01*
X130975000Y-113806335D01*
X130975000Y-113634802D01*
X132018500Y-114678302D01*
X132018501Y-128849977D01*
X129233506Y-128873811D01*
X129205458Y-128821336D01*
X129095792Y-128687708D01*
X128962164Y-128578042D01*
X128809709Y-128496553D01*
X128644285Y-128446372D01*
X128472250Y-128429428D01*
X127559750Y-128429428D01*
X127387715Y-128446372D01*
X127222291Y-128496553D01*
X127069836Y-128578042D01*
X126936208Y-128687708D01*
X126826542Y-128821336D01*
X126745053Y-128973791D01*
X126694872Y-129139215D01*
X126677928Y-129311250D01*
X126677928Y-129798750D01*
X126694872Y-129970785D01*
X126745053Y-130136209D01*
X126826542Y-130288664D01*
X126936208Y-130422292D01*
X126942564Y-130427508D01*
X126864815Y-130491315D01*
X126785463Y-130588006D01*
X126726498Y-130698320D01*
X126690188Y-130818018D01*
X126677928Y-130942500D01*
X126681000Y-131144250D01*
X126839750Y-131303000D01*
X127889000Y-131303000D01*
X127889000Y-131283000D01*
X128143000Y-131283000D01*
X128143000Y-131303000D01*
X129192250Y-131303000D01*
X129351000Y-131144250D01*
X129354072Y-130942500D01*
X129341812Y-130818018D01*
X129305502Y-130698320D01*
X129246537Y-130588006D01*
X129167185Y-130491315D01*
X129089436Y-130427508D01*
X129095792Y-130422292D01*
X129118312Y-130394851D01*
X132744405Y-130363819D01*
X132778500Y-130367177D01*
X132813012Y-130363778D01*
X136584526Y-130391850D01*
X136614963Y-130465331D01*
X136804837Y-130749498D01*
X137046502Y-130991163D01*
X137330669Y-131181037D01*
X137646419Y-131311825D01*
X137981617Y-131378500D01*
X138323383Y-131378500D01*
X138658581Y-131311825D01*
X138974331Y-131181037D01*
X139258498Y-130991163D01*
X139500163Y-130749498D01*
X139690037Y-130465331D01*
X139820825Y-130149581D01*
X139887500Y-129814383D01*
X139887500Y-129472617D01*
X141417500Y-129472617D01*
X141417500Y-129814383D01*
X141484175Y-130149581D01*
X141614963Y-130465331D01*
X141804837Y-130749498D01*
X142046502Y-130991163D01*
X142330669Y-131181037D01*
X142646419Y-131311825D01*
X142981617Y-131378500D01*
X143323383Y-131378500D01*
X143658581Y-131311825D01*
X143974331Y-131181037D01*
X144258498Y-130991163D01*
X144500163Y-130749498D01*
X144690037Y-130465331D01*
X144820825Y-130149581D01*
X144887500Y-129814383D01*
X144887500Y-129472617D01*
X144820825Y-129137419D01*
X144690037Y-128821669D01*
X144500163Y-128537502D01*
X144258498Y-128295837D01*
X143974331Y-128105963D01*
X143658581Y-127975175D01*
X143323383Y-127908500D01*
X142981617Y-127908500D01*
X142646419Y-127975175D01*
X142330669Y-128105963D01*
X142046502Y-128295837D01*
X141804837Y-128537502D01*
X141614963Y-128821669D01*
X141484175Y-129137419D01*
X141417500Y-129472617D01*
X139887500Y-129472617D01*
X139820825Y-129137419D01*
X139690037Y-128821669D01*
X139500163Y-128537502D01*
X139258498Y-128295837D01*
X138974331Y-128105963D01*
X138658581Y-127975175D01*
X138323383Y-127908500D01*
X137981617Y-127908500D01*
X137646419Y-127975175D01*
X137330669Y-128105963D01*
X137046502Y-128295837D01*
X136804837Y-128537502D01*
X136614963Y-128821669D01*
X136594165Y-128871880D01*
X133538500Y-128849137D01*
X133538500Y-121634039D01*
X143388096Y-121634039D01*
X143428754Y-121768087D01*
X143548963Y-122022420D01*
X143716481Y-122248414D01*
X143924869Y-122437385D01*
X144166119Y-122582070D01*
X144430960Y-122676909D01*
X144653000Y-122555624D01*
X144653000Y-121412000D01*
X144907000Y-121412000D01*
X144907000Y-122555624D01*
X145129040Y-122676909D01*
X145393881Y-122582070D01*
X145635131Y-122437385D01*
X145843519Y-122248414D01*
X146011037Y-122022420D01*
X146131246Y-121768087D01*
X146171904Y-121634039D01*
X146049915Y-121412000D01*
X144907000Y-121412000D01*
X144653000Y-121412000D01*
X143510085Y-121412000D01*
X143388096Y-121634039D01*
X133538500Y-121634039D01*
X133538500Y-114400833D01*
X133542177Y-114363500D01*
X133527503Y-114214514D01*
X133484046Y-114071253D01*
X133413474Y-113939224D01*
X133342299Y-113852497D01*
X133318501Y-113823499D01*
X133289504Y-113799702D01*
X130938688Y-111448886D01*
X130975000Y-111266335D01*
X130975000Y-110983665D01*
X130919853Y-110706426D01*
X130811680Y-110445273D01*
X130654637Y-110210241D01*
X130454759Y-110010363D01*
X130222241Y-109855000D01*
X130454759Y-109699637D01*
X130654637Y-109499759D01*
X130811680Y-109264727D01*
X130919853Y-109003574D01*
X130975000Y-108726335D01*
X130975000Y-108443665D01*
X130919853Y-108166426D01*
X130811680Y-107905273D01*
X130654637Y-107670241D01*
X130454759Y-107470363D01*
X130222241Y-107315000D01*
X130454759Y-107159637D01*
X130654637Y-106959759D01*
X130761519Y-106799798D01*
X130820356Y-106794003D01*
X130963617Y-106750546D01*
X131095646Y-106679974D01*
X131211371Y-106585001D01*
X131235174Y-106555997D01*
X134496009Y-103295164D01*
X134525001Y-103271371D01*
X134548795Y-103242378D01*
X134548799Y-103242374D01*
X134619973Y-103155647D01*
X134619974Y-103155646D01*
X134690546Y-103023617D01*
X134734003Y-102880356D01*
X134745000Y-102768703D01*
X134745000Y-102768694D01*
X134748676Y-102731371D01*
X134745000Y-102694048D01*
X134745000Y-82762823D01*
X134748676Y-82725500D01*
X134745000Y-82688177D01*
X134745000Y-82688167D01*
X134734003Y-82576514D01*
X134690546Y-82433253D01*
X134619974Y-82301224D01*
X134525001Y-82185499D01*
X134496003Y-82161701D01*
X128375816Y-76041514D01*
X133920000Y-76041514D01*
X133920000Y-76304486D01*
X133971304Y-76562405D01*
X134071939Y-76805359D01*
X134218038Y-77024013D01*
X134403987Y-77209962D01*
X134622641Y-77356061D01*
X134865595Y-77456696D01*
X135123514Y-77508000D01*
X135386486Y-77508000D01*
X135644405Y-77456696D01*
X135887359Y-77356061D01*
X136106013Y-77209962D01*
X136291962Y-77024013D01*
X136352775Y-76933000D01*
X138834524Y-76933000D01*
X138871113Y-76987759D01*
X139070991Y-77187637D01*
X139225750Y-77291043D01*
X139225751Y-96133417D01*
X139222074Y-96170750D01*
X139236748Y-96319735D01*
X139280204Y-96462996D01*
X139350776Y-96595026D01*
X139394806Y-96648676D01*
X139445750Y-96710751D01*
X139474748Y-96734549D01*
X143381312Y-100641114D01*
X143345000Y-100823665D01*
X143345000Y-101106335D01*
X143400147Y-101383574D01*
X143508320Y-101644727D01*
X143665363Y-101879759D01*
X143865241Y-102079637D01*
X144097759Y-102235000D01*
X143865241Y-102390363D01*
X143665363Y-102590241D01*
X143508320Y-102825273D01*
X143400147Y-103086426D01*
X143345000Y-103363665D01*
X143345000Y-103646335D01*
X143400147Y-103923574D01*
X143508320Y-104184727D01*
X143665363Y-104419759D01*
X143865241Y-104619637D01*
X144097759Y-104775000D01*
X143865241Y-104930363D01*
X143665363Y-105130241D01*
X143508320Y-105365273D01*
X143400147Y-105626426D01*
X143345000Y-105903665D01*
X143345000Y-106186335D01*
X143400147Y-106463574D01*
X143508320Y-106724727D01*
X143665363Y-106959759D01*
X143865241Y-107159637D01*
X144097759Y-107315000D01*
X143865241Y-107470363D01*
X143665363Y-107670241D01*
X143508320Y-107905273D01*
X143400147Y-108166426D01*
X143345000Y-108443665D01*
X143345000Y-108726335D01*
X143400147Y-109003574D01*
X143508320Y-109264727D01*
X143665363Y-109499759D01*
X143865241Y-109699637D01*
X144097759Y-109855000D01*
X143865241Y-110010363D01*
X143665363Y-110210241D01*
X143508320Y-110445273D01*
X143400147Y-110706426D01*
X143345000Y-110983665D01*
X143345000Y-111266335D01*
X143400147Y-111543574D01*
X143508320Y-111804727D01*
X143665363Y-112039759D01*
X143865241Y-112239637D01*
X144097759Y-112395000D01*
X143865241Y-112550363D01*
X143665363Y-112750241D01*
X143508320Y-112985273D01*
X143400147Y-113246426D01*
X143345000Y-113523665D01*
X143345000Y-113806335D01*
X143400147Y-114083574D01*
X143508320Y-114344727D01*
X143665363Y-114579759D01*
X143865241Y-114779637D01*
X144097759Y-114935000D01*
X143865241Y-115090363D01*
X143665363Y-115290241D01*
X143508320Y-115525273D01*
X143400147Y-115786426D01*
X143345000Y-116063665D01*
X143345000Y-116346335D01*
X143400147Y-116623574D01*
X143508320Y-116884727D01*
X143665363Y-117119759D01*
X143865241Y-117319637D01*
X144097759Y-117475000D01*
X143865241Y-117630363D01*
X143665363Y-117830241D01*
X143508320Y-118065273D01*
X143400147Y-118326426D01*
X143345000Y-118603665D01*
X143345000Y-118886335D01*
X143400147Y-119163574D01*
X143508320Y-119424727D01*
X143665363Y-119659759D01*
X143865241Y-119859637D01*
X144100273Y-120016680D01*
X144110865Y-120021067D01*
X143924869Y-120132615D01*
X143716481Y-120321586D01*
X143548963Y-120547580D01*
X143428754Y-120801913D01*
X143388096Y-120935961D01*
X143510085Y-121158000D01*
X144653000Y-121158000D01*
X144653000Y-121138000D01*
X144907000Y-121138000D01*
X144907000Y-121158000D01*
X146049915Y-121158000D01*
X146171904Y-120935961D01*
X146131246Y-120801913D01*
X146011037Y-120547580D01*
X145843519Y-120321586D01*
X145635131Y-120132615D01*
X145449135Y-120021067D01*
X145459727Y-120016680D01*
X145694759Y-119859637D01*
X145894637Y-119659759D01*
X146051680Y-119424727D01*
X146159853Y-119163574D01*
X146215000Y-118886335D01*
X146215000Y-118603665D01*
X146159853Y-118326426D01*
X146051680Y-118065273D01*
X145894637Y-117830241D01*
X145694759Y-117630363D01*
X145462241Y-117475000D01*
X145694759Y-117319637D01*
X145894637Y-117119759D01*
X146051680Y-116884727D01*
X146159853Y-116623574D01*
X146215000Y-116346335D01*
X146215000Y-116063665D01*
X146159853Y-115786426D01*
X146051680Y-115525273D01*
X145894637Y-115290241D01*
X145694759Y-115090363D01*
X145462241Y-114935000D01*
X145694759Y-114779637D01*
X145894637Y-114579759D01*
X145998043Y-114425000D01*
X146746199Y-114425000D01*
X156872738Y-124551540D01*
X156898686Y-124681990D01*
X157003995Y-124936227D01*
X157156880Y-125165035D01*
X157351465Y-125359620D01*
X157580273Y-125512505D01*
X157834510Y-125617814D01*
X158104408Y-125671500D01*
X158379592Y-125671500D01*
X158649490Y-125617814D01*
X158903727Y-125512505D01*
X159132535Y-125359620D01*
X159327120Y-125165035D01*
X159418383Y-125028451D01*
X159468616Y-125023503D01*
X159611877Y-124980046D01*
X159743906Y-124909474D01*
X159859631Y-124814501D01*
X159883434Y-124785497D01*
X162055004Y-122613928D01*
X162084001Y-122590131D01*
X162178974Y-122474406D01*
X162249546Y-122342377D01*
X162293003Y-122199116D01*
X162304000Y-122087463D01*
X162304000Y-122087454D01*
X162307676Y-122050131D01*
X162304000Y-122012808D01*
X162304000Y-108817822D01*
X162307676Y-108780499D01*
X162304000Y-108743176D01*
X162304000Y-108743167D01*
X162293003Y-108631514D01*
X162249546Y-108488253D01*
X162178974Y-108356224D01*
X162084001Y-108240499D01*
X162055003Y-108216701D01*
X159608372Y-105770071D01*
X159639000Y-105616092D01*
X159639000Y-105340908D01*
X159607542Y-105182759D01*
X162055004Y-102735298D01*
X162084001Y-102711501D01*
X162178974Y-102595776D01*
X162249546Y-102463747D01*
X162293003Y-102320486D01*
X162304000Y-102208833D01*
X162304000Y-102208823D01*
X162307676Y-102171500D01*
X162304000Y-102134177D01*
X162304000Y-89767822D01*
X162307676Y-89730499D01*
X162304000Y-89693176D01*
X162304000Y-89693167D01*
X162293003Y-89581514D01*
X162249546Y-89438253D01*
X162178974Y-89306224D01*
X162120674Y-89235185D01*
X162107799Y-89219496D01*
X162107795Y-89219492D01*
X162084001Y-89190499D01*
X162055008Y-89166705D01*
X159354372Y-86466070D01*
X159385000Y-86312092D01*
X159385000Y-86036908D01*
X159331314Y-85767010D01*
X159226005Y-85512773D01*
X159073120Y-85283965D01*
X158878535Y-85089380D01*
X158649727Y-84936495D01*
X158395490Y-84831186D01*
X158125592Y-84777500D01*
X157850408Y-84777500D01*
X157580510Y-84831186D01*
X157326273Y-84936495D01*
X157097465Y-85089380D01*
X156902880Y-85283965D01*
X156749995Y-85512773D01*
X156644686Y-85767010D01*
X156591000Y-86036908D01*
X156591000Y-86312092D01*
X156644686Y-86581990D01*
X156749995Y-86836227D01*
X156902880Y-87065035D01*
X157097465Y-87259620D01*
X157326273Y-87412505D01*
X157580510Y-87517814D01*
X157850408Y-87571500D01*
X158125592Y-87571500D01*
X158279570Y-87540872D01*
X160784001Y-90045304D01*
X160784000Y-101856698D01*
X158529400Y-104111299D01*
X158379592Y-104081500D01*
X158104408Y-104081500D01*
X157834510Y-104135186D01*
X157580273Y-104240495D01*
X157351465Y-104393380D01*
X157156880Y-104587965D01*
X157003995Y-104816773D01*
X156898686Y-105071010D01*
X156845000Y-105340908D01*
X156845000Y-105616092D01*
X156898686Y-105885990D01*
X157003995Y-106140227D01*
X157156880Y-106369035D01*
X157351465Y-106563620D01*
X157580273Y-106716505D01*
X157834510Y-106821814D01*
X158104408Y-106875500D01*
X158379592Y-106875500D01*
X158533571Y-106844872D01*
X160784001Y-109095303D01*
X160784000Y-121735328D01*
X159231242Y-123288087D01*
X159132535Y-123189380D01*
X158903727Y-123036495D01*
X158649490Y-122931186D01*
X158379592Y-122877500D01*
X158104408Y-122877500D01*
X157834510Y-122931186D01*
X157580273Y-123036495D01*
X157536527Y-123065725D01*
X147624804Y-113154003D01*
X147601001Y-113124999D01*
X147485276Y-113030026D01*
X147353247Y-112959454D01*
X147209986Y-112915997D01*
X147098333Y-112905000D01*
X147098322Y-112905000D01*
X147061000Y-112901324D01*
X147023678Y-112905000D01*
X145998043Y-112905000D01*
X145894637Y-112750241D01*
X145694759Y-112550363D01*
X145462241Y-112395000D01*
X145694759Y-112239637D01*
X145894637Y-112039759D01*
X146051680Y-111804727D01*
X146159853Y-111543574D01*
X146215000Y-111266335D01*
X146215000Y-110983665D01*
X146159853Y-110706426D01*
X146051680Y-110445273D01*
X145894637Y-110210241D01*
X145694759Y-110010363D01*
X145462241Y-109855000D01*
X145694759Y-109699637D01*
X145894637Y-109499759D01*
X146051680Y-109264727D01*
X146159853Y-109003574D01*
X146215000Y-108726335D01*
X146215000Y-108443665D01*
X146159853Y-108166426D01*
X146051680Y-107905273D01*
X145894637Y-107670241D01*
X145694759Y-107470363D01*
X145462241Y-107315000D01*
X145694759Y-107159637D01*
X145894637Y-106959759D01*
X146051680Y-106724727D01*
X146159853Y-106463574D01*
X146215000Y-106186335D01*
X146215000Y-105903665D01*
X146159853Y-105626426D01*
X146051680Y-105365273D01*
X145894637Y-105130241D01*
X145694759Y-104930363D01*
X145462241Y-104775000D01*
X145694759Y-104619637D01*
X145894637Y-104419759D01*
X146051680Y-104184727D01*
X146159853Y-103923574D01*
X146215000Y-103646335D01*
X146215000Y-103363665D01*
X146159853Y-103086426D01*
X146051680Y-102825273D01*
X145894637Y-102590241D01*
X145694759Y-102390363D01*
X145462241Y-102235000D01*
X145694759Y-102079637D01*
X145894637Y-101879759D01*
X146051680Y-101644727D01*
X146159853Y-101383574D01*
X146215000Y-101106335D01*
X146215000Y-100823665D01*
X146159853Y-100546426D01*
X146051680Y-100285273D01*
X145894637Y-100050241D01*
X145694759Y-99850363D01*
X145462241Y-99695000D01*
X145694759Y-99539637D01*
X145894637Y-99339759D01*
X145998043Y-99185000D01*
X147132199Y-99185000D01*
X148465001Y-100517803D01*
X148465000Y-111341678D01*
X148461324Y-111379000D01*
X148465000Y-111416322D01*
X148465000Y-111416332D01*
X148475997Y-111527985D01*
X148508763Y-111636002D01*
X148519454Y-111671246D01*
X148590026Y-111803276D01*
X148629871Y-111851826D01*
X148684999Y-111919001D01*
X148714003Y-111942804D01*
X156872738Y-120101540D01*
X156898686Y-120231990D01*
X157003995Y-120486227D01*
X157156880Y-120715035D01*
X157351465Y-120909620D01*
X157580273Y-121062505D01*
X157834510Y-121167814D01*
X158104408Y-121221500D01*
X158379592Y-121221500D01*
X158649490Y-121167814D01*
X158903727Y-121062505D01*
X159132535Y-120909620D01*
X159327120Y-120715035D01*
X159480005Y-120486227D01*
X159585314Y-120231990D01*
X159639000Y-119962092D01*
X159639000Y-119686908D01*
X159585314Y-119417010D01*
X159480005Y-119162773D01*
X159327120Y-118933965D01*
X159132535Y-118739380D01*
X158903727Y-118586495D01*
X158649490Y-118481186D01*
X158379592Y-118427500D01*
X158104408Y-118427500D01*
X157834510Y-118481186D01*
X157580273Y-118586495D01*
X157536527Y-118615725D01*
X154157710Y-115236908D01*
X156845000Y-115236908D01*
X156845000Y-115512092D01*
X156898686Y-115781990D01*
X157003995Y-116036227D01*
X157156880Y-116265035D01*
X157351465Y-116459620D01*
X157580273Y-116612505D01*
X157834510Y-116717814D01*
X158104408Y-116771500D01*
X158379592Y-116771500D01*
X158649490Y-116717814D01*
X158903727Y-116612505D01*
X159132535Y-116459620D01*
X159327120Y-116265035D01*
X159480005Y-116036227D01*
X159585314Y-115781990D01*
X159639000Y-115512092D01*
X159639000Y-115236908D01*
X159585314Y-114967010D01*
X159480005Y-114712773D01*
X159327120Y-114483965D01*
X159132535Y-114289380D01*
X158903727Y-114136495D01*
X158649490Y-114031186D01*
X158379592Y-113977500D01*
X158104408Y-113977500D01*
X157834510Y-114031186D01*
X157580273Y-114136495D01*
X157351465Y-114289380D01*
X157156880Y-114483965D01*
X157003995Y-114712773D01*
X156898686Y-114967010D01*
X156845000Y-115236908D01*
X154157710Y-115236908D01*
X149985000Y-111064199D01*
X149985000Y-100240325D01*
X149988676Y-100203000D01*
X149985000Y-100165675D01*
X149985000Y-100165667D01*
X149974003Y-100054014D01*
X149930546Y-99910753D01*
X149859974Y-99778724D01*
X149765001Y-99662999D01*
X149736003Y-99639201D01*
X148010804Y-97914003D01*
X147987001Y-97884999D01*
X147871276Y-97790026D01*
X147739247Y-97719454D01*
X147595986Y-97675997D01*
X147484333Y-97665000D01*
X147484322Y-97665000D01*
X147447000Y-97661324D01*
X147409678Y-97665000D01*
X145998043Y-97665000D01*
X145894637Y-97510241D01*
X145694759Y-97310363D01*
X145462241Y-97155000D01*
X145694759Y-96999637D01*
X145894637Y-96799759D01*
X145998043Y-96645000D01*
X151134569Y-96645000D01*
X156029075Y-101539508D01*
X156052869Y-101568501D01*
X156081862Y-101592295D01*
X156081866Y-101592299D01*
X156100634Y-101607701D01*
X156168594Y-101663474D01*
X156300623Y-101734046D01*
X156443884Y-101777503D01*
X156555537Y-101788500D01*
X156555546Y-101788500D01*
X156592869Y-101792176D01*
X156630192Y-101788500D01*
X157069659Y-101788500D01*
X157156880Y-101919035D01*
X157351465Y-102113620D01*
X157580273Y-102266505D01*
X157834510Y-102371814D01*
X158104408Y-102425500D01*
X158379592Y-102425500D01*
X158649490Y-102371814D01*
X158903727Y-102266505D01*
X159132535Y-102113620D01*
X159327120Y-101919035D01*
X159480005Y-101690227D01*
X159585314Y-101435990D01*
X159639000Y-101166092D01*
X159639000Y-100890908D01*
X159585314Y-100621010D01*
X159480005Y-100366773D01*
X159327120Y-100137965D01*
X159132535Y-99943380D01*
X158903727Y-99790495D01*
X158649490Y-99685186D01*
X158379592Y-99631500D01*
X158104408Y-99631500D01*
X157834510Y-99685186D01*
X157580273Y-99790495D01*
X157351465Y-99943380D01*
X157156880Y-100137965D01*
X157069659Y-100268500D01*
X156907673Y-100268500D01*
X153080080Y-96440908D01*
X156845000Y-96440908D01*
X156845000Y-96716092D01*
X156898686Y-96985990D01*
X157003995Y-97240227D01*
X157156880Y-97469035D01*
X157351465Y-97663620D01*
X157580273Y-97816505D01*
X157834510Y-97921814D01*
X158104408Y-97975500D01*
X158379592Y-97975500D01*
X158649490Y-97921814D01*
X158903727Y-97816505D01*
X159132535Y-97663620D01*
X159327120Y-97469035D01*
X159480005Y-97240227D01*
X159585314Y-96985990D01*
X159639000Y-96716092D01*
X159639000Y-96440908D01*
X159585314Y-96171010D01*
X159480005Y-95916773D01*
X159327120Y-95687965D01*
X159132535Y-95493380D01*
X158903727Y-95340495D01*
X158649490Y-95235186D01*
X158379592Y-95181500D01*
X158104408Y-95181500D01*
X157834510Y-95235186D01*
X157580273Y-95340495D01*
X157351465Y-95493380D01*
X157156880Y-95687965D01*
X157003995Y-95916773D01*
X156898686Y-96171010D01*
X156845000Y-96440908D01*
X153080080Y-96440908D01*
X152013174Y-95374003D01*
X151989371Y-95344999D01*
X151873646Y-95250026D01*
X151741617Y-95179454D01*
X151598356Y-95135997D01*
X151486703Y-95125000D01*
X151486692Y-95125000D01*
X151449370Y-95121324D01*
X151412048Y-95125000D01*
X145998043Y-95125000D01*
X145894637Y-94970241D01*
X145694759Y-94770363D01*
X145462241Y-94615000D01*
X145694759Y-94459637D01*
X145894637Y-94259759D01*
X146000700Y-94101024D01*
X146071986Y-94094003D01*
X146215247Y-94050546D01*
X146347276Y-93979974D01*
X146463001Y-93885001D01*
X146486804Y-93855997D01*
X157364474Y-82978328D01*
X157580510Y-83067814D01*
X157850408Y-83121500D01*
X158125592Y-83121500D01*
X158395490Y-83067814D01*
X158649727Y-82962505D01*
X158878535Y-82809620D01*
X159073120Y-82615035D01*
X159226005Y-82386227D01*
X159331314Y-82131990D01*
X159385000Y-81862092D01*
X159385000Y-81586908D01*
X159331314Y-81317010D01*
X159226005Y-81062773D01*
X159073120Y-80833965D01*
X158878535Y-80639380D01*
X158649727Y-80486495D01*
X158395490Y-80381186D01*
X158125592Y-80327500D01*
X157850408Y-80327500D01*
X157580510Y-80381186D01*
X157326273Y-80486495D01*
X157097465Y-80639380D01*
X156902880Y-80833965D01*
X156749995Y-81062773D01*
X156644686Y-81317010D01*
X156591000Y-81586908D01*
X156591000Y-81602198D01*
X145828797Y-92364401D01*
X145694759Y-92230363D01*
X145462241Y-92075000D01*
X145694759Y-91919637D01*
X145894637Y-91719759D01*
X146051680Y-91484727D01*
X146159853Y-91223574D01*
X146215000Y-90946335D01*
X146215000Y-90663665D01*
X146159853Y-90386426D01*
X146051680Y-90125273D01*
X145894637Y-89890241D01*
X145694759Y-89690363D01*
X145462241Y-89535000D01*
X145694759Y-89379637D01*
X145894637Y-89179759D01*
X146051680Y-88944727D01*
X146159853Y-88683574D01*
X146215000Y-88406335D01*
X146215000Y-88123665D01*
X146159853Y-87846426D01*
X146051680Y-87585273D01*
X145894637Y-87350241D01*
X145694759Y-87150363D01*
X145462241Y-86995000D01*
X145694759Y-86839637D01*
X145894637Y-86639759D01*
X146051680Y-86404727D01*
X146159853Y-86143574D01*
X146215000Y-85866335D01*
X146215000Y-85583665D01*
X146159853Y-85306426D01*
X146051680Y-85045273D01*
X145894637Y-84810241D01*
X145694759Y-84610363D01*
X145459727Y-84453320D01*
X145198574Y-84345147D01*
X144921335Y-84290000D01*
X144638665Y-84290000D01*
X144361426Y-84345147D01*
X144100273Y-84453320D01*
X143865241Y-84610363D01*
X143665363Y-84810241D01*
X143508320Y-85045273D01*
X143400147Y-85306426D01*
X143345000Y-85583665D01*
X143345000Y-85866335D01*
X143400147Y-86143574D01*
X143508320Y-86404727D01*
X143665363Y-86639759D01*
X143865241Y-86839637D01*
X144097759Y-86995000D01*
X143865241Y-87150363D01*
X143665363Y-87350241D01*
X143508320Y-87585273D01*
X143400147Y-87846426D01*
X143345000Y-88123665D01*
X143345000Y-88406335D01*
X143400147Y-88683574D01*
X143508320Y-88944727D01*
X143665363Y-89179759D01*
X143865241Y-89379637D01*
X144097759Y-89535000D01*
X143865241Y-89690363D01*
X143665363Y-89890241D01*
X143508320Y-90125273D01*
X143400147Y-90386426D01*
X143345000Y-90663665D01*
X143345000Y-90946335D01*
X143400147Y-91223574D01*
X143508320Y-91484727D01*
X143665363Y-91719759D01*
X143865241Y-91919637D01*
X144097759Y-92075000D01*
X143865241Y-92230363D01*
X143665363Y-92430241D01*
X143508320Y-92665273D01*
X143400147Y-92926426D01*
X143345000Y-93203665D01*
X143345000Y-93486335D01*
X143400147Y-93763574D01*
X143508320Y-94024727D01*
X143665363Y-94259759D01*
X143865241Y-94459637D01*
X144097759Y-94615000D01*
X143865241Y-94770363D01*
X143665363Y-94970241D01*
X143508320Y-95205273D01*
X143400147Y-95466426D01*
X143345000Y-95743665D01*
X143345000Y-96026335D01*
X143400147Y-96303574D01*
X143508320Y-96564727D01*
X143665363Y-96799759D01*
X143865241Y-96999637D01*
X144097759Y-97155000D01*
X143865241Y-97310363D01*
X143665363Y-97510241D01*
X143508320Y-97745273D01*
X143400147Y-98006426D01*
X143345000Y-98283665D01*
X143345000Y-98455198D01*
X140745750Y-95855949D01*
X140745750Y-77291043D01*
X140900509Y-77187637D01*
X141100387Y-76987759D01*
X141203793Y-76833000D01*
X143551908Y-76833000D01*
X143679538Y-77024013D01*
X143865487Y-77209962D01*
X144084141Y-77356061D01*
X144327095Y-77456696D01*
X144585014Y-77508000D01*
X144847986Y-77508000D01*
X145105905Y-77456696D01*
X145348859Y-77356061D01*
X145567513Y-77209962D01*
X145640567Y-77136908D01*
X156591000Y-77136908D01*
X156591000Y-77412092D01*
X156644686Y-77681990D01*
X156749995Y-77936227D01*
X156902880Y-78165035D01*
X157097465Y-78359620D01*
X157326273Y-78512505D01*
X157580510Y-78617814D01*
X157850408Y-78671500D01*
X158125592Y-78671500D01*
X158395490Y-78617814D01*
X158649727Y-78512505D01*
X158878535Y-78359620D01*
X159073120Y-78165035D01*
X159226005Y-77936227D01*
X159331314Y-77681990D01*
X159385000Y-77412092D01*
X159385000Y-77136908D01*
X159331314Y-76867010D01*
X159226005Y-76612773D01*
X159073120Y-76383965D01*
X158878535Y-76189380D01*
X158649727Y-76036495D01*
X158395490Y-75931186D01*
X158125592Y-75877500D01*
X157850408Y-75877500D01*
X157580510Y-75931186D01*
X157326273Y-76036495D01*
X157097465Y-76189380D01*
X156902880Y-76383965D01*
X156749995Y-76612773D01*
X156644686Y-76867010D01*
X156591000Y-77136908D01*
X145640567Y-77136908D01*
X145753462Y-77024013D01*
X145899561Y-76805359D01*
X146000196Y-76562405D01*
X146051500Y-76304486D01*
X146051500Y-76041514D01*
X146000196Y-75783595D01*
X145899561Y-75540641D01*
X145753462Y-75321987D01*
X145567513Y-75136038D01*
X145348859Y-74989939D01*
X145105905Y-74889304D01*
X144847986Y-74838000D01*
X144585014Y-74838000D01*
X144327095Y-74889304D01*
X144084141Y-74989939D01*
X143865487Y-75136038D01*
X143688525Y-75313000D01*
X141203793Y-75313000D01*
X141100387Y-75158241D01*
X140900509Y-74958363D01*
X140697923Y-74823000D01*
X140900509Y-74687637D01*
X141100387Y-74487759D01*
X141257430Y-74252727D01*
X141365603Y-73991574D01*
X141420750Y-73714335D01*
X141420750Y-73431665D01*
X141365603Y-73154426D01*
X141257430Y-72893273D01*
X141100387Y-72658241D01*
X140900509Y-72458363D01*
X140665477Y-72301320D01*
X140404324Y-72193147D01*
X140127085Y-72138000D01*
X139844415Y-72138000D01*
X139567176Y-72193147D01*
X139306023Y-72301320D01*
X139070991Y-72458363D01*
X138871113Y-72658241D01*
X138714070Y-72893273D01*
X138605897Y-73154426D01*
X138550750Y-73431665D01*
X138550750Y-73714335D01*
X138605897Y-73991574D01*
X138714070Y-74252727D01*
X138871113Y-74487759D01*
X139070991Y-74687637D01*
X139273577Y-74823000D01*
X139070991Y-74958363D01*
X138871113Y-75158241D01*
X138714070Y-75393273D01*
X138705899Y-75413000D01*
X136352775Y-75413000D01*
X136291962Y-75321987D01*
X136106013Y-75136038D01*
X135887359Y-74989939D01*
X135644405Y-74889304D01*
X135386486Y-74838000D01*
X135123514Y-74838000D01*
X134865595Y-74889304D01*
X134622641Y-74989939D01*
X134403987Y-75136038D01*
X134218038Y-75321987D01*
X134071939Y-75540641D01*
X133971304Y-75783595D01*
X133920000Y-76041514D01*
X128375816Y-76041514D01*
X127193322Y-74859021D01*
X127195072Y-74841250D01*
X127195072Y-74353750D01*
X127178128Y-74181715D01*
X127127947Y-74016291D01*
X127046458Y-73863836D01*
X126936792Y-73730208D01*
X126851244Y-73660000D01*
X126936792Y-73589792D01*
X127046458Y-73456164D01*
X127127947Y-73303709D01*
X127178128Y-73138285D01*
X127195072Y-72966250D01*
X127195072Y-72478750D01*
X127178128Y-72306715D01*
X127127947Y-72141291D01*
X127046458Y-71988836D01*
X126936792Y-71855208D01*
X126803164Y-71745542D01*
X126650709Y-71664053D01*
X126617000Y-71653827D01*
X126617000Y-70961514D01*
X133920000Y-70961514D01*
X133920000Y-71224486D01*
X133971304Y-71482405D01*
X134071939Y-71725359D01*
X134218038Y-71944013D01*
X134403987Y-72129962D01*
X134622641Y-72276061D01*
X134865595Y-72376696D01*
X135123514Y-72428000D01*
X135386486Y-72428000D01*
X135644405Y-72376696D01*
X135887359Y-72276061D01*
X136106013Y-72129962D01*
X136291962Y-71944013D01*
X136352775Y-71853000D01*
X137086178Y-71853000D01*
X137123500Y-71856676D01*
X137160822Y-71853000D01*
X137160833Y-71853000D01*
X137272486Y-71842003D01*
X137415747Y-71798546D01*
X137547776Y-71727974D01*
X137663501Y-71633001D01*
X137687304Y-71603997D01*
X138329787Y-70961514D01*
X143381500Y-70961514D01*
X143381500Y-71224486D01*
X143432804Y-71482405D01*
X143533439Y-71725359D01*
X143679538Y-71944013D01*
X143865487Y-72129962D01*
X144084141Y-72276061D01*
X144327095Y-72376696D01*
X144585014Y-72428000D01*
X144847986Y-72428000D01*
X145105905Y-72376696D01*
X145348859Y-72276061D01*
X145567513Y-72129962D01*
X145753462Y-71944013D01*
X145899561Y-71725359D01*
X146000196Y-71482405D01*
X146051500Y-71224486D01*
X146051500Y-70961514D01*
X146000196Y-70703595D01*
X145899561Y-70460641D01*
X145753462Y-70241987D01*
X145567513Y-70056038D01*
X145348859Y-69909939D01*
X145105905Y-69809304D01*
X144847986Y-69758000D01*
X144585014Y-69758000D01*
X144327095Y-69809304D01*
X144084141Y-69909939D01*
X143865487Y-70056038D01*
X143679538Y-70241987D01*
X143533439Y-70460641D01*
X143432804Y-70703595D01*
X143381500Y-70961514D01*
X138329787Y-70961514D01*
X141735004Y-67556298D01*
X141764001Y-67532501D01*
X141858974Y-67416776D01*
X141929546Y-67284747D01*
X141973003Y-67141486D01*
X141984000Y-67029833D01*
X141984000Y-67029825D01*
X141987676Y-66992500D01*
X141984000Y-66955175D01*
X141984000Y-65898029D01*
X142022147Y-65882228D01*
X142175958Y-65779454D01*
X142183463Y-65793494D01*
X142262815Y-65890185D01*
X142359506Y-65969537D01*
X142469820Y-66028502D01*
X142589518Y-66064812D01*
X142714000Y-66077072D01*
X143478250Y-66074000D01*
X143637000Y-65915250D01*
X143637000Y-64516000D01*
X143891000Y-64516000D01*
X143891000Y-65915250D01*
X144049750Y-66074000D01*
X144814000Y-66077072D01*
X144938482Y-66064812D01*
X145058180Y-66028502D01*
X145168494Y-65969537D01*
X145265185Y-65890185D01*
X145344537Y-65793494D01*
X145351818Y-65779872D01*
X156765000Y-65779872D01*
X156765000Y-66220128D01*
X156850890Y-66651925D01*
X157019369Y-67058669D01*
X157263962Y-67424729D01*
X157575271Y-67736038D01*
X157941331Y-67980631D01*
X158348075Y-68149110D01*
X158779872Y-68235000D01*
X159220128Y-68235000D01*
X159651925Y-68149110D01*
X160058669Y-67980631D01*
X160424729Y-67736038D01*
X160736038Y-67424729D01*
X160980631Y-67058669D01*
X161149110Y-66651925D01*
X161235000Y-66220128D01*
X161235000Y-65779872D01*
X161149110Y-65348075D01*
X160980631Y-64941331D01*
X160736038Y-64575271D01*
X160424729Y-64263962D01*
X160058669Y-64019369D01*
X159651925Y-63850890D01*
X159220128Y-63765000D01*
X158779872Y-63765000D01*
X158348075Y-63850890D01*
X157941331Y-64019369D01*
X157575271Y-64263962D01*
X157263962Y-64575271D01*
X157019369Y-64941331D01*
X156850890Y-65348075D01*
X156765000Y-65779872D01*
X145351818Y-65779872D01*
X145403502Y-65683180D01*
X145439812Y-65563482D01*
X145452072Y-65439000D01*
X145449000Y-64674750D01*
X145290250Y-64516000D01*
X143891000Y-64516000D01*
X143637000Y-64516000D01*
X143617000Y-64516000D01*
X143617000Y-64262000D01*
X143637000Y-64262000D01*
X143637000Y-62862750D01*
X143891000Y-62862750D01*
X143891000Y-64262000D01*
X145290250Y-64262000D01*
X145449000Y-64103250D01*
X145452072Y-63339000D01*
X145439812Y-63214518D01*
X145403502Y-63094820D01*
X145344537Y-62984506D01*
X145265185Y-62887815D01*
X145168494Y-62808463D01*
X145058180Y-62749498D01*
X144938482Y-62713188D01*
X144814000Y-62700928D01*
X144049750Y-62704000D01*
X143891000Y-62862750D01*
X143637000Y-62862750D01*
X143478250Y-62704000D01*
X142714000Y-62700928D01*
X142589518Y-62713188D01*
X142469820Y-62749498D01*
X142359506Y-62808463D01*
X142262815Y-62887815D01*
X142183463Y-62984506D01*
X142175958Y-62998546D01*
X142022147Y-62895772D01*
X141715496Y-62768754D01*
X141389958Y-62704000D01*
X141058042Y-62704000D01*
X140732504Y-62768754D01*
X140425853Y-62895772D01*
X140149875Y-63080175D01*
X139954000Y-63276050D01*
X139758125Y-63080175D01*
X139482147Y-62895772D01*
X139175496Y-62768754D01*
X138849958Y-62704000D01*
X138518042Y-62704000D01*
X138192504Y-62768754D01*
X137885853Y-62895772D01*
X137609875Y-63080175D01*
X137375175Y-63314875D01*
X137190772Y-63590853D01*
X137063754Y-63897504D01*
X136999000Y-64223042D01*
X136999000Y-64554958D01*
X137063754Y-64880496D01*
X137190772Y-65187147D01*
X137375175Y-65463125D01*
X137609875Y-65697825D01*
X137885853Y-65882228D01*
X138192504Y-66009246D01*
X138518042Y-66074000D01*
X138849958Y-66074000D01*
X139175496Y-66009246D01*
X139482147Y-65882228D01*
X139758125Y-65697825D01*
X139954000Y-65501950D01*
X140149875Y-65697825D01*
X140425853Y-65882228D01*
X140464000Y-65898029D01*
X140464000Y-66677698D01*
X136808699Y-70333000D01*
X136352775Y-70333000D01*
X136291962Y-70241987D01*
X136106013Y-70056038D01*
X135887359Y-69909939D01*
X135644405Y-69809304D01*
X135386486Y-69758000D01*
X135123514Y-69758000D01*
X134865595Y-69809304D01*
X134622641Y-69909939D01*
X134403987Y-70056038D01*
X134218038Y-70241987D01*
X134071939Y-70460641D01*
X133971304Y-70703595D01*
X133920000Y-70961514D01*
X126617000Y-70961514D01*
X126617000Y-65898029D01*
X126655147Y-65882228D01*
X126808958Y-65779454D01*
X126816463Y-65793494D01*
X126895815Y-65890185D01*
X126992506Y-65969537D01*
X127102820Y-66028502D01*
X127222518Y-66064812D01*
X127347000Y-66077072D01*
X128111250Y-66074000D01*
X128270000Y-65915250D01*
X128270000Y-64516000D01*
X128524000Y-64516000D01*
X128524000Y-65915250D01*
X128682750Y-66074000D01*
X129447000Y-66077072D01*
X129571482Y-66064812D01*
X129691180Y-66028502D01*
X129801494Y-65969537D01*
X129898185Y-65890185D01*
X129977537Y-65793494D01*
X130036502Y-65683180D01*
X130072812Y-65563482D01*
X130085072Y-65439000D01*
X130082000Y-64674750D01*
X129923250Y-64516000D01*
X128524000Y-64516000D01*
X128270000Y-64516000D01*
X128250000Y-64516000D01*
X128250000Y-64262000D01*
X128270000Y-64262000D01*
X128270000Y-62862750D01*
X128524000Y-62862750D01*
X128524000Y-64262000D01*
X129923250Y-64262000D01*
X130082000Y-64103250D01*
X130085072Y-63339000D01*
X130072812Y-63214518D01*
X130036502Y-63094820D01*
X129977537Y-62984506D01*
X129898185Y-62887815D01*
X129801494Y-62808463D01*
X129691180Y-62749498D01*
X129571482Y-62713188D01*
X129447000Y-62700928D01*
X128682750Y-62704000D01*
X128524000Y-62862750D01*
X128270000Y-62862750D01*
X128111250Y-62704000D01*
X127347000Y-62700928D01*
X127222518Y-62713188D01*
X127102820Y-62749498D01*
X126992506Y-62808463D01*
X126895815Y-62887815D01*
X126816463Y-62984506D01*
X126808958Y-62998546D01*
X126655147Y-62895772D01*
X126348496Y-62768754D01*
X126022958Y-62704000D01*
X125691042Y-62704000D01*
X125365504Y-62768754D01*
X125058853Y-62895772D01*
X124782875Y-63080175D01*
X124587000Y-63276050D01*
X124391125Y-63080175D01*
X124115147Y-62895772D01*
X123808496Y-62768754D01*
X123482958Y-62704000D01*
X123151042Y-62704000D01*
X122825504Y-62768754D01*
X122518853Y-62895772D01*
X122242875Y-63080175D01*
X122008175Y-63314875D01*
X121823772Y-63590853D01*
X121696754Y-63897504D01*
X121632000Y-64223042D01*
X121632000Y-64554958D01*
X121696754Y-64880496D01*
X121823772Y-65187147D01*
X122008175Y-65463125D01*
X122242875Y-65697825D01*
X122518853Y-65882228D01*
X122825504Y-66009246D01*
X123151042Y-66074000D01*
X123482958Y-66074000D01*
X123808496Y-66009246D01*
X124115147Y-65882228D01*
X124391125Y-65697825D01*
X124587000Y-65501950D01*
X124782875Y-65697825D01*
X125058853Y-65882228D01*
X125097001Y-65898029D01*
X125097000Y-71653827D01*
X125063291Y-71664053D01*
X124910836Y-71745542D01*
X124777208Y-71855208D01*
X124667542Y-71988836D01*
X124586053Y-72141291D01*
X124535872Y-72306715D01*
X124518928Y-72478750D01*
X124518928Y-72966250D01*
X124535872Y-73138285D01*
X124586053Y-73303709D01*
X124667542Y-73456164D01*
X124777208Y-73589792D01*
X124862756Y-73660000D01*
X124777208Y-73730208D01*
X124667542Y-73863836D01*
X124586053Y-74016291D01*
X124535872Y-74181715D01*
X124518928Y-74353750D01*
X124518928Y-74841250D01*
X124535872Y-75013285D01*
X124586053Y-75178709D01*
X124667542Y-75331164D01*
X124777208Y-75464792D01*
X124910836Y-75574458D01*
X125063291Y-75655947D01*
X125228715Y-75706128D01*
X125400750Y-75723072D01*
X125907771Y-75723072D01*
X133225001Y-83040303D01*
X133225000Y-102416567D01*
X130582982Y-105058586D01*
X130454759Y-104930363D01*
X130222241Y-104775000D01*
X130454759Y-104619637D01*
X130654637Y-104419759D01*
X130811680Y-104184727D01*
X130919853Y-103923574D01*
X130975000Y-103646335D01*
X130975000Y-103363665D01*
X130919853Y-103086426D01*
X130811680Y-102825273D01*
X130654637Y-102590241D01*
X130454759Y-102390363D01*
X130222241Y-102235000D01*
X130454759Y-102079637D01*
X130654637Y-101879759D01*
X130811680Y-101644727D01*
X130919853Y-101383574D01*
X130975000Y-101106335D01*
X130975000Y-100823665D01*
X130919853Y-100546426D01*
X130811680Y-100285273D01*
X130654637Y-100050241D01*
X130454759Y-99850363D01*
X130222241Y-99695000D01*
X130454759Y-99539637D01*
X130654637Y-99339759D01*
X130811680Y-99104727D01*
X130919853Y-98843574D01*
X130975000Y-98566335D01*
X130975000Y-98283665D01*
X130919853Y-98006426D01*
X130811680Y-97745273D01*
X130654637Y-97510241D01*
X130454759Y-97310363D01*
X130222241Y-97155000D01*
X130454759Y-96999637D01*
X130654637Y-96799759D01*
X130811680Y-96564727D01*
X130919853Y-96303574D01*
X130975000Y-96026335D01*
X130975000Y-95743665D01*
X130919853Y-95466426D01*
X130811680Y-95205273D01*
X130654637Y-94970241D01*
X130454759Y-94770363D01*
X130222241Y-94615000D01*
X130454759Y-94459637D01*
X130654637Y-94259759D01*
X130811680Y-94024727D01*
X130919853Y-93763574D01*
X130975000Y-93486335D01*
X130975000Y-93203665D01*
X130919853Y-92926426D01*
X130811680Y-92665273D01*
X130654637Y-92430241D01*
X130454759Y-92230363D01*
X130222241Y-92075000D01*
X130454759Y-91919637D01*
X130654637Y-91719759D01*
X130811680Y-91484727D01*
X130919853Y-91223574D01*
X130975000Y-90946335D01*
X130975000Y-90663665D01*
X130919853Y-90386426D01*
X130811680Y-90125273D01*
X130654637Y-89890241D01*
X130454759Y-89690363D01*
X130222241Y-89535000D01*
X130454759Y-89379637D01*
X130654637Y-89179759D01*
X130811680Y-88944727D01*
X130919853Y-88683574D01*
X130975000Y-88406335D01*
X130975000Y-88123665D01*
X130919853Y-87846426D01*
X130811680Y-87585273D01*
X130654637Y-87350241D01*
X130454759Y-87150363D01*
X130222241Y-86995000D01*
X130454759Y-86839637D01*
X130654637Y-86639759D01*
X130811680Y-86404727D01*
X130919853Y-86143574D01*
X130975000Y-85866335D01*
X130975000Y-85583665D01*
X130919853Y-85306426D01*
X130811680Y-85045273D01*
X130654637Y-84810241D01*
X130454759Y-84610363D01*
X130219727Y-84453320D01*
X129958574Y-84345147D01*
X129681335Y-84290000D01*
X129398665Y-84290000D01*
X129121426Y-84345147D01*
X128860273Y-84453320D01*
X128625241Y-84610363D01*
X128425363Y-84810241D01*
X128268320Y-85045273D01*
X128160147Y-85306426D01*
X128105000Y-85583665D01*
X128105000Y-85866335D01*
X128160147Y-86143574D01*
X128268320Y-86404727D01*
X128425363Y-86639759D01*
X128625241Y-86839637D01*
X128857759Y-86995000D01*
X128625241Y-87150363D01*
X128425363Y-87350241D01*
X128268320Y-87585273D01*
X128160147Y-87846426D01*
X128105000Y-88123665D01*
X128105000Y-88406335D01*
X128160147Y-88683574D01*
X128268320Y-88944727D01*
X128425363Y-89179759D01*
X128625241Y-89379637D01*
X128857759Y-89535000D01*
X128625241Y-89690363D01*
X128425363Y-89890241D01*
X128268320Y-90125273D01*
X128160147Y-90386426D01*
X128105000Y-90663665D01*
X128105000Y-90946335D01*
X128160147Y-91223574D01*
X128268320Y-91484727D01*
X128425363Y-91719759D01*
X128625241Y-91919637D01*
X128857759Y-92075000D01*
X128625241Y-92230363D01*
X128425363Y-92430241D01*
X128268320Y-92665273D01*
X128160147Y-92926426D01*
X128105000Y-93203665D01*
X128105000Y-93375198D01*
X123696000Y-88966199D01*
X123696000Y-83016822D01*
X123699676Y-82979499D01*
X123696000Y-82942176D01*
X123696000Y-82942167D01*
X123685003Y-82830514D01*
X123641546Y-82687253D01*
X123570974Y-82555224D01*
X123557811Y-82539185D01*
X123499799Y-82468496D01*
X123499795Y-82468492D01*
X123476001Y-82439499D01*
X123447009Y-82415706D01*
X120716322Y-79685020D01*
X120718072Y-79667250D01*
X120718072Y-79179750D01*
X120701128Y-79007715D01*
X120650947Y-78842291D01*
X120569458Y-78689836D01*
X120459792Y-78556208D01*
X120374244Y-78486000D01*
X120459792Y-78415792D01*
X120569458Y-78282164D01*
X120650947Y-78129709D01*
X120701128Y-77964285D01*
X120718072Y-77792250D01*
X120718072Y-77304750D01*
X120701128Y-77132715D01*
X120650947Y-76967291D01*
X120569458Y-76814836D01*
X120459792Y-76681208D01*
X120326164Y-76571542D01*
X120173709Y-76490053D01*
X120008285Y-76439872D01*
X119836250Y-76422928D01*
X118923750Y-76422928D01*
X118751715Y-76439872D01*
X118586291Y-76490053D01*
X118433836Y-76571542D01*
X118300208Y-76681208D01*
X118276579Y-76710000D01*
X113479313Y-76710000D01*
X113333312Y-76491495D01*
X113119505Y-76277688D01*
X112868095Y-76109701D01*
X112588743Y-75993989D01*
X112292184Y-75935000D01*
X111989816Y-75935000D01*
X111693257Y-75993989D01*
X111413905Y-76109701D01*
X111162495Y-76277688D01*
X110948688Y-76491495D01*
X110780701Y-76742905D01*
X110664989Y-77022257D01*
X110606000Y-77318816D01*
X110606000Y-77621184D01*
X110664989Y-77917743D01*
X110780701Y-78197095D01*
X110948688Y-78448505D01*
X111015127Y-78514944D01*
X110996820Y-78520498D01*
X110886506Y-78579463D01*
X110789815Y-78658815D01*
X110710463Y-78755506D01*
X110651498Y-78865820D01*
X110615188Y-78985518D01*
X110602928Y-79110000D01*
X105660000Y-79110000D01*
X105660000Y-65779872D01*
X108765000Y-65779872D01*
X108765000Y-66220128D01*
X108850890Y-66651925D01*
X109019369Y-67058669D01*
X109263962Y-67424729D01*
X109575271Y-67736038D01*
X109941331Y-67980631D01*
X110348075Y-68149110D01*
X110779872Y-68235000D01*
X111220128Y-68235000D01*
X111651925Y-68149110D01*
X112058669Y-67980631D01*
X112424729Y-67736038D01*
X112736038Y-67424729D01*
X112980631Y-67058669D01*
X113149110Y-66651925D01*
X113235000Y-66220128D01*
X113235000Y-65779872D01*
X113149110Y-65348075D01*
X112980631Y-64941331D01*
X112736038Y-64575271D01*
X112424729Y-64263962D01*
X112058669Y-64019369D01*
X111651925Y-63850890D01*
X111220128Y-63765000D01*
X110779872Y-63765000D01*
X110348075Y-63850890D01*
X109941331Y-64019369D01*
X109575271Y-64263962D01*
X109263962Y-64575271D01*
X109019369Y-64941331D01*
X108850890Y-65348075D01*
X108765000Y-65779872D01*
X105660000Y-65779872D01*
X105660000Y-61874380D01*
X106671983Y-60660000D01*
X163477394Y-60660000D01*
X164340000Y-61522606D01*
M02*
