G04 #@! TF.GenerationSoftware,KiCad,Pcbnew,(5.1.5)-3*
G04 #@! TF.CreationDate,2020-03-01T11:41:08-05:00*
G04 #@! TF.ProjectId,LED_Control,4c45445f-436f-46e7-9472-6f6c2e6b6963,rev?*
G04 #@! TF.SameCoordinates,Original*
G04 #@! TF.FileFunction,Legend,Top*
G04 #@! TF.FilePolarity,Positive*
%FSLAX46Y46*%
G04 Gerber Fmt 4.6, Leading zero omitted, Abs format (unit mm)*
G04 Created by KiCad (PCBNEW (5.1.5)-3) date 2020-03-01 11:41:08*
%MOMM*%
%LPD*%
G04 APERTURE LIST*
%ADD10C,0.120000*%
%ADD11C,0.127000*%
%ADD12C,0.400000*%
%ADD13C,0.200000*%
%ADD14C,0.150000*%
%ADD15C,0.050000*%
G04 APERTURE END LIST*
D10*
X145636500Y-75553000D02*
X145636500Y-71713000D01*
X143796500Y-75553000D02*
X143796500Y-71713000D01*
X145624000Y-60779000D02*
X145224000Y-60779000D01*
X145624000Y-61419000D02*
X145624000Y-60779000D01*
X137064000Y-67759000D02*
X137064000Y-61019000D01*
X145384000Y-67759000D02*
X145384000Y-61019000D01*
X145384000Y-61019000D02*
X137064000Y-61019000D01*
X145384000Y-67759000D02*
X137064000Y-67759000D01*
X145384000Y-66639000D02*
X137064000Y-66639000D01*
X145384000Y-61539000D02*
X137064000Y-61539000D01*
X130257000Y-60779000D02*
X129857000Y-60779000D01*
X130257000Y-61419000D02*
X130257000Y-60779000D01*
X121697000Y-67759000D02*
X121697000Y-61019000D01*
X130017000Y-67759000D02*
X130017000Y-61019000D01*
X130017000Y-61019000D02*
X121697000Y-61019000D01*
X130017000Y-67759000D02*
X121697000Y-67759000D01*
X130017000Y-66639000D02*
X121697000Y-66639000D01*
X130017000Y-61539000D02*
X121697000Y-61539000D01*
X136175000Y-75553000D02*
X136175000Y-71713000D01*
X134335000Y-75553000D02*
X134335000Y-71713000D01*
X120715500Y-118145779D02*
X120715500Y-117820221D01*
X119695500Y-118145779D02*
X119695500Y-117820221D01*
X117413500Y-118145779D02*
X117413500Y-117820221D01*
X116393500Y-118145779D02*
X116393500Y-117820221D01*
X112837500Y-118145779D02*
X112837500Y-117820221D01*
X113857500Y-118145779D02*
X113857500Y-117820221D01*
X138815750Y-76643000D02*
X138815750Y-73003000D01*
X141155750Y-76643000D02*
X141155750Y-73003000D01*
X138815750Y-76643000D02*
X139060750Y-76643000D01*
X140910750Y-76643000D02*
X141155750Y-76643000D01*
X138815750Y-73003000D02*
X139060750Y-73003000D01*
X140910750Y-73003000D02*
X141155750Y-73003000D01*
X112141462Y-91498000D02*
G75*
G03X110596170Y-97048000I-462J-2990000D01*
G01*
X112140538Y-91498000D02*
G75*
G02X113685830Y-97048000I462J-2990000D01*
G01*
X114641000Y-94488000D02*
G75*
G03X114641000Y-94488000I-2500000J0D01*
G01*
X110596000Y-97048000D02*
X113686000Y-97048000D01*
X110596000Y-89174000D02*
X113686000Y-89174000D01*
X114641000Y-86614000D02*
G75*
G03X114641000Y-86614000I-2500000J0D01*
G01*
X112140538Y-83624000D02*
G75*
G02X113685830Y-89174000I462J-2990000D01*
G01*
X112141462Y-83624000D02*
G75*
G03X110596170Y-89174000I-462J-2990000D01*
G01*
X112141462Y-75750000D02*
G75*
G03X110596170Y-81300000I-462J-2990000D01*
G01*
X112140538Y-75750000D02*
G75*
G02X113685830Y-81300000I462J-2990000D01*
G01*
X114641000Y-78740000D02*
G75*
G03X114641000Y-78740000I-2500000J0D01*
G01*
X110596000Y-81300000D02*
X113686000Y-81300000D01*
X114800500Y-124285500D02*
X114800500Y-126970500D01*
X114800500Y-126970500D02*
X116720500Y-126970500D01*
X116720500Y-126970500D02*
X116720500Y-124285500D01*
D11*
X106188000Y-112450000D02*
X106188000Y-103450000D01*
X106188000Y-103450000D02*
X120588000Y-103450000D01*
X120588000Y-112450000D02*
X119438000Y-112450000D01*
X120588000Y-103450000D02*
X120588000Y-105300000D01*
X114338000Y-112450000D02*
X106188000Y-112450000D01*
X120588000Y-110500000D02*
X120588000Y-112450000D01*
D12*
X122088000Y-107950000D02*
G75*
G03X122088000Y-107950000I-200000J0D01*
G01*
D10*
X127306000Y-130751078D02*
X127306000Y-130233922D01*
X128726000Y-130751078D02*
X128726000Y-130233922D01*
X126567000Y-73918578D02*
X126567000Y-73401422D01*
X125147000Y-73918578D02*
X125147000Y-73401422D01*
X120090000Y-94619578D02*
X120090000Y-94102422D01*
X118670000Y-94619578D02*
X118670000Y-94102422D01*
X120090000Y-86618578D02*
X120090000Y-86101422D01*
X118670000Y-86618578D02*
X118670000Y-86101422D01*
X118670000Y-78744578D02*
X118670000Y-78227422D01*
X120090000Y-78744578D02*
X120090000Y-78227422D01*
X119876500Y-125671078D02*
X119876500Y-125153922D01*
X121296500Y-125671078D02*
X121296500Y-125153922D01*
X164084000Y-83756500D02*
G75*
G02X164084000Y-79692500I0J2032000D01*
G01*
X164088000Y-74104500D02*
X164088000Y-89324500D01*
X157988000Y-89324500D02*
X164088000Y-89324500D01*
X157988000Y-74124500D02*
X164088000Y-74104500D01*
X150888000Y-74124500D02*
X150876000Y-89344500D01*
X157988000Y-89324500D02*
X150988000Y-89324500D01*
X157988000Y-74124500D02*
X150888000Y-74124500D01*
X158242000Y-93428500D02*
X151142000Y-93428500D01*
X158242000Y-108628500D02*
X151242000Y-108628500D01*
X151142000Y-93428500D02*
X151130000Y-108648500D01*
X158242000Y-93428500D02*
X164342000Y-93408500D01*
X158242000Y-108628500D02*
X164342000Y-108628500D01*
X164342000Y-93408500D02*
X164342000Y-108628500D01*
X164338000Y-103060500D02*
G75*
G02X164338000Y-98996500I0J2032000D01*
G01*
X158242000Y-112224500D02*
X151142000Y-112224500D01*
X158242000Y-127424500D02*
X151242000Y-127424500D01*
X151142000Y-112224500D02*
X151130000Y-127444500D01*
X158242000Y-112224500D02*
X164342000Y-112204500D01*
X158242000Y-127424500D02*
X164342000Y-127424500D01*
X164342000Y-112204500D02*
X164342000Y-127424500D01*
X164338000Y-121856500D02*
G75*
G02X164338000Y-117792500I0J2032000D01*
G01*
D13*
X146702500Y-132143500D02*
G75*
G03X146702500Y-132143500I-6050000J0D01*
G01*
D14*
X143248880Y-73799666D02*
X142772690Y-74133000D01*
X143248880Y-74371095D02*
X142248880Y-74371095D01*
X142248880Y-73990142D01*
X142296500Y-73894904D01*
X142344119Y-73847285D01*
X142439357Y-73799666D01*
X142582214Y-73799666D01*
X142677452Y-73847285D01*
X142725071Y-73894904D01*
X142772690Y-73990142D01*
X142772690Y-74371095D01*
X142677452Y-73228238D02*
X142629833Y-73323476D01*
X142582214Y-73371095D01*
X142486976Y-73418714D01*
X142439357Y-73418714D01*
X142344119Y-73371095D01*
X142296500Y-73323476D01*
X142248880Y-73228238D01*
X142248880Y-73037761D01*
X142296500Y-72942523D01*
X142344119Y-72894904D01*
X142439357Y-72847285D01*
X142486976Y-72847285D01*
X142582214Y-72894904D01*
X142629833Y-72942523D01*
X142677452Y-73037761D01*
X142677452Y-73228238D01*
X142725071Y-73323476D01*
X142772690Y-73371095D01*
X142867928Y-73418714D01*
X143058404Y-73418714D01*
X143153642Y-73371095D01*
X143201261Y-73323476D01*
X143248880Y-73228238D01*
X143248880Y-73037761D01*
X143201261Y-72942523D01*
X143153642Y-72894904D01*
X143058404Y-72847285D01*
X142867928Y-72847285D01*
X142772690Y-72894904D01*
X142725071Y-72942523D01*
X142677452Y-73037761D01*
X140890666Y-68211380D02*
X140890666Y-68925666D01*
X140843047Y-69068523D01*
X140747809Y-69163761D01*
X140604952Y-69211380D01*
X140509714Y-69211380D01*
X141271619Y-68211380D02*
X141890666Y-68211380D01*
X141557333Y-68592333D01*
X141700190Y-68592333D01*
X141795428Y-68639952D01*
X141843047Y-68687571D01*
X141890666Y-68782809D01*
X141890666Y-69020904D01*
X141843047Y-69116142D01*
X141795428Y-69163761D01*
X141700190Y-69211380D01*
X141414476Y-69211380D01*
X141319238Y-69163761D01*
X141271619Y-69116142D01*
X125523666Y-68211380D02*
X125523666Y-68925666D01*
X125476047Y-69068523D01*
X125380809Y-69163761D01*
X125237952Y-69211380D01*
X125142714Y-69211380D01*
X125952238Y-68306619D02*
X125999857Y-68259000D01*
X126095095Y-68211380D01*
X126333190Y-68211380D01*
X126428428Y-68259000D01*
X126476047Y-68306619D01*
X126523666Y-68401857D01*
X126523666Y-68497095D01*
X126476047Y-68639952D01*
X125904619Y-69211380D01*
X126523666Y-69211380D01*
X157500000Y-62252380D02*
X157500000Y-61252380D01*
X157880952Y-61252380D01*
X157976190Y-61300000D01*
X158023809Y-61347619D01*
X158071428Y-61442857D01*
X158071428Y-61585714D01*
X158023809Y-61680952D01*
X157976190Y-61728571D01*
X157880952Y-61776190D01*
X157500000Y-61776190D01*
X158500000Y-62252380D02*
X158500000Y-61252380D01*
X158976190Y-62252380D02*
X158976190Y-61252380D01*
X159547619Y-62252380D01*
X159547619Y-61252380D01*
X160452380Y-61585714D02*
X160452380Y-62252380D01*
X160214285Y-61204761D02*
X159976190Y-61919047D01*
X160595238Y-61919047D01*
X157500000Y-130252380D02*
X157500000Y-129252380D01*
X157880952Y-129252380D01*
X157976190Y-129300000D01*
X158023809Y-129347619D01*
X158071428Y-129442857D01*
X158071428Y-129585714D01*
X158023809Y-129680952D01*
X157976190Y-129728571D01*
X157880952Y-129776190D01*
X157500000Y-129776190D01*
X158500000Y-130252380D02*
X158500000Y-129252380D01*
X158976190Y-130252380D02*
X158976190Y-129252380D01*
X159547619Y-130252380D01*
X159547619Y-129252380D01*
X159928571Y-129252380D02*
X160547619Y-129252380D01*
X160214285Y-129633333D01*
X160357142Y-129633333D01*
X160452380Y-129680952D01*
X160500000Y-129728571D01*
X160547619Y-129823809D01*
X160547619Y-130061904D01*
X160500000Y-130157142D01*
X160452380Y-130204761D01*
X160357142Y-130252380D01*
X160071428Y-130252380D01*
X159976190Y-130204761D01*
X159928571Y-130157142D01*
X109500000Y-130252380D02*
X109500000Y-129252380D01*
X109880952Y-129252380D01*
X109976190Y-129300000D01*
X110023809Y-129347619D01*
X110071428Y-129442857D01*
X110071428Y-129585714D01*
X110023809Y-129680952D01*
X109976190Y-129728571D01*
X109880952Y-129776190D01*
X109500000Y-129776190D01*
X110500000Y-130252380D02*
X110500000Y-129252380D01*
X110976190Y-130252380D02*
X110976190Y-129252380D01*
X111547619Y-130252380D01*
X111547619Y-129252380D01*
X112452380Y-129585714D02*
X112452380Y-130252380D01*
X112214285Y-129204761D02*
X111976190Y-129919047D01*
X112595238Y-129919047D01*
X109500000Y-62252380D02*
X109500000Y-61252380D01*
X109880952Y-61252380D01*
X109976190Y-61300000D01*
X110023809Y-61347619D01*
X110071428Y-61442857D01*
X110071428Y-61585714D01*
X110023809Y-61680952D01*
X109976190Y-61728571D01*
X109880952Y-61776190D01*
X109500000Y-61776190D01*
X110500000Y-62252380D02*
X110500000Y-61252380D01*
X110976190Y-62252380D02*
X110976190Y-61252380D01*
X111547619Y-62252380D01*
X111547619Y-61252380D01*
X112547619Y-62252380D02*
X111976190Y-62252380D01*
X112261904Y-62252380D02*
X112261904Y-61252380D01*
X112166666Y-61395238D01*
X112071428Y-61490476D01*
X111976190Y-61538095D01*
X133787380Y-73799666D02*
X133311190Y-74133000D01*
X133787380Y-74371095D02*
X132787380Y-74371095D01*
X132787380Y-73990142D01*
X132835000Y-73894904D01*
X132882619Y-73847285D01*
X132977857Y-73799666D01*
X133120714Y-73799666D01*
X133215952Y-73847285D01*
X133263571Y-73894904D01*
X133311190Y-73990142D01*
X133311190Y-74371095D01*
X132787380Y-73466333D02*
X132787380Y-72799666D01*
X133787380Y-73228238D01*
X119132642Y-118149666D02*
X119180261Y-118197285D01*
X119227880Y-118340142D01*
X119227880Y-118435380D01*
X119180261Y-118578238D01*
X119085023Y-118673476D01*
X118989785Y-118721095D01*
X118799309Y-118768714D01*
X118656452Y-118768714D01*
X118465976Y-118721095D01*
X118370738Y-118673476D01*
X118275500Y-118578238D01*
X118227880Y-118435380D01*
X118227880Y-118340142D01*
X118275500Y-118197285D01*
X118323119Y-118149666D01*
X119227880Y-117197285D02*
X119227880Y-117768714D01*
X119227880Y-117483000D02*
X118227880Y-117483000D01*
X118370738Y-117578238D01*
X118465976Y-117673476D01*
X118513595Y-117768714D01*
X115830642Y-118149666D02*
X115878261Y-118197285D01*
X115925880Y-118340142D01*
X115925880Y-118435380D01*
X115878261Y-118578238D01*
X115783023Y-118673476D01*
X115687785Y-118721095D01*
X115497309Y-118768714D01*
X115354452Y-118768714D01*
X115163976Y-118721095D01*
X115068738Y-118673476D01*
X114973500Y-118578238D01*
X114925880Y-118435380D01*
X114925880Y-118340142D01*
X114973500Y-118197285D01*
X115021119Y-118149666D01*
X115021119Y-117768714D02*
X114973500Y-117721095D01*
X114925880Y-117625857D01*
X114925880Y-117387761D01*
X114973500Y-117292523D01*
X115021119Y-117244904D01*
X115116357Y-117197285D01*
X115211595Y-117197285D01*
X115354452Y-117244904D01*
X115925880Y-117816333D01*
X115925880Y-117197285D01*
X112274642Y-118149666D02*
X112322261Y-118197285D01*
X112369880Y-118340142D01*
X112369880Y-118435380D01*
X112322261Y-118578238D01*
X112227023Y-118673476D01*
X112131785Y-118721095D01*
X111941309Y-118768714D01*
X111798452Y-118768714D01*
X111607976Y-118721095D01*
X111512738Y-118673476D01*
X111417500Y-118578238D01*
X111369880Y-118435380D01*
X111369880Y-118340142D01*
X111417500Y-118197285D01*
X111465119Y-118149666D01*
X111369880Y-117816333D02*
X111369880Y-117197285D01*
X111750833Y-117530619D01*
X111750833Y-117387761D01*
X111798452Y-117292523D01*
X111846071Y-117244904D01*
X111941309Y-117197285D01*
X112179404Y-117197285D01*
X112274642Y-117244904D01*
X112322261Y-117292523D01*
X112369880Y-117387761D01*
X112369880Y-117673476D01*
X112322261Y-117768714D01*
X112274642Y-117816333D01*
X138042892Y-74989666D02*
X138090511Y-75037285D01*
X138138130Y-75180142D01*
X138138130Y-75275380D01*
X138090511Y-75418238D01*
X137995273Y-75513476D01*
X137900035Y-75561095D01*
X137709559Y-75608714D01*
X137566702Y-75608714D01*
X137376226Y-75561095D01*
X137280988Y-75513476D01*
X137185750Y-75418238D01*
X137138130Y-75275380D01*
X137138130Y-75180142D01*
X137185750Y-75037285D01*
X137233369Y-74989666D01*
X137471464Y-74132523D02*
X138138130Y-74132523D01*
X137090511Y-74370619D02*
X137804797Y-74608714D01*
X137804797Y-73989666D01*
X108633380Y-95226095D02*
X107633380Y-95226095D01*
X107633380Y-94988000D01*
X107681000Y-94845142D01*
X107776238Y-94749904D01*
X107871476Y-94702285D01*
X108061952Y-94654666D01*
X108204809Y-94654666D01*
X108395285Y-94702285D01*
X108490523Y-94749904D01*
X108585761Y-94845142D01*
X108633380Y-94988000D01*
X108633380Y-95226095D01*
X108633380Y-93702285D02*
X108633380Y-94273714D01*
X108633380Y-93988000D02*
X107633380Y-93988000D01*
X107776238Y-94083238D01*
X107871476Y-94178476D01*
X107919095Y-94273714D01*
X108633380Y-87352095D02*
X107633380Y-87352095D01*
X107633380Y-87114000D01*
X107681000Y-86971142D01*
X107776238Y-86875904D01*
X107871476Y-86828285D01*
X108061952Y-86780666D01*
X108204809Y-86780666D01*
X108395285Y-86828285D01*
X108490523Y-86875904D01*
X108585761Y-86971142D01*
X108633380Y-87114000D01*
X108633380Y-87352095D01*
X107728619Y-86399714D02*
X107681000Y-86352095D01*
X107633380Y-86256857D01*
X107633380Y-86018761D01*
X107681000Y-85923523D01*
X107728619Y-85875904D01*
X107823857Y-85828285D01*
X107919095Y-85828285D01*
X108061952Y-85875904D01*
X108633380Y-86447333D01*
X108633380Y-85828285D01*
X108633380Y-79478095D02*
X107633380Y-79478095D01*
X107633380Y-79240000D01*
X107681000Y-79097142D01*
X107776238Y-79001904D01*
X107871476Y-78954285D01*
X108061952Y-78906666D01*
X108204809Y-78906666D01*
X108395285Y-78954285D01*
X108490523Y-79001904D01*
X108585761Y-79097142D01*
X108633380Y-79240000D01*
X108633380Y-79478095D01*
X107633380Y-78573333D02*
X107633380Y-77954285D01*
X108014333Y-78287619D01*
X108014333Y-78144761D01*
X108061952Y-78049523D01*
X108109571Y-78001904D01*
X108204809Y-77954285D01*
X108442904Y-77954285D01*
X108538142Y-78001904D01*
X108585761Y-78049523D01*
X108633380Y-78144761D01*
X108633380Y-78430476D01*
X108585761Y-78525714D01*
X108538142Y-78573333D01*
X114562880Y-126023595D02*
X113562880Y-126023595D01*
X113562880Y-125785500D01*
X113610500Y-125642642D01*
X113705738Y-125547404D01*
X113800976Y-125499785D01*
X113991452Y-125452166D01*
X114134309Y-125452166D01*
X114324785Y-125499785D01*
X114420023Y-125547404D01*
X114515261Y-125642642D01*
X114562880Y-125785500D01*
X114562880Y-126023595D01*
X113896214Y-124595023D02*
X114562880Y-124595023D01*
X113515261Y-124833119D02*
X114229547Y-125071214D01*
X114229547Y-124452166D01*
D15*
X117704560Y-114167673D02*
X117704560Y-114881995D01*
X117656938Y-115024859D01*
X117561695Y-115120102D01*
X117418831Y-115167723D01*
X117323588Y-115167723D01*
X118704610Y-115167723D02*
X118133152Y-115167723D01*
X118418881Y-115167723D02*
X118418881Y-114167673D01*
X118323638Y-114310537D01*
X118228395Y-114405780D01*
X118133152Y-114453402D01*
X113322917Y-101618998D02*
X112846098Y-101618998D01*
X112798416Y-102095817D01*
X112846098Y-102048135D01*
X112941461Y-102000453D01*
X113179871Y-102000453D01*
X113275235Y-102048135D01*
X113322917Y-102095817D01*
X113370599Y-102191180D01*
X113370599Y-102429590D01*
X113322917Y-102524954D01*
X113275235Y-102572636D01*
X113179871Y-102620318D01*
X112941461Y-102620318D01*
X112846098Y-102572636D01*
X112798416Y-102524954D01*
X113656690Y-101618998D02*
X113990463Y-102620318D01*
X114324237Y-101618998D01*
X115897740Y-101618998D02*
X115420920Y-101618998D01*
X115373239Y-102095817D01*
X115420920Y-102048135D01*
X115516284Y-102000453D01*
X115754694Y-102000453D01*
X115850058Y-102048135D01*
X115897740Y-102095817D01*
X115945421Y-102191180D01*
X115945421Y-102429590D01*
X115897740Y-102524954D01*
X115850058Y-102572636D01*
X115754694Y-102620318D01*
X115516284Y-102620318D01*
X115420920Y-102572636D01*
X115373239Y-102524954D01*
X116326877Y-102334226D02*
X116803696Y-102334226D01*
X116231513Y-102620318D02*
X116565286Y-101618998D01*
X116899060Y-102620318D01*
X117995743Y-102620318D02*
X117995743Y-101618998D01*
X118377199Y-101618998D01*
X118472562Y-101666680D01*
X118520244Y-101714361D01*
X118567926Y-101809725D01*
X118567926Y-101952771D01*
X118520244Y-102048135D01*
X118472562Y-102095817D01*
X118377199Y-102143499D01*
X117995743Y-102143499D01*
X119140109Y-102620318D02*
X119044745Y-102572636D01*
X118997063Y-102524954D01*
X118949381Y-102429590D01*
X118949381Y-102143499D01*
X118997063Y-102048135D01*
X119044745Y-102000453D01*
X119140109Y-101952771D01*
X119283155Y-101952771D01*
X119378519Y-102000453D01*
X119426200Y-102048135D01*
X119473882Y-102143499D01*
X119473882Y-102429590D01*
X119426200Y-102524954D01*
X119378519Y-102572636D01*
X119283155Y-102620318D01*
X119140109Y-102620318D01*
X119807656Y-101952771D02*
X119998383Y-102620318D01*
X120189111Y-102143499D01*
X120379839Y-102620318D01*
X120570566Y-101952771D01*
X121333477Y-102572636D02*
X121238113Y-102620318D01*
X121047385Y-102620318D01*
X120952021Y-102572636D01*
X120904340Y-102477272D01*
X120904340Y-102095817D01*
X120952021Y-102000453D01*
X121047385Y-101952771D01*
X121238113Y-101952771D01*
X121333477Y-102000453D01*
X121381159Y-102095817D01*
X121381159Y-102191180D01*
X120904340Y-102286544D01*
X121810296Y-102620318D02*
X121810296Y-101952771D01*
X121810296Y-102143499D02*
X121857978Y-102048135D01*
X121905660Y-102000453D01*
X122001023Y-101952771D01*
X122096387Y-101952771D01*
D14*
X126818380Y-130659166D02*
X126342190Y-130992500D01*
X126818380Y-131230595D02*
X125818380Y-131230595D01*
X125818380Y-130849642D01*
X125866000Y-130754404D01*
X125913619Y-130706785D01*
X126008857Y-130659166D01*
X126151714Y-130659166D01*
X126246952Y-130706785D01*
X126294571Y-130754404D01*
X126342190Y-130849642D01*
X126342190Y-131230595D01*
X126818380Y-129706785D02*
X126818380Y-130278214D01*
X126818380Y-129992500D02*
X125818380Y-129992500D01*
X125961238Y-130087738D01*
X126056476Y-130182976D01*
X126104095Y-130278214D01*
X124659380Y-73826666D02*
X124183190Y-74160000D01*
X124659380Y-74398095D02*
X123659380Y-74398095D01*
X123659380Y-74017142D01*
X123707000Y-73921904D01*
X123754619Y-73874285D01*
X123849857Y-73826666D01*
X123992714Y-73826666D01*
X124087952Y-73874285D01*
X124135571Y-73921904D01*
X124183190Y-74017142D01*
X124183190Y-74398095D01*
X123754619Y-73445714D02*
X123707000Y-73398095D01*
X123659380Y-73302857D01*
X123659380Y-73064761D01*
X123707000Y-72969523D01*
X123754619Y-72921904D01*
X123849857Y-72874285D01*
X123945095Y-72874285D01*
X124087952Y-72921904D01*
X124659380Y-73493333D01*
X124659380Y-72874285D01*
X118182380Y-94527666D02*
X117706190Y-94861000D01*
X118182380Y-95099095D02*
X117182380Y-95099095D01*
X117182380Y-94718142D01*
X117230000Y-94622904D01*
X117277619Y-94575285D01*
X117372857Y-94527666D01*
X117515714Y-94527666D01*
X117610952Y-94575285D01*
X117658571Y-94622904D01*
X117706190Y-94718142D01*
X117706190Y-95099095D01*
X117182380Y-94194333D02*
X117182380Y-93575285D01*
X117563333Y-93908619D01*
X117563333Y-93765761D01*
X117610952Y-93670523D01*
X117658571Y-93622904D01*
X117753809Y-93575285D01*
X117991904Y-93575285D01*
X118087142Y-93622904D01*
X118134761Y-93670523D01*
X118182380Y-93765761D01*
X118182380Y-94051476D01*
X118134761Y-94146714D01*
X118087142Y-94194333D01*
X118182380Y-86526666D02*
X117706190Y-86860000D01*
X118182380Y-87098095D02*
X117182380Y-87098095D01*
X117182380Y-86717142D01*
X117230000Y-86621904D01*
X117277619Y-86574285D01*
X117372857Y-86526666D01*
X117515714Y-86526666D01*
X117610952Y-86574285D01*
X117658571Y-86621904D01*
X117706190Y-86717142D01*
X117706190Y-87098095D01*
X117515714Y-85669523D02*
X118182380Y-85669523D01*
X117134761Y-85907619D02*
X117849047Y-86145714D01*
X117849047Y-85526666D01*
X118182380Y-78652666D02*
X117706190Y-78986000D01*
X118182380Y-79224095D02*
X117182380Y-79224095D01*
X117182380Y-78843142D01*
X117230000Y-78747904D01*
X117277619Y-78700285D01*
X117372857Y-78652666D01*
X117515714Y-78652666D01*
X117610952Y-78700285D01*
X117658571Y-78747904D01*
X117706190Y-78843142D01*
X117706190Y-79224095D01*
X117182380Y-77747904D02*
X117182380Y-78224095D01*
X117658571Y-78271714D01*
X117610952Y-78224095D01*
X117563333Y-78128857D01*
X117563333Y-77890761D01*
X117610952Y-77795523D01*
X117658571Y-77747904D01*
X117753809Y-77700285D01*
X117991904Y-77700285D01*
X118087142Y-77747904D01*
X118134761Y-77795523D01*
X118182380Y-77890761D01*
X118182380Y-78128857D01*
X118134761Y-78224095D01*
X118087142Y-78271714D01*
X119388880Y-125579166D02*
X118912690Y-125912500D01*
X119388880Y-126150595D02*
X118388880Y-126150595D01*
X118388880Y-125769642D01*
X118436500Y-125674404D01*
X118484119Y-125626785D01*
X118579357Y-125579166D01*
X118722214Y-125579166D01*
X118817452Y-125626785D01*
X118865071Y-125674404D01*
X118912690Y-125769642D01*
X118912690Y-126150595D01*
X118388880Y-124722023D02*
X118388880Y-124912500D01*
X118436500Y-125007738D01*
X118484119Y-125055357D01*
X118626976Y-125150595D01*
X118817452Y-125198214D01*
X119198404Y-125198214D01*
X119293642Y-125150595D01*
X119341261Y-125102976D01*
X119388880Y-125007738D01*
X119388880Y-124817261D01*
X119341261Y-124722023D01*
X119293642Y-124674404D01*
X119198404Y-124626785D01*
X118960309Y-124626785D01*
X118865071Y-124674404D01*
X118817452Y-124722023D01*
X118769833Y-124817261D01*
X118769833Y-125007738D01*
X118817452Y-125102976D01*
X118865071Y-125150595D01*
X118960309Y-125198214D01*
X157392761Y-72770880D02*
X157059428Y-72294690D01*
X156821333Y-72770880D02*
X156821333Y-71770880D01*
X157202285Y-71770880D01*
X157297523Y-71818500D01*
X157345142Y-71866119D01*
X157392761Y-71961357D01*
X157392761Y-72104214D01*
X157345142Y-72199452D01*
X157297523Y-72247071D01*
X157202285Y-72294690D01*
X156821333Y-72294690D01*
X157678476Y-71770880D02*
X158011809Y-72770880D01*
X158345142Y-71770880D01*
X159202285Y-72770880D02*
X158630857Y-72770880D01*
X158916571Y-72770880D02*
X158916571Y-71770880D01*
X158821333Y-71913738D01*
X158726095Y-72008976D01*
X158630857Y-72056595D01*
X157646761Y-92074880D02*
X157313428Y-91598690D01*
X157075333Y-92074880D02*
X157075333Y-91074880D01*
X157456285Y-91074880D01*
X157551523Y-91122500D01*
X157599142Y-91170119D01*
X157646761Y-91265357D01*
X157646761Y-91408214D01*
X157599142Y-91503452D01*
X157551523Y-91551071D01*
X157456285Y-91598690D01*
X157075333Y-91598690D01*
X157932476Y-91074880D02*
X158265809Y-92074880D01*
X158599142Y-91074880D01*
X158884857Y-91170119D02*
X158932476Y-91122500D01*
X159027714Y-91074880D01*
X159265809Y-91074880D01*
X159361047Y-91122500D01*
X159408666Y-91170119D01*
X159456285Y-91265357D01*
X159456285Y-91360595D01*
X159408666Y-91503452D01*
X158837238Y-92074880D01*
X159456285Y-92074880D01*
X157646761Y-110870880D02*
X157313428Y-110394690D01*
X157075333Y-110870880D02*
X157075333Y-109870880D01*
X157456285Y-109870880D01*
X157551523Y-109918500D01*
X157599142Y-109966119D01*
X157646761Y-110061357D01*
X157646761Y-110204214D01*
X157599142Y-110299452D01*
X157551523Y-110347071D01*
X157456285Y-110394690D01*
X157075333Y-110394690D01*
X157932476Y-109870880D02*
X158265809Y-110870880D01*
X158599142Y-109870880D01*
X158837238Y-109870880D02*
X159456285Y-109870880D01*
X159122952Y-110251833D01*
X159265809Y-110251833D01*
X159361047Y-110299452D01*
X159408666Y-110347071D01*
X159456285Y-110442309D01*
X159456285Y-110680404D01*
X159408666Y-110775642D01*
X159361047Y-110823261D01*
X159265809Y-110870880D01*
X158980095Y-110870880D01*
X158884857Y-110823261D01*
X158837238Y-110775642D01*
X133437261Y-133476833D02*
X133484880Y-133333976D01*
X133484880Y-133095880D01*
X133437261Y-133000642D01*
X133389642Y-132953023D01*
X133294404Y-132905404D01*
X133199166Y-132905404D01*
X133103928Y-132953023D01*
X133056309Y-133000642D01*
X133008690Y-133095880D01*
X132961071Y-133286357D01*
X132913452Y-133381595D01*
X132865833Y-133429214D01*
X132770595Y-133476833D01*
X132675357Y-133476833D01*
X132580119Y-133429214D01*
X132532500Y-133381595D01*
X132484880Y-133286357D01*
X132484880Y-133048261D01*
X132532500Y-132905404D01*
X132484880Y-132572071D02*
X133484880Y-132333976D01*
X132770595Y-132143500D01*
X133484880Y-131953023D01*
X132484880Y-131714928D01*
X133484880Y-130810166D02*
X133484880Y-131381595D01*
X133484880Y-131095880D02*
X132484880Y-131095880D01*
X132627738Y-131191119D01*
X132722976Y-131286357D01*
X132770595Y-131381595D01*
M02*
